<svg version="1.2" xmlns="http://www.w3.org/2000/svg" viewBox="0 0 1000 1000" width="500" height="500">
	<title>7804143-ai</title>
	<style>
		tspan { white-space:pre } 
		.s0 { fill: none } 
		.s1 { fill: #ffffff } 
		.s2 { fill: #ffffff } 
		.s3 { fill: #ffffff } 
	</style>
	<g id="BACKGROUND">
		<g id="&lt;Group&gt;">
			<path id="&lt;Path&gt;" class="s0" d="m1000 1000h-1000v-1000h1000z"/>
		</g>
	</g>
	<g id="OBJECTS">
		<g id="&lt;Group&gt;">
			<path id="&lt;Path&gt;" class="s1" d="m384 247.5l6 15.7c0.3 0.9 0.9 1.5 1.8 1.9l15.7 5.9c2.7 1 2.7 4.8 0 5.9l-15.7 5.9c-0.9 0.3-1.5 1-1.8 1.8l-6 15.7c-1 2.8-4.8 2.8-5.8 0l-6-15.7c-0.3-0.8-0.9-1.5-1.8-1.8l-15.7-5.9c-2.7-1.1-2.7-4.9 0-5.9l15.7-5.9c0.9-0.4 1.5-1 1.8-1.9l6-15.7c1-2.7 4.8-2.7 5.8 0z"/>
			<path id="&lt;Path&gt;" class="s1" d="m694.5 569.7l5.9 15.7c0.3 0.9 1 1.5 1.8 1.8l15.7 6c2.8 1 2.8 4.8 0 5.8l-15.7 6c-0.8 0.3-1.5 1-1.8 1.8l-5.9 15.7c-1.1 2.7-4.9 2.7-5.9 0l-5.9-15.7c-0.4-0.8-1-1.5-1.9-1.8l-15.7-6c-2.7-1-2.7-4.8 0-5.8l15.7-6c0.9-0.3 1.5-0.9 1.9-1.8l5.9-15.7c1-2.7 4.8-2.7 5.9 0z"/>
			<path id="&lt;Path&gt;" class="s1" d="m579.7 245.9l3.7 9.8c0.2 0.5 0.6 0.9 1.1 1.1l9.7 3.7c1.7 0.6 1.7 3 0 3.6l-9.7 3.6c-0.5 0.2-0.9 0.6-1.1 1.2l-3.7 9.7c-0.6 1.7-3 1.7-3.6 0l-3.7-9.7c-0.2-0.6-0.6-1-1.1-1.2l-9.7-3.6c-1.7-0.6-1.7-3 0-3.6l9.7-3.7c0.5-0.2 0.9-0.6 1.1-1.1l3.7-9.8c0.6-1.6 3-1.6 3.6 0z"/>
			<path id="&lt;Path&gt;" class="s1" d="m298.3 587.9l4.3 11.5c0.2 0.6 0.7 1.1 1.4 1.3l11.4 4.3c2 0.8 2 3.6 0 4.3l-11.4 4.3c-0.7 0.2-1.2 0.7-1.4 1.3l-4.3 11.5c-0.7 2-3.5 2-4.3 0l-4.3-11.5c-0.2-0.6-0.7-1.1-1.3-1.3l-11.4-4.3c-2-0.7-2-3.5 0-4.3l11.4-4.3c0.6-0.2 1.1-0.7 1.3-1.3l4.3-11.5c0.8-1.9 3.6-1.9 4.3 0z"/>
			<path id="&lt;Path&gt;" class="s2" d="m479.7 562.9c10.5-74.1 54.2-142.9 116.8-183.9 28.4-18.7 60.1-31.6 91.5-44.5l51.8-21.1c7.7-3.2 16.3 1.8 17.3 10 11 90.2-28.9 183.5-95.1 246.5-35.6 33.9-81.6 61.7-131.2 68.1-50.5 6.5-57.3-31.6-51.1-75.1z"/>
			<path id="&lt;Path&gt;" class="s2" d="m459.7 571.2c-5.4-60.9-38-118.8-87.2-155-22.3-16.4-47.5-28.3-72.5-40.1l-43.6-20.6c-4.9-2.3-10.7 0.5-11.7 5.8-14.1 73.8 14.4 152.8 66.2 207.6 27.5 29.2 63.8 53.8 103.9 61.2 40.9 7.5 48-23.2 44.9-58.9z"/>
			<g id="&lt;Group&gt;">
				<g id="&lt;Group&gt;">
					<path id="&lt;Path&gt;" class="s0" d="m599.8 498c0 0-97 93.4-115.5 116.1-18.6 22.7 10.2 48.8 30 27 19.8-21.9 97.9-131.3 97.9-131.3z"/>
					<path id="&lt;Path&gt;" class="s0" d="m652.6 503.9c-15.9 21.8-38.5 23.9-55.7 11.4-17.1-12.4-22.1-34.6-6.3-56.5 15.9-21.8 53.5-44.4 70.6-32 17.1 12.5 7.3 55.2-8.6 77.1z"/>
				</g>
			</g>
			<g id="&lt;Group&gt;">
				<g id="&lt;Group&gt;">
					<g id="&lt;Group&gt;">
						<path id="&lt;Path&gt;" class="s0" d="m332.6 433.7c-3 2.1-3.7 6.2-1.6 9.1l32.2 44.9c1.7 2.4 1.2 5.8-1.3 7.6-2.4 1.8-5.7 1.3-7.5-1.1l-32.2-44.8c-2-2.9-6.1-3.5-9-1.3-3 2.2-3.7 6.3-1.6 9.1l32.2 44.9c1.7 2.4 1.2 5.8-1.3 7.6-2.4 1.8-5.7 1.3-7.4-1.1l-32.3-44.8c-2-2.9-6.1-3.5-9-1.3-2.9 2.2-3.6 6.3-1.6 9.2l35.4 49.1 4.3 6c6.3 8.8 18.6 10.6 27.6 4l17-12.7c9-6.7 11.1-19.2 4.7-28l-4.3-6-35.3-49.2c-2.1-2.8-6.1-3.4-9-1.2z"/>
					</g>
				</g>
				<path id="&lt;Path&gt;" class="s0" d="m354.8 520.5c0 0 62.4 99.4 78.4 119.3 16.1 19.9 43.6 0 28.5-20.8-15.2-20.8-94.6-107-94.6-107z"/>
			</g>
			<path id="&lt;Path&gt;" class="s2" d="m508.3 186.7c-3.1-3.7-8.9-3.6-11.8 0.4l-24.9 33.8c-14.4 19.6-28.8 39.3-39.2 61.2-22.9 48.5-23.9 106.7-2.6 155.9 6.9 16.1 15.7 29.6 27 34.5-1.1-8.5-1.8-17-2.4-25.5-1.7-23.1-1.5-46.3 0.6-69.4 2-22.5 6-44.5 11.9-66.3 6.1-22.8 15-42.2 26.9-62.4 0.8-1.4 2.7-0.3 2.4 1.1-10.6 42.6-20.1 86.5-22.8 130.4-1.3 20.9-1.1 41.9 0.7 62.8 0.8 9.6 2.2 19 3.6 28.5 3.6-1.6 7.3-3.9 11.3-7 27.8-22.4 45.5-56.5 54.6-90.5 17-63.8 6.1-136.5-35.3-187.5z"/>
			<path id="&lt;Path&gt;" class="s3" d="m627 297.8c-16.3 1.1-32.4 7.2-44.3 18.4-9.4 8.7-26.5 35.6-18.5 49.8 1.3-3.1 2.8-6.2 4.4-9.3 3.8-7 8.3-13.6 13.4-19.7 5.2-6.2 10.9-11.8 17.6-16.5q4.7-3.3 9.7-6.1c2.8-1.6 6.6-4.2 9.9-4.1 0.2 0 0.3 0.2 0.2 0.3-1.6 2.6-5.2 4.4-7.6 6.2q-4.8 3.6-9.2 7.6c-5.4 5.2-10.8 10.5-15.6 16.3-4.9 5.8-9.1 12.1-12.8 18.7q-2.8 5.2-5 10.5 0 0.1 0 0.1c12 2.7 37.6-17.5 43.9-23.6 10.9-10.8 18.9-24.9 21.7-40 0.9-4.7-3-8.9-7.8-8.6z"/>
			<path id="&lt;Path&gt;" class="s3" d="m377.3 361c-3.8-6.2-8-12-12.4-17.8-4.3-5.6-9.8-10.4-14-16.1-0.4-0.6 0.1-1.6 0.8-1.2 6.8 3.3 12.6 9.4 17.8 14.7 5.6 5.8 10.5 12.4 14.7 19.2 6.6 10.5 11.7 21.9 15.4 33.7 7.5-14.9-4.3-43.5-12.1-53.8-11-14.7-27.6-24.5-45.5-28.7-4.2-1-8.2 2.3-8.3 6.6-0.4 17.2 5.5 34.4 15.4 48.4 5.8 8.2 31.2 36.8 44.1 33.6-3.3-13.6-8.7-26.6-15.9-38.6z"/>
		</g>
	</g>
</svg>