<?xml version="1.0" encoding="UTF-8" standalone="no"?>
<svg
   width="98.519363pt"
   height="99.999992pt"
   viewBox="0 0 98.519363 99.999992"
   version="1.1"
   id="svg341"
   sodipodi:docname="plant-2.svg"
   inkscape:version="1.3 (0e150ed6c4, 2023-07-21)"
   xmlns:inkscape="http://www.inkscape.org/namespaces/inkscape"
   xmlns:sodipodi="http://sodipodi.sourceforge.net/DTD/sodipodi-0.dtd"
   xmlns="http://www.w3.org/2000/svg"
   xmlns:svg="http://www.w3.org/2000/svg">
  <sodipodi:namedview
     id="namedview341"
     pagecolor="#ffffff"
     bordercolor="#000000"
     borderopacity="0.25"
     inkscape:showpageshadow="2"
     inkscape:pageopacity="0.0"
     inkscape:pagecheckerboard="0"
     inkscape:deskcolor="#d1d1d1"
     inkscape:document-units="pt"
     showgrid="false"
     inkscape:zoom="1.197"
     inkscape:cx="220.55138"
     inkscape:cy="233.08271"
     inkscape:window-width="1920"
     inkscape:window-height="1002"
     inkscape:window-x="-8"
     inkscape:window-y="-8"
     inkscape:window-maximized="1"
     inkscape:current-layer="svg341" />
  <defs
     id="defs64">
    <clipPath
       id="clip-0">
      <path
         clip-rule="nonzero"
         d="m 199,370 h 100 v 11 H 199 Z m 0,0"
         id="path1" />
    </clipPath>
    <clipPath
       id="clip-1">
      <path
         clip-rule="nonzero"
         d="m 199.125,370.57422 c 0,5.39453 22.24219,9.76953 49.67578,9.76953 27.4375,0 49.67578,-4.375 49.67578,-9.76953 0,-5.39453 -22.23828,-9.76953 -49.67578,-9.76953 -27.43359,0 -49.67578,4.375 -49.67578,9.76953"
         id="path2" />
    </clipPath>
    <clipPath
       id="clip-2">
      <path
         clip-rule="nonzero"
         d="m 182,209 h 111 v 49 H 182 Z m 0,0"
         id="path3" />
    </clipPath>
    <clipPath
       id="clip-3">
      <path
         clip-rule="nonzero"
         d="m 198.04297,52.789063 c 0,0 -10.23438,0 -19.54297,11.65625 -9.30859,11.660156 -8.67578,7.265625 -16.10547,26.558593 -7.43359,19.289064 -9.5,29.726564 -10.25,40.933594 -0.75,11.20703 -2.71875,15.16797 1.41797,34.89453 4.13672,19.72266 3.82812,19.27734 8.9375,29.55469 5.11328,10.27734 2.91406,22.7539 6.39844,31.85547 3.48437,9.10547 9.73437,7.47656 10.79297,17.09765 1.0625,9.625 7.78515,11.09766 16.95703,11.71485 9.16797,0.61328 13.78515,8.08593 22.86718,4.9414 9.08204,-3.14453 13.76954,-32.40625 13.76954,-32.40625 l -1.6875,-10.45312 c 0,0 3.05468,10.45312 10.91015,15.40625 7.85547,4.95312 14.25781,21.41797 26.48438,22.23437 12.22656,0.82032 8.76562,-13.72656 16.30859,-19.36718 7.54297,-5.64454 15.40625,-26.26954 9.25,-41.35157 -6.15234,-15.08203 0.082,-26.66406 -11.75,-38.51172 -11.82812,-11.85156 -0.31641,-25.41015 -16.37891,-40.47265 -9,-8.44922 -8.43359,-16.94141 -20.8164,-25.617189 -11.85156,-8.304687 -15.33985,-38.851562 -43.60156,-38.855468 -1.26954,0 -2.58594,0.0625 -3.96094,0.1875"
         id="path4" />
    </clipPath>
    <clipPath
       id="clip-4">
      <path
         clip-rule="nonzero"
         d="m 169,197 h 128 v 34 H 169 Z m 0,0"
         id="path5" />
    </clipPath>
    <clipPath
       id="clip-5">
      <path
         clip-rule="nonzero"
         d="m 198.04297,52.789063 c 0,0 -10.23438,0 -19.54297,11.65625 -9.30859,11.660156 -8.67578,7.265625 -16.10547,26.558593 -7.43359,19.289064 -9.5,29.726564 -10.25,40.933594 -0.75,11.20703 -2.71875,15.16797 1.41797,34.89453 4.13672,19.72266 3.82812,19.27734 8.9375,29.55469 5.11328,10.27734 2.91406,22.7539 6.39844,31.85547 3.48437,9.10547 9.73437,7.47656 10.79297,17.09765 1.0625,9.625 7.78515,11.09766 16.95703,11.71485 9.16797,0.61328 13.78515,8.08593 22.86718,4.9414 9.08204,-3.14453 13.76954,-32.40625 13.76954,-32.40625 l -1.6875,-10.45312 c 0,0 3.05468,10.45312 10.91015,15.40625 7.85547,4.95312 14.25781,21.41797 26.48438,22.23437 12.22656,0.82032 8.76562,-13.72656 16.30859,-19.36718 7.54297,-5.64454 15.40625,-26.26954 9.25,-41.35157 -6.15234,-15.08203 0.082,-26.66406 -11.75,-38.51172 -11.82812,-11.85156 -0.31641,-25.41015 -16.37891,-40.47265 -9,-8.44922 -8.43359,-16.94141 -20.8164,-25.617189 -11.85156,-8.304687 -15.33985,-38.851562 -43.60156,-38.855468 -1.26954,0 -2.58594,0.0625 -3.96094,0.1875"
         id="path6" />
    </clipPath>
    <clipPath
       id="clip-6">
      <path
         clip-rule="nonzero"
         d="m 160,185 h 137 v 24 H 160 Z m 0,0"
         id="path7" />
    </clipPath>
    <clipPath
       id="clip-7">
      <path
         clip-rule="nonzero"
         d="m 198.04297,52.789063 c 0,0 -10.23438,0 -19.54297,11.65625 -9.30859,11.660156 -8.67578,7.265625 -16.10547,26.558593 -7.43359,19.289064 -9.5,29.726564 -10.25,40.933594 -0.75,11.20703 -2.71875,15.16797 1.41797,34.89453 4.13672,19.72266 3.82812,19.27734 8.9375,29.55469 5.11328,10.27734 2.91406,22.7539 6.39844,31.85547 3.48437,9.10547 9.73437,7.47656 10.79297,17.09765 1.0625,9.625 7.78515,11.09766 16.95703,11.71485 9.16797,0.61328 13.78515,8.08593 22.86718,4.9414 9.08204,-3.14453 13.76954,-32.40625 13.76954,-32.40625 l -1.6875,-10.45312 c 0,0 3.05468,10.45312 10.91015,15.40625 7.85547,4.95312 14.25781,21.41797 26.48438,22.23437 12.22656,0.82032 8.76562,-13.72656 16.30859,-19.36718 7.54297,-5.64454 15.40625,-26.26954 9.25,-41.35157 -6.15234,-15.08203 0.082,-26.66406 -11.75,-38.51172 -11.82812,-11.85156 -0.31641,-25.41015 -16.37891,-40.47265 -9,-8.44922 -8.43359,-16.94141 -20.8164,-25.617189 -11.85156,-8.304687 -15.33985,-38.851562 -43.60156,-38.855468 -1.26954,0 -2.58594,0.0625 -3.96094,0.1875"
         id="path8" />
    </clipPath>
    <clipPath
       id="clip-8">
      <path
         clip-rule="nonzero"
         d="m 151,159 h 142 v 26 H 151 Z m 0,0"
         id="path9" />
    </clipPath>
    <clipPath
       id="clip-9">
      <path
         clip-rule="nonzero"
         d="m 198.04297,52.789063 c 0,0 -10.23438,0 -19.54297,11.65625 -9.30859,11.660156 -8.67578,7.265625 -16.10547,26.558593 -7.43359,19.289064 -9.5,29.726564 -10.25,40.933594 -0.75,11.20703 -2.71875,15.16797 1.41797,34.89453 4.13672,19.72266 3.82812,19.27734 8.9375,29.55469 5.11328,10.27734 2.91406,22.7539 6.39844,31.85547 3.48437,9.10547 9.73437,7.47656 10.79297,17.09765 1.0625,9.625 7.78515,11.09766 16.95703,11.71485 9.16797,0.61328 13.78515,8.08593 22.86718,4.9414 9.08204,-3.14453 13.76954,-32.40625 13.76954,-32.40625 l -1.6875,-10.45312 c 0,0 3.05468,10.45312 10.91015,15.40625 7.85547,4.95312 14.25781,21.41797 26.48438,22.23437 12.22656,0.82032 8.76562,-13.72656 16.30859,-19.36718 7.54297,-5.64454 15.40625,-26.26954 9.25,-41.35157 -6.15234,-15.08203 0.082,-26.66406 -11.75,-38.51172 -11.82812,-11.85156 -0.31641,-25.41015 -16.37891,-40.47265 -9,-8.44922 -8.43359,-16.94141 -20.8164,-25.617189 -11.85156,-8.304687 -15.33985,-38.851562 -43.60156,-38.855468 -1.26954,0 -2.58594,0.0625 -3.96094,0.1875"
         id="path10" />
    </clipPath>
    <clipPath
       id="clip-10">
      <path
         clip-rule="nonzero"
         d="m 151,134 h 130 v 29 H 151 Z m 0,0"
         id="path11" />
    </clipPath>
    <clipPath
       id="clip-11">
      <path
         clip-rule="nonzero"
         d="m 198.04297,52.789063 c 0,0 -10.23438,0 -19.54297,11.65625 -9.30859,11.660156 -8.67578,7.265625 -16.10547,26.558593 -7.43359,19.289064 -9.5,29.726564 -10.25,40.933594 -0.75,11.20703 -2.71875,15.16797 1.41797,34.89453 4.13672,19.72266 3.82812,19.27734 8.9375,29.55469 5.11328,10.27734 2.91406,22.7539 6.39844,31.85547 3.48437,9.10547 9.73437,7.47656 10.79297,17.09765 1.0625,9.625 7.78515,11.09766 16.95703,11.71485 9.16797,0.61328 13.78515,8.08593 22.86718,4.9414 9.08204,-3.14453 13.76954,-32.40625 13.76954,-32.40625 l -1.6875,-10.45312 c 0,0 3.05468,10.45312 10.91015,15.40625 7.85547,4.95312 14.25781,21.41797 26.48438,22.23437 12.22656,0.82032 8.76562,-13.72656 16.30859,-19.36718 7.54297,-5.64454 15.40625,-26.26954 9.25,-41.35157 -6.15234,-15.08203 0.082,-26.66406 -11.75,-38.51172 -11.82812,-11.85156 -0.31641,-25.41015 -16.37891,-40.47265 -9,-8.44922 -8.43359,-16.94141 -20.8164,-25.617189 -11.85156,-8.304687 -15.33985,-38.851562 -43.60156,-38.855468 -1.26954,0 -2.58594,0.0625 -3.96094,0.1875"
         id="path12" />
    </clipPath>
    <clipPath
       id="clip-12">
      <path
         clip-rule="nonzero"
         d="m 151,112 h 119 v 34 H 151 Z m 0,0"
         id="path13" />
    </clipPath>
    <clipPath
       id="clip-13">
      <path
         clip-rule="nonzero"
         d="m 198.04297,52.789063 c 0,0 -10.23438,0 -19.54297,11.65625 -9.30859,11.660156 -8.67578,7.265625 -16.10547,26.558593 -7.43359,19.289064 -9.5,29.726564 -10.25,40.933594 -0.75,11.20703 -2.71875,15.16797 1.41797,34.89453 4.13672,19.72266 3.82812,19.27734 8.9375,29.55469 5.11328,10.27734 2.91406,22.7539 6.39844,31.85547 3.48437,9.10547 9.73437,7.47656 10.79297,17.09765 1.0625,9.625 7.78515,11.09766 16.95703,11.71485 9.16797,0.61328 13.78515,8.08593 22.86718,4.9414 9.08204,-3.14453 13.76954,-32.40625 13.76954,-32.40625 l -1.6875,-10.45312 c 0,0 3.05468,10.45312 10.91015,15.40625 7.85547,4.95312 14.25781,21.41797 26.48438,22.23437 12.22656,0.82032 8.76562,-13.72656 16.30859,-19.36718 7.54297,-5.64454 15.40625,-26.26954 9.25,-41.35157 -6.15234,-15.08203 0.082,-26.66406 -11.75,-38.51172 -11.82812,-11.85156 -0.31641,-25.41015 -16.37891,-40.47265 -9,-8.44922 -8.43359,-16.94141 -20.8164,-25.617189 -11.85156,-8.304687 -15.33985,-38.851562 -43.60156,-38.855468 -1.26954,0 -2.58594,0.0625 -3.96094,0.1875"
         id="path14" />
    </clipPath>
    <clipPath
       id="clip-14">
      <path
         clip-rule="nonzero"
         d="m 151,91 h 106 v 32 H 151 Z m 0,0"
         id="path15" />
    </clipPath>
    <clipPath
       id="clip-15">
      <path
         clip-rule="nonzero"
         d="m 198.04297,52.789063 c 0,0 -10.23438,0 -19.54297,11.65625 -9.30859,11.660156 -8.67578,7.265625 -16.10547,26.558593 -7.43359,19.289064 -9.5,29.726564 -10.25,40.933594 -0.75,11.20703 -2.71875,15.16797 1.41797,34.89453 4.13672,19.72266 3.82812,19.27734 8.9375,29.55469 5.11328,10.27734 2.91406,22.7539 6.39844,31.85547 3.48437,9.10547 9.73437,7.47656 10.79297,17.09765 1.0625,9.625 7.78515,11.09766 16.95703,11.71485 9.16797,0.61328 13.78515,8.08593 22.86718,4.9414 9.08204,-3.14453 13.76954,-32.40625 13.76954,-32.40625 l -1.6875,-10.45312 c 0,0 3.05468,10.45312 10.91015,15.40625 7.85547,4.95312 14.25781,21.41797 26.48438,22.23437 12.22656,0.82032 8.76562,-13.72656 16.30859,-19.36718 7.54297,-5.64454 15.40625,-26.26954 9.25,-41.35157 -6.15234,-15.08203 0.082,-26.66406 -11.75,-38.51172 -11.82812,-11.85156 -0.31641,-25.41015 -16.37891,-40.47265 -9,-8.44922 -8.43359,-16.94141 -20.8164,-25.617189 -11.85156,-8.304687 -15.33985,-38.851562 -43.60156,-38.855468 -1.26954,0 -2.58594,0.0625 -3.96094,0.1875"
         id="path16" />
    </clipPath>
    <clipPath
       id="clip-16">
      <path
         clip-rule="nonzero"
         d="m 162,77 h 82 v 31 h -82 z m 0,0"
         id="path17" />
    </clipPath>
    <clipPath
       id="clip-17">
      <path
         clip-rule="nonzero"
         d="m 198.04297,52.789063 c 0,0 -10.23438,0 -19.54297,11.65625 -9.30859,11.660156 -8.67578,7.265625 -16.10547,26.558593 -7.43359,19.289064 -9.5,29.726564 -10.25,40.933594 -0.75,11.20703 -2.71875,15.16797 1.41797,34.89453 4.13672,19.72266 3.82812,19.27734 8.9375,29.55469 5.11328,10.27734 2.91406,22.7539 6.39844,31.85547 3.48437,9.10547 9.73437,7.47656 10.79297,17.09765 1.0625,9.625 7.78515,11.09766 16.95703,11.71485 9.16797,0.61328 13.78515,8.08593 22.86718,4.9414 9.08204,-3.14453 13.76954,-32.40625 13.76954,-32.40625 l -1.6875,-10.45312 c 0,0 3.05468,10.45312 10.91015,15.40625 7.85547,4.95312 14.25781,21.41797 26.48438,22.23437 12.22656,0.82032 8.76562,-13.72656 16.30859,-19.36718 7.54297,-5.64454 15.40625,-26.26954 9.25,-41.35157 -6.15234,-15.08203 0.082,-26.66406 -11.75,-38.51172 -11.82812,-11.85156 -0.31641,-25.41015 -16.37891,-40.47265 -9,-8.44922 -8.43359,-16.94141 -20.8164,-25.617189 -11.85156,-8.304687 -15.33985,-38.851562 -43.60156,-38.855468 -1.26954,0 -2.58594,0.0625 -3.96094,0.1875"
         id="path18" />
    </clipPath>
    <clipPath
       id="clip-18">
      <path
         clip-rule="nonzero"
         d="m 171,62 h 63 v 24 h -63 z m 0,0"
         id="path19" />
    </clipPath>
    <clipPath
       id="clip-19">
      <path
         clip-rule="nonzero"
         d="m 198.04297,52.789063 c 0,0 -10.23438,0 -19.54297,11.65625 -9.30859,11.660156 -8.67578,7.265625 -16.10547,26.558593 -7.43359,19.289064 -9.5,29.726564 -10.25,40.933594 -0.75,11.20703 -2.71875,15.16797 1.41797,34.89453 4.13672,19.72266 3.82812,19.27734 8.9375,29.55469 5.11328,10.27734 2.91406,22.7539 6.39844,31.85547 3.48437,9.10547 9.73437,7.47656 10.79297,17.09765 1.0625,9.625 7.78515,11.09766 16.95703,11.71485 9.16797,0.61328 13.78515,8.08593 22.86718,4.9414 9.08204,-3.14453 13.76954,-32.40625 13.76954,-32.40625 l -1.6875,-10.45312 c 0,0 3.05468,10.45312 10.91015,15.40625 7.85547,4.95312 14.25781,21.41797 26.48438,22.23437 12.22656,0.82032 8.76562,-13.72656 16.30859,-19.36718 7.54297,-5.64454 15.40625,-26.26954 9.25,-41.35157 -6.15234,-15.08203 0.082,-26.66406 -11.75,-38.51172 -11.82812,-11.85156 -0.31641,-25.41015 -16.37891,-40.47265 -9,-8.44922 -8.43359,-16.94141 -20.8164,-25.617189 -11.85156,-8.304687 -15.33985,-38.851562 -43.60156,-38.855468 -1.26954,0 -2.58594,0.0625 -3.96094,0.1875"
         id="path20" />
    </clipPath>
    <clipPath
       id="clip-20">
      <path
         clip-rule="nonzero"
         d="m 301,245 h 125 v 11 H 301 Z m 0,0"
         id="path21" />
    </clipPath>
    <clipPath
       id="clip-21">
      <path
         clip-rule="nonzero"
         d="m 359.62109,240.90234 c -2.125,1.23047 -4.0039,0.8711 -6.53125,0.51172 -5.17187,-0.73437 -13.05468,-1.46875 -31.2539,11.40625 0,0 -31.65625,0.85938 -40.16407,4.34375 -8.51171,3.48438 -21.10546,11.98828 -11.23437,13.01172 3.92187,0.41016 8.58203,-0.89453 13.63281,-2.19922 7.65235,-1.97265 16.19922,-3.94531 24.4375,0.0274 6.91016,3.33984 13.89844,1.33203 20.30469,-0.67579 6.26172,-1.96093 11.96875,-3.92187 16.51172,-0.89453 5.63281,3.75782 15.88672,1.55078 24.85937,-0.66015 5.66407,-1.39063 10.8125,-2.78516 13.96875,-2.67969 8.14844,0.27734 19.37891,1.47656 30.61328,-5.92969 11.23438,-7.41015 15.66016,-2.02344 9.19141,-10.84375 -6.46875,-8.82031 -21.98828,-4.05469 -31.24609,-7.45703 -3.48047,-1.27734 -8.10157,-1.83984 -12.85938,-1.83984 -7.91015,0 -16.1914,1.54297 -20.23047,3.8789"
         id="path22" />
    </clipPath>
    <clipPath
       id="clip-22">
      <path
         clip-rule="nonzero"
         d="m 400,239 h 27 v 12 h -27 z m 0,0"
         id="path23" />
    </clipPath>
    <clipPath
       id="clip-23">
      <path
         clip-rule="nonzero"
         d="m 359.62109,240.90234 c -2.125,1.23047 -4.0039,0.8711 -6.53125,0.51172 -5.17187,-0.73437 -13.05468,-1.46875 -31.2539,11.40625 0,0 -31.65625,0.85938 -40.16407,4.34375 -8.51171,3.48438 -21.10546,11.98828 -11.23437,13.01172 3.92187,0.41016 8.58203,-0.89453 13.63281,-2.19922 7.65235,-1.97265 16.19922,-3.94531 24.4375,0.0274 6.91016,3.33984 13.89844,1.33203 20.30469,-0.67579 6.26172,-1.96093 11.96875,-3.92187 16.51172,-0.89453 5.63281,3.75782 15.88672,1.55078 24.85937,-0.66015 5.66407,-1.39063 10.8125,-2.78516 13.96875,-2.67969 8.14844,0.27734 19.37891,1.47656 30.61328,-5.92969 11.23438,-7.41015 15.66016,-2.02344 9.19141,-10.84375 -6.46875,-8.82031 -21.98828,-4.05469 -31.24609,-7.45703 -3.48047,-1.27734 -8.10157,-1.83984 -12.85938,-1.83984 -7.91015,0 -16.1914,1.54297 -20.23047,3.8789"
         id="path24" />
    </clipPath>
    <clipPath
       id="clip-24">
      <path
         clip-rule="nonzero"
         d="m 378,237 h 36 v 29 h -36 z m 0,0"
         id="path25" />
    </clipPath>
    <clipPath
       id="clip-25">
      <path
         clip-rule="nonzero"
         d="m 359.62109,240.90234 c -2.125,1.23047 -4.0039,0.8711 -6.53125,0.51172 -5.17187,-0.73437 -13.05468,-1.46875 -31.2539,11.40625 0,0 -31.65625,0.85938 -40.16407,4.34375 -8.51171,3.48438 -21.10546,11.98828 -11.23437,13.01172 3.92187,0.41016 8.58203,-0.89453 13.63281,-2.19922 7.65235,-1.97265 16.19922,-3.94531 24.4375,0.0274 6.91016,3.33984 13.89844,1.33203 20.30469,-0.67579 6.26172,-1.96093 11.96875,-3.92187 16.51172,-0.89453 5.63281,3.75782 15.88672,1.55078 24.85937,-0.66015 5.66407,-1.39063 10.8125,-2.78516 13.96875,-2.67969 8.14844,0.27734 19.37891,1.47656 30.61328,-5.92969 11.23438,-7.41015 15.66016,-2.02344 9.19141,-10.84375 -6.46875,-8.82031 -21.98828,-4.05469 -31.24609,-7.45703 -3.48047,-1.27734 -8.10157,-1.83984 -12.85938,-1.83984 -7.91015,0 -16.1914,1.54297 -20.23047,3.8789"
         id="path26" />
    </clipPath>
    <clipPath
       id="clip-26">
      <path
         clip-rule="nonzero"
         d="m 359,237 h 22 v 33 h -22 z m 0,0"
         id="path27" />
    </clipPath>
    <clipPath
       id="clip-27">
      <path
         clip-rule="nonzero"
         d="m 359.62109,240.90234 c -2.125,1.23047 -4.0039,0.8711 -6.53125,0.51172 -5.17187,-0.73437 -13.05468,-1.46875 -31.2539,11.40625 0,0 -31.65625,0.85938 -40.16407,4.34375 -8.51171,3.48438 -21.10546,11.98828 -11.23437,13.01172 3.92187,0.41016 8.58203,-0.89453 13.63281,-2.19922 7.65235,-1.97265 16.19922,-3.94531 24.4375,0.0274 6.91016,3.33984 13.89844,1.33203 20.30469,-0.67579 6.26172,-1.96093 11.96875,-3.92187 16.51172,-0.89453 5.63281,3.75782 15.88672,1.55078 24.85937,-0.66015 5.66407,-1.39063 10.8125,-2.78516 13.96875,-2.67969 8.14844,0.27734 19.37891,1.47656 30.61328,-5.92969 11.23438,-7.41015 15.66016,-2.02344 9.19141,-10.84375 -6.46875,-8.82031 -21.98828,-4.05469 -31.24609,-7.45703 -3.48047,-1.27734 -8.10157,-1.83984 -12.85938,-1.83984 -7.91015,0 -16.1914,1.54297 -20.23047,3.8789"
         id="path28" />
    </clipPath>
    <clipPath
       id="clip-28">
      <path
         clip-rule="nonzero"
         d="m 337,237 h 21 v 34 h -21 z m 0,0"
         id="path29" />
    </clipPath>
    <clipPath
       id="clip-29">
      <path
         clip-rule="nonzero"
         d="m 359.62109,240.90234 c -2.125,1.23047 -4.0039,0.8711 -6.53125,0.51172 -5.17187,-0.73437 -13.05468,-1.46875 -31.2539,11.40625 0,0 -31.65625,0.85938 -40.16407,4.34375 -8.51171,3.48438 -21.10546,11.98828 -11.23437,13.01172 3.92187,0.41016 8.58203,-0.89453 13.63281,-2.19922 7.65235,-1.97265 16.19922,-3.94531 24.4375,0.0274 6.91016,3.33984 13.89844,1.33203 20.30469,-0.67579 6.26172,-1.96093 11.96875,-3.92187 16.51172,-0.89453 5.63281,3.75782 15.88672,1.55078 24.85937,-0.66015 5.66407,-1.39063 10.8125,-2.78516 13.96875,-2.67969 8.14844,0.27734 19.37891,1.47656 30.61328,-5.92969 11.23438,-7.41015 15.66016,-2.02344 9.19141,-10.84375 -6.46875,-8.82031 -21.98828,-4.05469 -31.24609,-7.45703 -3.48047,-1.27734 -8.10157,-1.83984 -12.85938,-1.83984 -7.91015,0 -16.1914,1.54297 -20.23047,3.8789"
         id="path30" />
    </clipPath>
    <clipPath
       id="clip-30">
      <path
         clip-rule="nonzero"
         d="m 317,242 h 17 v 29 h -17 z m 0,0"
         id="path31" />
    </clipPath>
    <clipPath
       id="clip-31">
      <path
         clip-rule="nonzero"
         d="m 359.62109,240.90234 c -2.125,1.23047 -4.0039,0.8711 -6.53125,0.51172 -5.17187,-0.73437 -13.05468,-1.46875 -31.2539,11.40625 0,0 -31.65625,0.85938 -40.16407,4.34375 -8.51171,3.48438 -21.10546,11.98828 -11.23437,13.01172 3.92187,0.41016 8.58203,-0.89453 13.63281,-2.19922 7.65235,-1.97265 16.19922,-3.94531 24.4375,0.0274 6.91016,3.33984 13.89844,1.33203 20.30469,-0.67579 6.26172,-1.96093 11.96875,-3.92187 16.51172,-0.89453 5.63281,3.75782 15.88672,1.55078 24.85937,-0.66015 5.66407,-1.39063 10.8125,-2.78516 13.96875,-2.67969 8.14844,0.27734 19.37891,1.47656 30.61328,-5.92969 11.23438,-7.41015 15.66016,-2.02344 9.19141,-10.84375 -6.46875,-8.82031 -21.98828,-4.05469 -31.24609,-7.45703 -3.48047,-1.27734 -8.10157,-1.83984 -12.85938,-1.83984 -7.91015,0 -16.1914,1.54297 -20.23047,3.8789"
         id="path32" />
    </clipPath>
    <clipPath
       id="clip-32">
      <path
         clip-rule="nonzero"
         d="m 275,251 h 49 v 19 h -49 z m 0,0"
         id="path33" />
    </clipPath>
    <clipPath
       id="clip-33">
      <path
         clip-rule="nonzero"
         d="m 359.62109,240.90234 c -2.125,1.23047 -4.0039,0.8711 -6.53125,0.51172 -5.17187,-0.73437 -13.05468,-1.46875 -31.2539,11.40625 0,0 -31.65625,0.85938 -40.16407,4.34375 -8.51171,3.48438 -21.10546,11.98828 -11.23437,13.01172 3.92187,0.41016 8.58203,-0.89453 13.63281,-2.19922 7.65235,-1.97265 16.19922,-3.94531 24.4375,0.0274 6.91016,3.33984 13.89844,1.33203 20.30469,-0.67579 6.26172,-1.96093 11.96875,-3.92187 16.51172,-0.89453 5.63281,3.75782 15.88672,1.55078 24.85937,-0.66015 5.66407,-1.39063 10.8125,-2.78516 13.96875,-2.67969 8.14844,0.27734 19.37891,1.47656 30.61328,-5.92969 11.23438,-7.41015 15.66016,-2.02344 9.19141,-10.84375 -6.46875,-8.82031 -21.98828,-4.05469 -31.24609,-7.45703 -3.48047,-1.27734 -8.10157,-1.83984 -12.85938,-1.83984 -7.91015,0 -16.1914,1.54297 -20.23047,3.8789"
         id="path34" />
    </clipPath>
    <clipPath
       id="clip-34">
      <path
         clip-rule="nonzero"
         d="m 74,262 h 129 v 26 H 74 Z m 0,0"
         id="path35" />
    </clipPath>
    <clipPath
       id="clip-35">
      <path
         clip-rule="nonzero"
         d="m 139.91797,260.07031 c -8.51172,3.53516 -21.10547,0.12891 -38.125,6.59766 -17.019532,6.46875 -20.765626,11.36719 -28.593751,15.55469 -7.828125,4.1875 8.851562,8.27343 29.273441,7.59375 20.42578,-0.6836 29.27343,-3.06641 38.80468,-4.08594 4.01172,-0.42969 7.54297,0.58984 11.58203,1.60937 5.55469,1.39844 12.06641,2.79688 22.11719,0.4336 17.36328,-4.08594 15.66016,-12.59375 34.04297,-11.23438 18.37891,1.36328 17.69922,-6.125 8.84766,-9.53125 -8.84766,-3.40234 -24.16797,1.01953 -24.16797,1.01953 0,0 -6.46875,0.34375 -12.25391,-4.76172 -5.78515,-5.10937 -13.95703,-2.72265 -19.0625,-2.04296 -2.0664,0.27343 -4.74219,-0.4375 -7.76562,-1.15235 -2.5625,-0.60547 -5.37891,-1.21484 -8.27344,-1.21484 -2.12109,0 -4.28516,0.32812 -6.42578,1.21484"
         id="path36" />
    </clipPath>
    <clipPath
       id="clip-36">
      <path
         clip-rule="nonzero"
         d="m 77,276 h 22 v 3 H 77 Z m 0,0"
         id="path37" />
    </clipPath>
    <clipPath
       id="clip-37">
      <path
         clip-rule="nonzero"
         d="m 139.91797,260.07031 c -8.51172,3.53516 -21.10547,0.12891 -38.125,6.59766 -17.019532,6.46875 -20.765626,11.36719 -28.593751,15.55469 -7.828125,4.1875 8.851562,8.27343 29.273441,7.59375 20.42578,-0.6836 29.27343,-3.06641 38.80468,-4.08594 4.01172,-0.42969 7.54297,0.58984 11.58203,1.60937 5.55469,1.39844 12.06641,2.79688 22.11719,0.4336 17.36328,-4.08594 15.66016,-12.59375 34.04297,-11.23438 18.37891,1.36328 17.69922,-6.125 8.84766,-9.53125 -8.84766,-3.40234 -24.16797,1.01953 -24.16797,1.01953 0,0 -6.46875,0.34375 -12.25391,-4.76172 -5.78515,-5.10937 -13.95703,-2.72265 -19.0625,-2.04296 -2.0664,0.27343 -4.74219,-0.4375 -7.76562,-1.15235 -2.5625,-0.60547 -5.37891,-1.21484 -8.27344,-1.21484 -2.12109,0 -4.28516,0.32812 -6.42578,1.21484"
         id="path38" />
    </clipPath>
    <clipPath
       id="clip-38">
      <path
         clip-rule="nonzero"
         d="m 82,261 h 38 v 29 H 82 Z m 0,0"
         id="path39" />
    </clipPath>
    <clipPath
       id="clip-39">
      <path
         clip-rule="nonzero"
         d="m 139.91797,260.07031 c -8.51172,3.53516 -21.10547,0.12891 -38.125,6.59766 -17.019532,6.46875 -20.765626,11.36719 -28.593751,15.55469 -7.828125,4.1875 8.851562,8.27343 29.273441,7.59375 20.42578,-0.6836 29.27343,-3.06641 38.80468,-4.08594 4.01172,-0.42969 7.54297,0.58984 11.58203,1.60937 5.55469,1.39844 12.06641,2.79688 22.11719,0.4336 17.36328,-4.08594 15.66016,-12.59375 34.04297,-11.23438 18.37891,1.36328 17.69922,-6.125 8.84766,-9.53125 -8.84766,-3.40234 -24.16797,1.01953 -24.16797,1.01953 0,0 -6.46875,0.34375 -12.25391,-4.76172 -5.78515,-5.10937 -13.95703,-2.72265 -19.0625,-2.04296 -2.0664,0.27343 -4.74219,-0.4375 -7.76562,-1.15235 -2.5625,-0.60547 -5.37891,-1.21484 -8.27344,-1.21484 -2.12109,0 -4.28516,0.32812 -6.42578,1.21484"
         id="path40" />
    </clipPath>
    <clipPath
       id="clip-40">
      <path
         clip-rule="nonzero"
         d="m 114,258 h 26 v 32 h -26 z m 0,0"
         id="path41" />
    </clipPath>
    <clipPath
       id="clip-41">
      <path
         clip-rule="nonzero"
         d="m 139.91797,260.07031 c -8.51172,3.53516 -21.10547,0.12891 -38.125,6.59766 -17.019532,6.46875 -20.765626,11.36719 -28.593751,15.55469 -7.828125,4.1875 8.851562,8.27343 29.273441,7.59375 20.42578,-0.6836 29.27343,-3.06641 38.80468,-4.08594 4.01172,-0.42969 7.54297,0.58984 11.58203,1.60937 5.55469,1.39844 12.06641,2.79688 22.11719,0.4336 17.36328,-4.08594 15.66016,-12.59375 34.04297,-11.23438 18.37891,1.36328 17.69922,-6.125 8.84766,-9.53125 -8.84766,-3.40234 -24.16797,1.01953 -24.16797,1.01953 0,0 -6.46875,0.34375 -12.25391,-4.76172 -5.78515,-5.10937 -13.95703,-2.72265 -19.0625,-2.04296 -2.0664,0.27343 -4.74219,-0.4375 -7.76562,-1.15235 -2.5625,-0.60547 -5.37891,-1.21484 -8.27344,-1.21484 -2.12109,0 -4.28516,0.32812 -6.42578,1.21484"
         id="path42" />
    </clipPath>
    <clipPath
       id="clip-42">
      <path
         clip-rule="nonzero"
         d="m 138,258 h 28 v 32 h -28 z m 0,0"
         id="path43" />
    </clipPath>
    <clipPath
       id="clip-43">
      <path
         clip-rule="nonzero"
         d="m 139.91797,260.07031 c -8.51172,3.53516 -21.10547,0.12891 -38.125,6.59766 -17.019532,6.46875 -20.765626,11.36719 -28.593751,15.55469 -7.828125,4.1875 8.851562,8.27343 29.273441,7.59375 20.42578,-0.6836 29.27343,-3.06641 38.80468,-4.08594 4.01172,-0.42969 7.54297,0.58984 11.58203,1.60937 5.55469,1.39844 12.06641,2.79688 22.11719,0.4336 17.36328,-4.08594 15.66016,-12.59375 34.04297,-11.23438 18.37891,1.36328 17.69922,-6.125 8.84766,-9.53125 -8.84766,-3.40234 -24.16797,1.01953 -24.16797,1.01953 0,0 -6.46875,0.34375 -12.25391,-4.76172 -5.78515,-5.10937 -13.95703,-2.72265 -19.0625,-2.04296 -2.0664,0.27343 -4.74219,-0.4375 -7.76562,-1.15235 -2.5625,-0.60547 -5.37891,-1.21484 -8.27344,-1.21484 -2.12109,0 -4.28516,0.32812 -6.42578,1.21484"
         id="path44" />
    </clipPath>
    <clipPath
       id="clip-44">
      <path
         clip-rule="nonzero"
         d="m 166,258 h 20 v 32 h -20 z m 0,0"
         id="path45" />
    </clipPath>
    <clipPath
       id="clip-45">
      <path
         clip-rule="nonzero"
         d="m 139.91797,260.07031 c -8.51172,3.53516 -21.10547,0.12891 -38.125,6.59766 -17.019532,6.46875 -20.765626,11.36719 -28.593751,15.55469 -7.828125,4.1875 8.851562,8.27343 29.273441,7.59375 20.42578,-0.6836 29.27343,-3.06641 38.80468,-4.08594 4.01172,-0.42969 7.54297,0.58984 11.58203,1.60937 5.55469,1.39844 12.06641,2.79688 22.11719,0.4336 17.36328,-4.08594 15.66016,-12.59375 34.04297,-11.23438 18.37891,1.36328 17.69922,-6.125 8.84766,-9.53125 -8.84766,-3.40234 -24.16797,1.01953 -24.16797,1.01953 0,0 -6.46875,0.34375 -12.25391,-4.76172 -5.78515,-5.10937 -13.95703,-2.72265 -19.0625,-2.04296 -2.0664,0.27343 -4.74219,-0.4375 -7.76562,-1.15235 -2.5625,-0.60547 -5.37891,-1.21484 -8.27344,-1.21484 -2.12109,0 -4.28516,0.32812 -6.42578,1.21484"
         id="path46" />
    </clipPath>
    <clipPath
       id="clip-46">
      <path
         clip-rule="nonzero"
         d="m 183,269 h 41 v 7 h -41 z m 0,0"
         id="path47" />
    </clipPath>
    <clipPath
       id="clip-47">
      <path
         clip-rule="nonzero"
         d="m 139.91797,260.07031 c -8.51172,3.53516 -21.10547,0.12891 -38.125,6.59766 -17.019532,6.46875 -20.765626,11.36719 -28.593751,15.55469 -7.828125,4.1875 8.851562,8.27343 29.273441,7.59375 20.42578,-0.6836 29.27343,-3.06641 38.80468,-4.08594 4.01172,-0.42969 7.54297,0.58984 11.58203,1.60937 5.55469,1.39844 12.06641,2.79688 22.11719,0.4336 17.36328,-4.08594 15.66016,-12.59375 34.04297,-11.23438 18.37891,1.36328 17.69922,-6.125 8.84766,-9.53125 -8.84766,-3.40234 -24.16797,1.01953 -24.16797,1.01953 0,0 -6.46875,0.34375 -12.25391,-4.76172 -5.78515,-5.10937 -13.95703,-2.72265 -19.0625,-2.04296 -2.0664,0.27343 -4.74219,-0.4375 -7.76562,-1.15235 -2.5625,-0.60547 -5.37891,-1.21484 -8.27344,-1.21484 -2.12109,0 -4.28516,0.32812 -6.42578,1.21484"
         id="path48" />
    </clipPath>
    <clipPath
       id="clip-48">
      <path
         clip-rule="nonzero"
         d="m 27,176 h 77 v 26 H 27 Z m 0,0"
         id="path49" />
    </clipPath>
    <clipPath
       id="clip-49">
      <path
         clip-rule="nonzero"
         d="M 72.210938,129.67578 H 30.109375 c 0,0 -9.988281,37.71484 12.617188,66.26563 2.070312,3.03515 14.480468,5.36328 29.484375,5.36328 15.007812,0 27.417968,-2.32813 29.484372,-5.36328 22.60938,-28.55079 12.61719,-66.26563 12.61719,-66.26563 z m 0,0"
         id="path50" />
    </clipPath>
    <clipPath
       id="clip-50">
      <path
         clip-rule="nonzero"
         d="m 61,152 h 56 v 50 H 61 Z m 0,0"
         id="path51" />
    </clipPath>
    <clipPath
       id="clip-51">
      <path
         clip-rule="nonzero"
         d="M 72.210938,129.67578 H 30.109375 c 0,0 -9.988281,37.71484 12.617188,66.26563 2.070312,3.03515 14.480468,5.36328 29.484375,5.36328 15.007812,0 27.417968,-2.32813 29.484372,-5.36328 22.60938,-28.55079 12.61719,-66.26563 12.61719,-66.26563 z m 0,0"
         id="path52" />
    </clipPath>
    <clipPath
       id="clip-52">
      <path
         clip-rule="nonzero"
         d="m 27,129 h 58 v 37 H 27 Z m 0,0"
         id="path53" />
    </clipPath>
    <clipPath
       id="clip-53">
      <path
         clip-rule="nonzero"
         d="M 72.210938,129.67578 H 30.109375 c 0,0 -9.988281,37.71484 12.617188,66.26563 2.070312,3.03515 14.480468,5.36328 29.484375,5.36328 15.007812,0 27.417968,-2.32813 29.484372,-5.36328 22.60938,-28.55079 12.61719,-66.26563 12.61719,-66.26563 z m 0,0"
         id="path54" />
    </clipPath>
    <clipPath
       id="clip-54">
      <path
         clip-rule="nonzero"
         d="m 64,129 h 53 v 58 H 64 Z m 0,0"
         id="path55" />
    </clipPath>
    <clipPath
       id="clip-55">
      <path
         clip-rule="nonzero"
         d="M 72.210938,129.67578 H 30.109375 c 0,0 -9.988281,37.71484 12.617188,66.26563 2.070312,3.03515 14.480468,5.36328 29.484375,5.36328 15.007812,0 27.417968,-2.32813 29.484372,-5.36328 22.60938,-28.55079 12.61719,-66.26563 12.61719,-66.26563 z m 0,0"
         id="path56" />
    </clipPath>
    <clipPath
       id="clip-56">
      <path
         clip-rule="nonzero"
         d="m 30,129 h 85 v 10 H 30 Z m 0,0"
         id="path57" />
    </clipPath>
    <clipPath
       id="clip-57">
      <path
         clip-rule="nonzero"
         d="m 30.109375,129.67578 c 0,4.95313 18.851563,8.96484 42.101563,8.96484 23.253906,0 42.101562,-4.01171 42.101562,-8.96484 0,-4.95312 -18.847656,-8.96484 -42.101562,-8.96484 -23.25,0 -42.101563,4.01172 -42.101563,8.96484"
         id="path58" />
    </clipPath>
    <clipPath
       id="clip-58">
      <path
         clip-rule="nonzero"
         d="m 348,370 h 100 v 11 H 348 Z m 0,0"
         id="path59" />
    </clipPath>
    <clipPath
       id="clip-59">
      <path
         clip-rule="nonzero"
         d="m 348.47656,370.57422 c 0,5.39453 22.24219,9.76953 49.67578,9.76953 27.4375,0 49.67578,-4.375 49.67578,-9.76953 0,-5.39453 -22.23828,-9.76953 -49.67578,-9.76953 -27.43359,0 -49.67578,4.375 -49.67578,9.76953"
         id="path60" />
    </clipPath>
    <clipPath
       id="clip-60">
      <path
         clip-rule="nonzero"
         d="m 45,396 h 92 v 41 H 45 Z m 0,0"
         id="path61" />
    </clipPath>
    <clipPath
       id="clip-61">
      <path
         clip-rule="nonzero"
         d="m 45.511719,396.60937 v 53.92969 c 0,4.9375 20.34375,8.9375 45.445312,8.9375 25.097659,0 45.445309,-4 45.445309,-8.9375 v -53.92969 z m 0,0"
         id="path62" />
    </clipPath>
    <clipPath
       id="clip-62">
      <path
         clip-rule="nonzero"
         d="m 45,396 h 92 v 10 H 45 Z m 0,0"
         id="path63" />
    </clipPath>
    <clipPath
       id="clip-63">
      <path
         clip-rule="nonzero"
         d="m 45.511719,396.60937 c 0,4.9375 20.34375,8.9375 45.445312,8.9375 25.097659,0 45.445309,-4 45.445309,-8.9375 0,-4.93359 -20.34765,-8.9375 -45.445309,-8.9375 -25.101562,0 -45.445312,4.00391 -45.445312,8.9375"
         id="path64" />
    </clipPath>
  </defs>
  <path
     fill-rule="nonzero"
     fill="#ffc0b6"
     fill-opacity="1"
     d="m 24.749935,93.377685 c 0,3.65756 11.1504,6.62231 24.90339,6.62231 13.75524,0 24.90565,-2.96475 24.90565,-6.62231 0,-3.65757 -11.15041,-6.62232 -24.90565,-6.62232 -13.75299,0 -24.90339,2.96475 -24.90339,6.62232"
     id="path219"
     style="stroke-width:0.575854" />
  <path
     fill-rule="nonzero"
     fill="#de8f59"
     fill-opacity="1"
     d="m 20.131855,43.276205 9.71977,49.18146 c 0,2.16844 8.93472,3.923 19.95467,3.923 11.01768,0 19.9524,-1.75456 19.9524,-3.923 l 9.72202,-49.18146 z m 0,0"
     id="path220"
     style="stroke-width:0.575854" />
  <path
     fill-rule="nonzero"
     fill="#c46238"
     fill-opacity="1"
     d="m 20.131855,43.276205 1.1382,8.39712 c 0,3.0997 12.77451,5.61005 28.53624,5.61005 15.75948,0 28.53396,-2.51035 28.53396,-5.61005 l 1.14046,-8.39712 z m 0,0"
     id="path221"
     style="stroke-width:0.575854" />
  <path
     fill-rule="nonzero"
     fill="#fff0e9"
     fill-opacity="1"
     d="m 79.478475,43.276205 c 0,3.22343 -13.28511,5.83501 -29.67218,5.83501 -16.38933,0 -29.67444,-2.61158 -29.67444,-5.83501 0,-3.22343 13.28511,-5.83501 29.67444,-5.83501 16.38707,0 29.67218,2.61158 29.67218,5.83501"
     id="path222"
     style="stroke-width:0.575854" />
  <path
     fill-rule="nonzero"
     fill="#153011"
     fill-opacity="1"
     d="m 32.366485,32.058315 c 0,0 -0.96725,-7.09919 -11.70151,-7.72003 -10.73651,-0.61859 -15.85171,6.55933 -7.30389,11.62054 8.55006,5.05896 16.33983,2.43837 19.0054,-3.90051"
     id="path223"
     style="stroke-width:0.575854" />
  <path
     fill="none"
     stroke-width="0.55685"
     stroke-linecap="round"
     stroke-linejoin="round"
     stroke="#81ad6f"
     stroke-opacity="1"
     stroke-miterlimit="10"
     d="m 9.080425,29.946105 c 0,0 13.45607,-2.02448 23.28606,2.11221"
     id="path224" />
  <path
     fill="none"
     stroke-width="0.55685"
     stroke-linecap="round"
     stroke-linejoin="round"
     stroke="#81ad6f"
     stroke-opacity="1"
     stroke-miterlimit="10"
     d="m 10.160145,27.518975 c 0,0 10.51158,-2.7668 10.12243,2.02899 -0.39141,4.79577 -10.85574,1.88051 -10.85574,1.88051"
     id="path225" />
  <path
     fill="none"
     stroke-width="0.55685"
     stroke-linecap="round"
     stroke-linejoin="round"
     stroke="#81ad6f"
     stroke-opacity="1"
     stroke-miterlimit="10"
     d="m 17.263835,24.412525 c 0,0 6.43786,0.37339 5.85301,5.38062 -0.58711,5.00722 -5.13319,6.91473 -11.42708,5.01172"
     id="path226" />
  <path
     fill="none"
     stroke-width="0.55685"
     stroke-linecap="round"
     stroke-linejoin="round"
     stroke="#81ad6f"
     stroke-opacity="1"
     stroke-miterlimit="10"
     d="m 23.256305,24.641965 c 0,0 3.38989,1.5251 2.58685,5.54933 -0.80081,4.02197 -2.94676,7.52883 -10.04594,7.01371"
     id="path227" />
  <path
     fill="none"
     stroke-width="0.55685"
     stroke-linecap="round"
     stroke-linejoin="round"
     stroke="#81ad6f"
     stroke-opacity="1"
     stroke-miterlimit="10"
     d="m 26.952115,25.775675 c 0,0 2.69931,1.67357 2.02224,5.12194 -0.67933,3.45061 -1.84678,7.18692 -9.27214,7.50184"
     id="path228" />
  <path
     fill="none"
     stroke-width="0.55685"
     stroke-linecap="round"
     stroke-linejoin="round"
     stroke="#81ad6f"
     stroke-opacity="1"
     stroke-miterlimit="10"
     d="m 30.731145,28.666185 c 0,0 1.43064,3.77003 -0.88176,7.04745"
     id="path229" />
  <path
     fill-rule="nonzero"
     fill="#153011"
     fill-opacity="1"
     d="m 23.407025,53.904745 c 0,0 -9.19341,-0.67257 -13.11641,9.64104 -3.923,10.31137 3.58783,16.92694 12.44383,9.75127 8.85599,-7.17343 7.846,-15.35684 0.67258,-19.39231"
     id="path230"
     style="stroke-width:0.575854" />
  <path
     fill="none"
     stroke-width="0.55685"
     stroke-linecap="round"
     stroke-linejoin="round"
     stroke="#81ad6f"
     stroke-opacity="1"
     stroke-miterlimit="10"
     d="m 13.934685,76.099835 c 0,0 1.40139,-13.56403 9.47234,-22.19509"
     id="path231" />
  <path
     fill="none"
     stroke-width="0.55685"
     stroke-linecap="round"
     stroke-linejoin="round"
     stroke="#81ad6f"
     stroke-opacity="1"
     stroke-miterlimit="10"
     d="m 11.203885,74.498235 c 0,0 -0.3914,-10.86697 5.51334,-9.39585 5.90475,1.46888 -0.82104,10.99745 -0.82104,10.99745"
     id="path232" />
  <path
     fill="none"
     stroke-width="0.55685"
     stroke-linecap="round"
     stroke-linejoin="round"
     stroke="#81ad6f"
     stroke-opacity="1"
     stroke-miterlimit="10"
     d="m 9.388595,66.872695 c 0,0 2.3529,-6.18368 8.46684,-4.47636 6.11169,1.70956 7.17117,6.57282 2.94225,12.26837"
     id="path233" />
  <path
     fill="none"
     stroke-width="0.55685"
     stroke-linecap="round"
     stroke-linejoin="round"
     stroke="#81ad6f"
     stroke-opacity="1"
     stroke-miterlimit="10"
     d="m 11.431065,61.089415 c 0,0 2.90852,-2.95124 7.72229,-1.25743 4.81377,1.69607 8.58606,4.58209 5.85975,11.3776"
     id="path234" />
  <path
     fill="none"
     stroke-width="0.55685"
     stroke-linecap="round"
     stroke-linejoin="round"
     stroke="#81ad6f"
     stroke-opacity="1"
     stroke-miterlimit="10"
     d="m 13.934685,57.749025 c 0,0 2.89276,-2.24944 7.0227,-0.8053 4.12995,1.44638 8.4781,3.43262 6.69655,10.73425"
     id="path235" />
  <path
     fill="none"
     stroke-width="0.55685"
     stroke-linecap="round"
     stroke-linejoin="round"
     stroke="#81ad6f"
     stroke-opacity="1"
     stroke-miterlimit="10"
     d="m 18.671975,54.725785 c 0,0 5.15119,-0.53536 8.58606,2.46088"
     id="path236" />
  <path
     fill-rule="nonzero"
     fill="#305e27"
     fill-opacity="1"
     d="m 34.566425,43.046755 c 0,0 -6.80002,-6.2219 -16.26785,-0.55785 -9.46784,5.66631 -7.67055,15.50979 3.7273,15.36359 11.39559,-0.14621 15.67176,-7.19367 12.54055,-14.80574"
     id="path237"
     style="stroke-width:0.575854" />
  <path
     fill="none"
     stroke-width="0.55685"
     stroke-linecap="round"
     stroke-linejoin="round"
     stroke="#81ad6f"
     stroke-opacity="1"
     stroke-miterlimit="10"
     d="m 13.381325,54.602065 c 0,0 9.50158,-9.7805 21.1851,-11.55531"
     id="path238" />
  <path
     fill="none"
     stroke-width="0.55685"
     stroke-linecap="round"
     stroke-linejoin="round"
     stroke="#81ad6f"
     stroke-opacity="1"
     stroke-miterlimit="10"
     d="m 12.231875,51.653075 c 0,0 6.4221,-8.77277 10.14716,-3.96125 3.72504,4.81153 -7.4591,8.12494 -7.4591,8.12494"
     id="path239" />
  <path
     fill="none"
     stroke-width="0.55685"
     stroke-linecap="round"
     stroke-linejoin="round"
     stroke="#81ad6f"
     stroke-opacity="1"
     stroke-miterlimit="10"
     d="m 15.527275,44.542625 c 0,0 5.67981,-3.39663 9.4206,1.72982 3.73854,5.12869 1.55885,9.6028 -5.2884,11.45407"
     id="path240" />
  <path
     fill="none"
     stroke-width="0.55685"
     stroke-linecap="round"
     stroke-linejoin="round"
     stroke="#81ad6f"
     stroke-opacity="1"
     stroke-miterlimit="10"
     d="m 20.714455,41.267475 c 0,0 4.11195,-0.51738 6.84051,3.79702 2.72855,4.31215 3.90276,8.91449 -2.44738,12.56081"
     id="path241" />
  <path
     fill="none"
     stroke-width="0.55685"
     stroke-linecap="round"
     stroke-linejoin="round"
     stroke="#81ad6f"
     stroke-opacity="1"
     stroke-miterlimit="10"
     d="m 24.749935,40.196745 c 0,0 3.66431,0.027 6.01046,3.7183 2.3484,3.69356 4.53035,7.94723 -1.39014,12.5743"
     id="path242" />
  <path
     fill="none"
     stroke-width="0.55685"
     stroke-linecap="round"
     stroke-linejoin="round"
     stroke="#81ad6f"
     stroke-opacity="1"
     stroke-miterlimit="10"
     d="m 30.339755,40.756845 c 0,0 4.37738,2.7713 5.21642,7.24991"
     id="path243" />
  <path
     fill-rule="nonzero"
     fill="#305e27"
     fill-opacity="1"
     d="m 48.562355,28.065595 c 0,0 -6.79777,-6.22193 -16.26785,-0.55787 -9.46784,5.6663 -7.66829,15.50979 3.7273,15.36358 11.39559,-0.14621 15.674,-7.19366 12.54055,-14.80571"
     id="path244"
     style="stroke-width:0.575854" />
  <path
     fill="none"
     stroke-width="0.55685"
     stroke-linecap="round"
     stroke-linejoin="round"
     stroke="#81ad6f"
     stroke-opacity="1"
     stroke-miterlimit="10"
     d="m 27.379515,39.620885 c 0,0 9.50157,-9.7805 21.18284,-11.55529"
     id="path245" />
  <path
     fill="none"
     stroke-width="0.55685"
     stroke-linecap="round"
     stroke-linejoin="round"
     stroke="#81ad6f"
     stroke-opacity="1"
     stroke-miterlimit="10"
     d="m 26.227805,36.671885 c 0,0 6.42435,-8.77275 10.14715,-3.96123 3.72506,4.81151 -7.45684,8.12493 -7.45684,8.12493"
     id="path246" />
  <path
     fill="none"
     stroke-width="0.55685"
     stroke-linecap="round"
     stroke-linejoin="round"
     stroke="#81ad6f"
     stroke-opacity="1"
     stroke-miterlimit="10"
     d="m 29.525455,29.561455 c 0,0 5.67756,-3.39664 9.41836,1.72981 3.74079,5.12869 1.5611,9.6028 -5.28841,11.45407"
     id="path247" />
  <path
     fill="none"
     stroke-width="0.55685"
     stroke-linecap="round"
     stroke-linejoin="round"
     stroke="#81ad6f"
     stroke-opacity="1"
     stroke-miterlimit="10"
     d="m 34.710385,26.286295 c 0,0 4.11421,-0.51737 6.84276,3.79702 2.72855,4.31215 3.90275,8.91448 -2.44963,12.5608"
     id="path248" />
  <path
     fill="none"
     stroke-width="0.55685"
     stroke-linecap="round"
     stroke-linejoin="round"
     stroke="#81ad6f"
     stroke-opacity="1"
     stroke-miterlimit="10"
     d="m 38.748105,25.215565 c 0,0 3.66432,0.027 6.01047,3.7183 2.34615,3.69356 4.53034,7.94722 -1.3924,12.57429"
     id="path249" />
  <path
     fill="none"
     stroke-width="0.55685"
     stroke-linecap="round"
     stroke-linejoin="round"
     stroke="#81ad6f"
     stroke-opacity="1"
     stroke-miterlimit="10"
     d="m 44.337935,25.775675 c 0,0 4.37513,2.77129 5.21641,7.24989"
     id="path250" />
  <path
     fill-rule="nonzero"
     fill="#153011"
     fill-opacity="1"
     d="m 45.219715,21.807675 c 0,0 -5.62582,-7.29938 0.81654,-16.2566 6.4446,-8.957217 16.10139,-6.33438399 14.99467,5.00948 -1.10671,11.34385 -8.48933,15.01042 -15.81121,11.24712"
     id="path251"
     style="stroke-width:0.575854" />
  <path
     fill="none"
     stroke-width="0.55685"
     stroke-linecap="round"
     stroke-linejoin="round"
     stroke="#81ad6f"
     stroke-opacity="1"
     stroke-miterlimit="10"
     d="m 58.520565,1.675315 c 0,0 -10.54532,8.6423 -13.30085,20.13236"
     id="path252" />
  <path
     fill="none"
     stroke-width="0.55685"
     stroke-linecap="round"
     stroke-linejoin="round"
     stroke="#81ad6f"
     stroke-opacity="1"
     stroke-miterlimit="10"
     d="m 55.679545,0.27842501 c 0,0 -9.28339,5.66179999 -4.80254,9.77824999 4.48086,4.11645 8.72554,-6.74603 8.72554,-6.74603"
     id="path253" />
  <path
     fill="none"
     stroke-width="0.55685"
     stroke-linecap="round"
     stroke-linejoin="round"
     stroke="#81ad6f"
     stroke-opacity="1"
     stroke-miterlimit="10"
     d="m 48.314925,2.964235 c 0,0 -3.86227,5.37389 0.93125,9.53307 4.79353,4.15694 9.43635,2.36189 11.85898,-4.30541"
     id="path254" />
  <path
     fill="none"
     stroke-width="0.55685"
     stroke-linecap="round"
     stroke-linejoin="round"
     stroke="#81ad6f"
     stroke-opacity="1"
     stroke-miterlimit="10"
     d="m 44.614605,7.856735 c 0,0 -0.86152,4.05347 3.20769,7.13743 4.06696,3.08172 8.55457,4.63833 12.72275,-1.38115"
     id="path255" />
  <path
     fill="none"
     stroke-width="0.55685"
     stroke-linecap="round"
     stroke-linejoin="round"
     stroke="#81ad6f"
     stroke-opacity="1"
     stroke-miterlimit="10"
     d="m 43.208725,11.786485 c 0,0 -0.28343,3.65307 3.19868,6.30514 3.47986,2.64983 7.53558,5.18268 12.64627,-0.32841"
     id="path256" />
  <path
     fill="none"
     stroke-width="0.55685"
     stroke-linecap="round"
     stroke-linejoin="round"
     stroke="#81ad6f"
     stroke-opacity="1"
     stroke-miterlimit="10"
     d="m 43.294205,17.405545 c 0,0 2.39113,4.59333 6.78651,5.80803"
     id="path257" />
  <path
     fill-rule="nonzero"
     fill="#305e27"
     fill-opacity="1"
     d="m 49.347395,26.061345 c 0,0 -0.67257,-9.19116 9.64105,-13.11415 10.31363,-3.923 16.92694,3.58783 9.75351,12.44157 -7.17567,8.856 -15.35908,7.84825 -19.39456,0.67258"
     id="path258"
     style="stroke-width:0.575854" />
  <path
     fill="none"
     stroke-width="0.55685"
     stroke-linecap="round"
     stroke-linejoin="round"
     stroke="#81ad6f"
     stroke-opacity="1"
     stroke-miterlimit="10"
     d="m 71.542495,16.591265 c 0,0 -13.56404,1.39913 -22.1951,9.47008 l -0.78279,2.00425"
     id="path259" />
  <path
     fill="none"
     stroke-width="0.55685"
     stroke-linecap="round"
     stroke-linejoin="round"
     stroke="#81ad6f"
     stroke-opacity="1"
     stroke-miterlimit="10"
     d="m 69.940905,13.860455 c 0,0 -10.86698,-0.3914 -9.39586,5.51334 1.47113,5.90475 10.99745,-0.82103 10.99745,-0.82103"
     id="path260" />
  <path
     fill="none"
     stroke-width="0.55685"
     stroke-linecap="round"
     stroke-linejoin="round"
     stroke="#81ad6f"
     stroke-opacity="1"
     stroke-miterlimit="10"
     d="m 62.315355,12.042925 c 0,0 -6.18369,2.35514 -4.47412,8.46683 1.70732,6.11395 6.57058,7.17343 12.26612,2.94451"
     id="path261" />
  <path
     fill="none"
     stroke-width="0.55685"
     stroke-linecap="round"
     stroke-linejoin="round"
     stroke="#81ad6f"
     stroke-opacity="1"
     stroke-miterlimit="10"
     d="m 56.532075,14.085405 c 0,0 -2.95125,2.90851 -1.25744,7.72227 1.69607,4.81603 4.58209,8.58831 11.37761,5.85976"
     id="path262" />
  <path
     fill="none"
     stroke-width="0.55685"
     stroke-linecap="round"
     stroke-linejoin="round"
     stroke="#81ad6f"
     stroke-opacity="1"
     stroke-miterlimit="10"
     d="m 53.191675,16.591265 c 0,0 -2.24943,2.89276 -0.80305,7.02271 1.44413,4.12994 3.43038,8.47808 10.73202,6.69654"
     id="path263" />
  <path
     fill="none"
     stroke-width="0.55685"
     stroke-linecap="round"
     stroke-linejoin="round"
     stroke="#81ad6f"
     stroke-opacity="1"
     stroke-miterlimit="10"
     d="m 50.168445,21.326305 c 0,0 -0.53536,5.15118 2.46087,8.58606"
     id="path264" />
  <path
     fill-rule="nonzero"
     fill="#153011"
     fill-opacity="1"
     d="m 70.039885,18.285085 c 0,0 4.03321,-8.28689 14.92269,-6.50084 10.88722,1.78603 12.83522,11.60253 2.18419,15.65825 -10.65104,4.05346 -17.21935,-0.92676 -17.10688,-9.15741"
     id="path265"
     style="stroke-width:0.575854" />
  <path
     fill="none"
     stroke-width="0.55685"
     stroke-linecap="round"
     stroke-linejoin="round"
     stroke="#81ad6f"
     stroke-opacity="1"
     stroke-miterlimit="10"
     d="m 93.987275,21.240825 c 0,0 -12.43033,-5.60107 -23.94739,-2.95574"
     id="path266" />
  <path
     fill="none"
     stroke-width="0.55685"
     stroke-linecap="round"
     stroke-linejoin="round"
     stroke="#81ad6f"
     stroke-opacity="1"
     stroke-miterlimit="10"
     d="m 93.973775,18.073635 c 0,0 -9.20015,-5.79452 -10.89398,0.0495 -1.69157,5.844 9.92447,4.81376 9.92447,4.81376"
     id="path267" />
  <path
     fill="none"
     stroke-width="0.55685"
     stroke-linecap="round"
     stroke-linejoin="round"
     stroke="#81ad6f"
     stroke-opacity="1"
     stroke-miterlimit="10"
     d="m 88.293975,12.675015 c 0,0 -6.53009,-1.07073 -8.12268,5.0747 -1.5926,6.14319 2.08072,9.50158 9.12817,8.70528"
     id="path268" />
  <path
     fill="none"
     stroke-width="0.55685"
     stroke-linecap="round"
     stroke-linejoin="round"
     stroke="#81ad6f"
     stroke-opacity="1"
     stroke-miterlimit="10"
     d="m 82.265515,11.536795 c 0,0 -4.01298,1.03249 -4.96449,6.04646 -0.95151,5.01397 -0.35091,9.72652 6.89674,10.7815"
     id="path269" />
  <path
     fill="none"
     stroke-width="0.55685"
     stroke-linecap="round"
     stroke-linejoin="round"
     stroke="#81ad6f"
     stroke-opacity="1"
     stroke-miterlimit="10"
     d="m 78.119825,12.024925 c 0,0 -3.39889,1.37215 -4.22218,5.66856 -0.82554,4.2964 -1.29118,9.05618 5.91824,11.18189"
     id="path270" />
  <path
     fill="none"
     stroke-width="0.55685"
     stroke-linecap="round"
     stroke-linejoin="round"
     stroke="#81ad6f"
     stroke-opacity="1"
     stroke-miterlimit="10"
     d="m 73.126095,14.600525 c 0,0 -3.05022,4.18842 -2.1842,8.66253"
     id="path271" />
  <path
     fill-rule="nonzero"
     fill="#578e54"
     fill-opacity="1"
     d="m 57.512825,31.835625 c 0,0 4.03547,-8.28689 14.92268,-6.50084 10.88949,1.78603 12.83748,11.60254 2.18645,15.65825 -10.65103,4.05347 -17.2216,-0.92901 -17.10913,-9.15741"
     id="path272"
     style="stroke-width:0.575854" />
  <path
     fill="none"
     stroke-width="0.55685"
     stroke-linecap="round"
     stroke-linejoin="round"
     stroke="#81ad6f"
     stroke-opacity="1"
     stroke-miterlimit="10"
     d="m 81.462465,34.791365 c 0,0 -12.43258,-5.60107 -23.94964,-2.95574"
     id="path273" />
  <path
     fill="none"
     stroke-width="0.55685"
     stroke-linecap="round"
     stroke-linejoin="round"
     stroke="#81ad6f"
     stroke-opacity="1"
     stroke-miterlimit="10"
     d="m 81.448965,31.624175 c 0,0 -9.20015,-5.79452 -10.89396,0.0495 -1.69383,5.844 9.92222,4.81377 9.92222,4.81377"
     id="path274" />
  <path
     fill="none"
     stroke-width="0.55685"
     stroke-linecap="round"
     stroke-linejoin="round"
     stroke="#81ad6f"
     stroke-opacity="1"
     stroke-miterlimit="10"
     d="m 75.766915,26.225555 c 0,0 -6.53008,-1.07073 -8.12042,5.07246 -1.59261,6.14318 2.07846,9.50382 9.12816,8.70527"
     id="path275" />
  <path
     fill="none"
     stroke-width="0.55685"
     stroke-linecap="round"
     stroke-linejoin="round"
     stroke="#81ad6f"
     stroke-opacity="1"
     stroke-miterlimit="10"
     d="m 69.740705,25.087335 c 0,0 -4.01523,1.03025 -4.96673,6.04646 -0.94926,5.01398 -0.34866,9.72652 6.89674,10.77925"
     id="path276" />
  <path
     fill="none"
     stroke-width="0.55685"
     stroke-linecap="round"
     stroke-linejoin="round"
     stroke="#81ad6f"
     stroke-opacity="1"
     stroke-miterlimit="10"
     d="m 65.592755,25.575475 c 0,0 -3.39663,1.37215 -4.22216,5.66855 -0.8233,4.29641 -1.28893,9.05619 5.91823,11.17965"
     id="path277" />
  <path
     fill="none"
     stroke-width="0.55685"
     stroke-linecap="round"
     stroke-linejoin="round"
     stroke="#81ad6f"
     stroke-opacity="1"
     stroke-miterlimit="10"
     d="m 60.601285,28.151065 c 0,0 -3.05022,4.18619 -2.18419,8.66253"
     id="path278" />
  <path
     fill-rule="nonzero"
     fill="#153011"
     fill-opacity="1"
     d="m 77.143575,44.706845 c 0,0 3.55408,-7.30164 13.14564,-5.72704 9.5938,1.57459 11.307875,10.22139 1.9255,13.79348 -9.3846,3.57209 -15.17237,-0.81654 -15.07114,-8.06644"
     id="path279"
     style="stroke-width:0.575854" />
  <path
     fill="none"
     stroke-width="0.55685"
     stroke-linecap="round"
     stroke-linejoin="round"
     stroke="#81ad6f"
     stroke-opacity="1"
     stroke-miterlimit="10"
     d="m 98.240935,47.311685 c 0,0 -10.95246,-4.93525 -21.09736,-2.60484"
     id="path280" />
  <path
     fill="none"
     stroke-width="0.55685"
     stroke-linecap="round"
     stroke-linejoin="round"
     stroke="#81ad6f"
     stroke-opacity="1"
     stroke-miterlimit="10"
     d="m 98.229695,44.520135 c 0,0 -8.10469,-5.10394 -9.59831,0.0449 -1.49137,5.14669 8.74352,4.23792 8.74352,4.23792"
     id="path281" />
  <path
     fill="none"
     stroke-width="0.55685"
     stroke-linecap="round"
     stroke-linejoin="round"
     stroke="#81ad6f"
     stroke-opacity="1"
     stroke-miterlimit="10"
     d="m 93.224725,39.764855 c 0,0 -5.75179,-0.94476 -7.15544,4.46961 -1.40139,5.41212 1.83104,8.37011 8.04171,7.66829"
     id="path282" />
  <path
     fill="none"
     stroke-width="0.55685"
     stroke-linecap="round"
     stroke-linejoin="round"
     stroke="#81ad6f"
     stroke-opacity="1"
     stroke-miterlimit="10"
     d="m 87.913815,38.761615 c 0,0 -3.53609,0.90876 -4.37288,5.32663 -0.83904,4.41789 -0.31042,8.56807 6.07345,9.49708"
     id="path283" />
  <path
     fill="none"
     stroke-width="0.55685"
     stroke-linecap="round"
     stroke-linejoin="round"
     stroke="#81ad6f"
     stroke-opacity="1"
     stroke-miterlimit="10"
     d="m 84.260745,39.191245 c 0,0 -2.99173,1.21019 -3.71829,4.99373 -0.72657,3.78578 -1.13822,7.97872 5.21416,9.85024"
     id="path284" />
  <path
     fill="none"
     stroke-width="0.55685"
     stroke-linecap="round"
     stroke-linejoin="round"
     stroke="#81ad6f"
     stroke-opacity="1"
     stroke-miterlimit="10"
     d="m 79.863125,41.460925 c 0,0 -2.68807,3.68906 -1.92552,7.63005"
     id="path285" />
  <path
     fill-rule="nonzero"
     fill="#578e54"
     fill-opacity="1"
     d="m 22.282305,38.435445 c 0,0 -3.9185,-5.99697 -13.88121,-1.95251 -9.96271,4.04672 -11.50356,12.72501 -1.61058,13.62928 9.89298,0.90427 15.80446,-4.80927 15.49179,-11.67677"
     id="path286"
     style="stroke-width:0.575854" />
  <path
     fill="none"
     stroke-width="0.55685"
     stroke-linecap="round"
     stroke-linejoin="round"
     stroke="#81ad6f"
     stroke-opacity="1"
     stroke-miterlimit="10"
     d="m 0.34589501,46.519885 c 0,0 11.28312999,-7.60307 21.93865999,-8.08444"
     id="path287" />
  <path
     fill="none"
     stroke-width="0.55685"
     stroke-linecap="round"
     stroke-linejoin="round"
     stroke="#81ad6f"
     stroke-opacity="1"
     stroke-miterlimit="10"
     d="m 0.27842501,43.863305 c 0,0 8.30936999,-7.00921 10.01443999,-2.51036 1.70506,4.49886 -8.99995,6.35464 -8.99995,6.35464"
     id="path288" />
  <path
     fill="none"
     stroke-width="0.55685"
     stroke-linecap="round"
     stroke-linejoin="round"
     stroke="#81ad6f"
     stroke-opacity="1"
     stroke-miterlimit="10"
     d="m 5.362115,38.008045 c 0,0 5.97448,-2.42488 7.59407,2.35065 1.61958,4.77329 -1.67132,8.4466 -8.16992,9.42961"
     id="path289" />
  <path
     fill="none"
     stroke-width="0.55685"
     stroke-linecap="round"
     stroke-linejoin="round"
     stroke="#81ad6f"
     stroke-opacity="1"
     stroke-miterlimit="10"
     d="m 10.873215,35.643905 c 0,0 3.71605,-0.0742 4.71705,3.90276 1.00325,3.97922 0.5691,8.06644 -6.06445,10.64653"
     id="path290" />
  <path
     fill="none"
     stroke-width="0.55685"
     stroke-linecap="round"
     stroke-linejoin="round"
     stroke="#81ad6f"
     stroke-opacity="1"
     stroke-miterlimit="10"
     d="m 14.697245,35.083795 c 0,0 3.15819,0.35316 4.02422,3.75879 0.86828,3.40788 1.41714,7.2859 -5.15568,10.75451"
     id="path291" />
  <path
     fill="none"
     stroke-width="0.55685"
     stroke-linecap="round"
     stroke-linejoin="round"
     stroke="#81ad6f"
     stroke-opacity="1"
     stroke-miterlimit="10"
     d="m 19.351305,36.073535 c 0,0 2.91076,2.79154 2.22693,6.74379"
     id="path292" />
  <path
     fill-rule="nonzero"
     fill="#305e27"
     fill-opacity="1"
     d="m 44.882295,23.159595 c 0,0 2.30116,-6.78427 -7.02946,-12.12667 -9.33286,-5.34238 -17.11364,-1.19894 -11.71951,7.14193 5.39637,8.34312 13.53929,9.47009 18.74897,4.98474"
     id="path293"
     style="stroke-width:0.575854" />
  <path
     fill="none"
     stroke-width="0.55685"
     stroke-linecap="round"
     stroke-linejoin="round"
     stroke="#81ad6f"
     stroke-opacity="1"
     stroke-miterlimit="10"
     d="m 24.983865,10.886715 c 0,0 12.94545,4.18618 19.90067,12.27288 0,0 6.98673,3.22792 6.98673,28.10433"
     id="path294" />
  <path
     fill="none"
     stroke-width="0.55685"
     stroke-linecap="round"
     stroke-linejoin="round"
     stroke="#81ad6f"
     stroke-opacity="1"
     stroke-miterlimit="10"
     d="m 27.033095,9.192895 c 0,0 10.64203,2.21344 8.15417,6.33214 -2.48787,4.1187 -10.55431,-3.1582 -10.55431,-3.1582"
     id="path295" />
  <path
     fill="none"
     stroke-width="0.55685"
     stroke-linecap="round"
     stroke-linejoin="round"
     stroke="#81ad6f"
     stroke-opacity="1"
     stroke-miterlimit="10"
     d="m 34.775625,9.582045 c 0,0 5.59657,3.20544 2.83877,7.42536 -2.75554,4.22217 -7.67729,3.89825 -12.46182,-0.60959"
     id="path296" />
  <path
     fill="none"
     stroke-width="0.55685"
     stroke-linecap="round"
     stroke-linejoin="round"
     stroke="#81ad6f"
     stroke-opacity="1"
     stroke-miterlimit="10"
     d="m 40.037035,12.459065 c 0,0 2.3529,2.87702 -0.15971,6.12069 -2.51036,3.24367 -5.99473,5.42562 -12.11767,1.7973"
     id="path297" />
  <path
     fill="none"
     stroke-width="0.55685"
     stroke-linecap="round"
     stroke-linejoin="round"
     stroke="#81ad6f"
     stroke-opacity="1"
     stroke-miterlimit="10"
     d="m 42.839805,15.122395 c 0,0 1.66908,2.70155 -0.47462,5.48634 -2.14595,2.78479 -4.85876,5.61007 -11.64303,2.5801"
     id="path298" />
  <path
     fill="none"
     stroke-width="0.55685"
     stroke-linecap="round"
     stroke-linejoin="round"
     stroke="#81ad6f"
     stroke-opacity="1"
     stroke-miterlimit="10"
     d="m 44.934025,19.394055 c 0,0 -0.40265,4.01521 -3.93424,5.91598"
     id="path299" />
  <path
     fill-rule="nonzero"
     fill="#578e54"
     fill-opacity="1"
     d="m 66.881675,44.506635 c 0,0 7.97423,-4.62256 16.00917,2.94001 8.03496,7.56033 4.17044,16.79196 -6.92823,14.20738 -11.10092,-2.58234 -13.77099,-10.38335 -9.08094,-17.14739"
     id="path300"
     style="stroke-width:0.575854" />
  <path
     fill="none"
     stroke-width="0.55685"
     stroke-linecap="round"
     stroke-linejoin="round"
     stroke="#81ad6f"
     stroke-opacity="1"
     stroke-miterlimit="10"
     d="m 85.099785,60.331365 c 0,0 -7.18691,-11.58905 -18.21811,-15.82473"
     id="path301" />
  <path
     fill="none"
     stroke-width="0.55685"
     stroke-linecap="round"
     stroke-linejoin="round"
     stroke="#81ad6f"
     stroke-opacity="1"
     stroke-miterlimit="10"
     d="m 86.856585,57.695035 c 0,0 -4.39763,-9.94471 -9.06518,-6.04196 -4.66756,3.90275 5.54483,9.53307 5.54483,9.53307"
     id="path302" />
  <path
     fill="none"
     stroke-width="0.55685"
     stroke-linecap="round"
     stroke-linejoin="round"
     stroke="#81ad6f"
     stroke-opacity="1"
     stroke-miterlimit="10"
     d="m 85.158275,50.044725 c 0,0 -4.82053,-4.53483 -9.57131,-0.32616 -4.75079,4.20867 -3.58109,9.04495 2.71281,12.32011"
     id="path303" />
  <path
     fill="none"
     stroke-width="0.55685"
     stroke-linecap="round"
     stroke-linejoin="round"
     stroke="#81ad6f"
     stroke-opacity="1"
     stroke-miterlimit="10"
     d="m 80.792125,45.734835 c 0,0 -3.905,-1.38565 -7.49507,2.24267 -3.58784,3.63058 -5.7203,7.873 -0.29693,12.79474"
     id="path304" />
  <path
     fill="none"
     stroke-width="0.55685"
     stroke-linecap="round"
     stroke-linejoin="round"
     stroke="#81ad6f"
     stroke-opacity="1"
     stroke-miterlimit="10"
     d="m 77.078335,43.825075 c 0,0 -3.58334,-0.76032 -6.6673,2.34389 -3.08172,3.10422 -6.1252,6.79328 -1.33167,12.58105"
     id="path305" />
  <path
     fill="none"
     stroke-width="0.55685"
     stroke-linecap="round"
     stroke-linejoin="round"
     stroke="#81ad6f"
     stroke-opacity="1"
     stroke-miterlimit="10"
     d="m 71.499755,43.174985 c 0,0 -4.86776,1.76805 -6.6493,5.96548"
     id="path306" />
  <path
     fill-rule="nonzero"
     fill="#305e27"
     fill-opacity="1"
     d="m 73.875145,61.678775 c 0,0 7.97422,-4.62258 16.01142,2.93999 8.03496,7.56032 4.17044,16.79197 -6.93048,14.20963 -11.10092,-2.58234 -13.76874,-10.38335 -9.08094,-17.14962"
     id="path307"
     style="stroke-width:0.575854" />
  <path
     fill="none"
     stroke-width="0.55685"
     stroke-linecap="round"
     stroke-linejoin="round"
     stroke="#81ad6f"
     stroke-opacity="1"
     stroke-miterlimit="10"
     d="m 92.093255,77.503475 c 0,0 -7.18467,-11.58904 -18.21811,-15.8247"
     id="path308" />
  <path
     fill="none"
     stroke-width="0.55685"
     stroke-linecap="round"
     stroke-linejoin="round"
     stroke="#81ad6f"
     stroke-opacity="1"
     stroke-miterlimit="10"
     d="m 93.850055,74.867155 c 0,0 -4.39762,-9.94471 -9.06518,-6.04197 -4.66756,3.90501 5.54708,9.53533 5.54708,9.53533"
     id="path309" />
  <path
     fill="none"
     stroke-width="0.55685"
     stroke-linecap="round"
     stroke-linejoin="round"
     stroke="#81ad6f"
     stroke-opacity="1"
     stroke-miterlimit="10"
     d="m 92.151735,67.216845 c 0,0 -4.82052,-4.53484 -9.5713,-0.32615 -4.75079,4.20867 -3.57885,9.04493 2.71505,12.3201"
     id="path310" />
  <path
     fill="none"
     stroke-width="0.55685"
     stroke-linecap="round"
     stroke-linejoin="round"
     stroke="#81ad6f"
     stroke-opacity="1"
     stroke-miterlimit="10"
     d="m 87.787855,62.906955 c 0,0 -3.90726,-1.3834 -7.49509,2.24493 -3.59009,3.62832 -5.72254,7.87299 -0.29918,12.79474"
     id="path311" />
  <path
     fill="none"
     stroke-width="0.55685"
     stroke-linecap="round"
     stroke-linejoin="round"
     stroke="#81ad6f"
     stroke-opacity="1"
     stroke-miterlimit="10"
     d="m 84.074045,60.997185 c 0,0 -3.58558,-0.75805 -6.6673,2.34616 -3.08396,3.10421 -6.12744,6.79102 -1.33391,12.58104"
     id="path312" />
  <path
     fill="none"
     stroke-width="0.55685"
     stroke-linecap="round"
     stroke-linejoin="round"
     stroke="#81ad6f"
     stroke-opacity="1"
     stroke-miterlimit="10"
     d="m 78.493225,60.347105 c 0,0 -4.86776,1.77029 -6.64706,5.96548"
     id="path313" />
  <path
     fill-rule="nonzero"
     fill="#578e54"
     fill-opacity="1"
     d="m 62.470565,58.801745 c 0,0 9.21589,-0.0922 12.48206,10.44634 3.26617,10.54081 -4.64506,16.66825 -13.03092,8.95047 -8.38811,-7.71553 -6.86526,-15.82022 0.54886,-19.39681"
     id="path314"
     style="stroke-width:0.575854" />
  <path
     fill="none"
     stroke-width="0.55685"
     stroke-linecap="round"
     stroke-linejoin="round"
     stroke="#81ad6f"
     stroke-opacity="1"
     stroke-miterlimit="10"
     d="m 70.525755,81.550195 c 0,0 -0.54436,-13.62477 -8.05519,-22.74845 0,0 -4.85653,-7.32188 -10.66904,-11.68351"
     id="path315" />
  <path
     fill="none"
     stroke-width="0.55685"
     stroke-linecap="round"
     stroke-linejoin="round"
     stroke="#81ad6f"
     stroke-opacity="1"
     stroke-miterlimit="10"
     d="m 73.351035,80.121815 c 0,0 1.07523,-10.81974 -4.91051,-9.72428 -5.98572,1.09548 0.12823,11.02894 0.12823,11.02894"
     id="path316" />
  <path
     fill="none"
     stroke-width="0.55685"
     stroke-linecap="round"
     stroke-linejoin="round"
     stroke="#81ad6f"
     stroke-opacity="1"
     stroke-miterlimit="10"
     d="m 75.645445,72.626715 c 0,0 -1.9615,-6.32088 -8.16991,-5.00047 -6.20617,1.32042 -7.57157,6.1072 -3.70931,12.05918"
     id="path317" />
  <path
     fill="none"
     stroke-width="0.55685"
     stroke-linecap="round"
     stroke-linejoin="round"
     stroke="#81ad6f"
     stroke-opacity="1"
     stroke-miterlimit="10"
     d="m 73.969625,66.726475 c 0,0 -2.7173,-3.1312 -7.6278,-1.74106 -4.9105,1.39016 -8.85824,4.03098 -6.56383,10.98621"
     id="path318" />
  <path
     fill="none"
     stroke-width="0.55685"
     stroke-linecap="round"
     stroke-linejoin="round"
     stroke="#81ad6f"
     stroke-opacity="1"
     stroke-miterlimit="10"
     d="m 71.679705,63.235365 c 0,0 -2.74429,-2.42713 -6.95747,-1.24618 -4.21317,1.1832 -8.67829,2.89277 -7.35787,10.29113"
     id="path319" />
  <path
     fill="none"
     stroke-width="0.55685"
     stroke-linecap="round"
     stroke-linejoin="round"
     stroke="#81ad6f"
     stroke-opacity="1"
     stroke-miterlimit="10"
     d="m 67.144865,59.919715 c 0,0 -5.10845,-0.85928 -8.72553,1.91426"
     id="path320" />
  <path
     fill-rule="nonzero"
     fill="#578e54"
     fill-opacity="1"
     d="m 52.030965,32.951335 c 0,0 -8.22615,-4.15468 -15.81346,3.85552 -7.58732,8.01021 -3.19869,17.00341 7.73578,13.78674 10.9322,-3.21668 13.15014,-11.15717 8.07768,-17.64226"
     id="path321"
     style="stroke-width:0.575854" />
  <path
     fill="none"
     stroke-width="0.55685"
     stroke-linecap="round"
     stroke-linejoin="round"
     stroke="#81ad6f"
     stroke-opacity="1"
     stroke-miterlimit="10"
     d="m 34.753125,49.797295 c 0,0 6.50984,-11.98269 17.27784,-16.84596"
     id="path322" />
  <path
     fill="none"
     stroke-width="0.55685"
     stroke-linecap="round"
     stroke-linejoin="round"
     stroke="#81ad6f"
     stroke-opacity="1"
     stroke-miterlimit="10"
     d="m 32.847855,47.266685 c 0,0 3.81728,-10.1809 8.70304,-6.55258 4.88576,3.62833 -4.98923,9.83675 -4.98923,9.83675"
     id="path323" />
  <path
     fill="none"
     stroke-width="0.55685"
     stroke-linecap="round"
     stroke-linejoin="round"
     stroke="#81ad6f"
     stroke-opacity="1"
     stroke-miterlimit="10"
     d="m 34.103045,39.530905 c 0,0 4.55283,-4.80252 9.53757,-0.87503 4.98472,3.92751 4.09395,8.82451 -2.00199,12.45508"
     id="path324" />
  <path
     fill="none"
     stroke-width="0.55685"
     stroke-linecap="round"
     stroke-linejoin="round"
     stroke="#81ad6f"
     stroke-opacity="1"
     stroke-miterlimit="10"
     d="m 38.212745,34.978075 c 0,0 3.82178,-1.60834 7.61431,1.80854 3.79028,3.41688 6.16343,7.53107 1.03248,12.75649"
     id="path325" />
  <path
     fill="none"
     stroke-width="0.55685"
     stroke-linecap="round"
     stroke-linejoin="round"
     stroke="#81ad6f"
     stroke-opacity="1"
     stroke-miterlimit="10"
     d="m 41.811825,32.856865 c 0,0 3.53385,-0.96275 6.79102,1.95924 3.25717,2.92201 6.50759,6.42887 2.05373,12.48208"
     id="path326" />
  <path
     fill="none"
     stroke-width="0.55685"
     stroke-linecap="round"
     stroke-linejoin="round"
     stroke="#81ad6f"
     stroke-opacity="1"
     stroke-miterlimit="10"
     d="m 47.345415,31.887365 c 0,0 4.95999,1.48686 6.97997,5.57408"
     id="path327" />
  <path
     fill-rule="nonzero"
     fill="#305e27"
     fill-opacity="1"
     d="m 49.693825,47.997755 c 0,0 -9.11694,1.35416 -10.69153,12.27512 -1.5746,10.92097 7.20041,15.73248 14.27485,6.79776 7.07221,-8.93696 4.29866,-16.70199 -3.58332,-19.07288"
     id="path328"
     style="stroke-width:0.575854" />
  <path
     fill="none"
     stroke-width="0.55685"
     stroke-linecap="round"
     stroke-linejoin="round"
     stroke="#81ad6f"
     stroke-opacity="1"
     stroke-miterlimit="10"
     d="m 45.302945,71.726945 c 0,0 -1.5971,-13.54154 4.39088,-23.72919"
     id="path329" />
  <path
     fill="none"
     stroke-width="0.55685"
     stroke-linecap="round"
     stroke-linejoin="round"
     stroke="#81ad6f"
     stroke-opacity="1"
     stroke-miterlimit="10"
     d="m 42.286455,70.759705 c 0,0 -2.75555,-10.51832 3.3269,-10.37436 6.08245,0.14622 1.60159,10.91422 1.60159,10.91422"
     id="path330" />
  <path
     fill="none"
     stroke-width="0.55685"
     stroke-linecap="round"
     stroke-linejoin="round"
     stroke="#81ad6f"
     stroke-opacity="1"
     stroke-miterlimit="10"
     d="m 38.847085,63.716745 c 0,0 0.94701,-6.55033 7.28589,-6.21741 6.33663,0.33066 8.43535,4.84526 5.55159,11.32585"
     id="path331" />
  <path
     fill="none"
     stroke-width="0.55685"
     stroke-linecap="round"
     stroke-linejoin="round"
     stroke="#81ad6f"
     stroke-opacity="1"
     stroke-miterlimit="10"
     d="m 39.578145,57.627545 c 0,0 2.19319,-3.51811 7.26115,-2.91526 5.06796,0.60285 9.3801,2.5936 8.20366,9.82101"
     id="path332" />
  <path
     fill="none"
     stroke-width="0.55685"
     stroke-linecap="round"
     stroke-linejoin="round"
     stroke="#81ad6f"
     stroke-opacity="1"
     stroke-miterlimit="10"
     d="m 41.292205,53.819275 c 0,0 2.33041,-2.82754 6.6763,-2.31916 4.34589,0.50611 9.0247,1.49586 8.88074,9.00895"
     id="path333" />
  <path
     fill="none"
     stroke-width="0.55685"
     stroke-linecap="round"
     stroke-linejoin="round"
     stroke="#81ad6f"
     stroke-opacity="1"
     stroke-miterlimit="10"
     d="m 45.251195,49.833285 c 0,0 4.91051,-1.64883 8.91674,0.52637"
     id="path334" />
  <path
     fill-rule="nonzero"
     fill="#305e27"
     fill-opacity="1"
     d="m 54.840505,35.922835 c 0,0 7.97421,-4.62257 16.01141,2.93775 8.03496,7.56257 4.17044,16.79422 -6.93048,14.20962 -11.10091,-2.58234 -13.76874,-10.38335 -9.08093,-17.14737"
     id="path335"
     style="stroke-width:0.575854" />
  <path
     fill="none"
     stroke-width="0.55685"
     stroke-linecap="round"
     stroke-linejoin="round"
     stroke="#81ad6f"
     stroke-opacity="1"
     stroke-miterlimit="10"
     d="m 73.058615,51.745305 c 0,0 -7.18467,-11.58681 -18.21811,-15.82247"
     id="path336" />
  <path
     fill="none"
     stroke-width="0.55685"
     stroke-linecap="round"
     stroke-linejoin="round"
     stroke="#81ad6f"
     stroke-opacity="1"
     stroke-miterlimit="10"
     d="m 74.815415,49.111215 c 0,0 -4.39763,-9.94471 -9.06519,-6.04195 -4.66756,3.90275 5.54708,9.53307 5.54708,9.53307"
     id="path337" />
  <path
     fill="none"
     stroke-width="0.55685"
     stroke-linecap="round"
     stroke-linejoin="round"
     stroke="#81ad6f"
     stroke-opacity="1"
     stroke-miterlimit="10"
     d="m 73.117095,41.458665 c 0,0 -4.82052,-4.53259 -9.57131,-0.32391 -4.75079,4.20642 -3.57884,9.04494 2.71281,12.32011"
     id="path338" />
  <path
     fill="none"
     stroke-width="0.55685"
     stroke-linecap="round"
     stroke-linejoin="round"
     stroke="#81ad6f"
     stroke-opacity="1"
     stroke-miterlimit="10"
     d="m 68.753205,37.151015 c 0,0 -3.90725,-1.38564 -7.49509,2.24268 -3.59009,3.63057 -5.72254,7.87299 -0.29917,12.79475"
     id="path339" />
  <path
     fill="none"
     stroke-width="0.55685"
     stroke-linecap="round"
     stroke-linejoin="round"
     stroke="#81ad6f"
     stroke-opacity="1"
     stroke-miterlimit="10"
     d="m 65.039405,35.241255 c 0,0 -3.58559,-0.76031 -6.6673,2.34391 -3.08397,3.10419 -6.12744,6.79326 -1.33391,12.58104"
     id="path340" />
  <path
     fill="none"
     stroke-width="0.55685"
     stroke-linecap="round"
     stroke-linejoin="round"
     stroke="#81ad6f"
     stroke-opacity="1"
     stroke-miterlimit="10"
     d="m 59.458575,34.591165 c 0,0 -4.86776,1.77031 -6.64705,5.96548"
     id="path341" />
</svg>
