<?xml version="1.0" encoding="UTF-8" standalone="no"?>
<svg
   width="90.013618pt"
   height="100pt"
   viewBox="0 0 90.013616 100"
   version="1.1"
   id="svg341"
   sodipodi:docname="plant-3.svg"
   inkscape:version="1.3 (0e150ed6c4, 2023-07-21)"
   xmlns:inkscape="http://www.inkscape.org/namespaces/inkscape"
   xmlns:sodipodi="http://sodipodi.sourceforge.net/DTD/sodipodi-0.dtd"
   xmlns="http://www.w3.org/2000/svg"
   xmlns:svg="http://www.w3.org/2000/svg">
  <sodipodi:namedview
     id="namedview341"
     pagecolor="#ffffff"
     bordercolor="#000000"
     borderopacity="0.25"
     inkscape:showpageshadow="2"
     inkscape:pageopacity="0.0"
     inkscape:pagecheckerboard="0"
     inkscape:deskcolor="#d1d1d1"
     inkscape:document-units="pt"
     showgrid="false"
     inkscape:zoom="1.197"
     inkscape:cx="39.264829"
     inkscape:cy="63.492063"
     inkscape:window-width="1920"
     inkscape:window-height="1002"
     inkscape:window-x="-8"
     inkscape:window-y="-8"
     inkscape:window-maximized="1"
     inkscape:current-layer="svg341" />
  <defs
     id="defs64">
    <clipPath
       id="clip-0">
      <path
         clip-rule="nonzero"
         d="m 199,370 h 100 v 11 H 199 Z m 0,0"
         id="path1" />
    </clipPath>
    <clipPath
       id="clip-1">
      <path
         clip-rule="nonzero"
         d="m 199.125,370.57422 c 0,5.39453 22.24219,9.76953 49.67578,9.76953 27.4375,0 49.67578,-4.375 49.67578,-9.76953 0,-5.39453 -22.23828,-9.76953 -49.67578,-9.76953 -27.43359,0 -49.67578,4.375 -49.67578,9.76953"
         id="path2" />
    </clipPath>
    <clipPath
       id="clip-2">
      <path
         clip-rule="nonzero"
         d="m 182,209 h 111 v 49 H 182 Z m 0,0"
         id="path3" />
    </clipPath>
    <clipPath
       id="clip-3">
      <path
         clip-rule="nonzero"
         d="m 198.04297,52.789063 c 0,0 -10.23438,0 -19.54297,11.65625 -9.30859,11.660156 -8.67578,7.265625 -16.10547,26.558593 -7.43359,19.289064 -9.5,29.726564 -10.25,40.933594 -0.75,11.20703 -2.71875,15.16797 1.41797,34.89453 4.13672,19.72266 3.82812,19.27734 8.9375,29.55469 5.11328,10.27734 2.91406,22.7539 6.39844,31.85547 3.48437,9.10547 9.73437,7.47656 10.79297,17.09765 1.0625,9.625 7.78515,11.09766 16.95703,11.71485 9.16797,0.61328 13.78515,8.08593 22.86718,4.9414 9.08204,-3.14453 13.76954,-32.40625 13.76954,-32.40625 l -1.6875,-10.45312 c 0,0 3.05468,10.45312 10.91015,15.40625 7.85547,4.95312 14.25781,21.41797 26.48438,22.23437 12.22656,0.82032 8.76562,-13.72656 16.30859,-19.36718 7.54297,-5.64454 15.40625,-26.26954 9.25,-41.35157 -6.15234,-15.08203 0.082,-26.66406 -11.75,-38.51172 -11.82812,-11.85156 -0.31641,-25.41015 -16.37891,-40.47265 -9,-8.44922 -8.43359,-16.94141 -20.8164,-25.617189 -11.85156,-8.304687 -15.33985,-38.851562 -43.60156,-38.855468 -1.26954,0 -2.58594,0.0625 -3.96094,0.1875"
         id="path4" />
    </clipPath>
    <clipPath
       id="clip-4">
      <path
         clip-rule="nonzero"
         d="m 169,197 h 128 v 34 H 169 Z m 0,0"
         id="path5" />
    </clipPath>
    <clipPath
       id="clip-5">
      <path
         clip-rule="nonzero"
         d="m 198.04297,52.789063 c 0,0 -10.23438,0 -19.54297,11.65625 -9.30859,11.660156 -8.67578,7.265625 -16.10547,26.558593 -7.43359,19.289064 -9.5,29.726564 -10.25,40.933594 -0.75,11.20703 -2.71875,15.16797 1.41797,34.89453 4.13672,19.72266 3.82812,19.27734 8.9375,29.55469 5.11328,10.27734 2.91406,22.7539 6.39844,31.85547 3.48437,9.10547 9.73437,7.47656 10.79297,17.09765 1.0625,9.625 7.78515,11.09766 16.95703,11.71485 9.16797,0.61328 13.78515,8.08593 22.86718,4.9414 9.08204,-3.14453 13.76954,-32.40625 13.76954,-32.40625 l -1.6875,-10.45312 c 0,0 3.05468,10.45312 10.91015,15.40625 7.85547,4.95312 14.25781,21.41797 26.48438,22.23437 12.22656,0.82032 8.76562,-13.72656 16.30859,-19.36718 7.54297,-5.64454 15.40625,-26.26954 9.25,-41.35157 -6.15234,-15.08203 0.082,-26.66406 -11.75,-38.51172 -11.82812,-11.85156 -0.31641,-25.41015 -16.37891,-40.47265 -9,-8.44922 -8.43359,-16.94141 -20.8164,-25.617189 -11.85156,-8.304687 -15.33985,-38.851562 -43.60156,-38.855468 -1.26954,0 -2.58594,0.0625 -3.96094,0.1875"
         id="path6" />
    </clipPath>
    <clipPath
       id="clip-6">
      <path
         clip-rule="nonzero"
         d="m 160,185 h 137 v 24 H 160 Z m 0,0"
         id="path7" />
    </clipPath>
    <clipPath
       id="clip-7">
      <path
         clip-rule="nonzero"
         d="m 198.04297,52.789063 c 0,0 -10.23438,0 -19.54297,11.65625 -9.30859,11.660156 -8.67578,7.265625 -16.10547,26.558593 -7.43359,19.289064 -9.5,29.726564 -10.25,40.933594 -0.75,11.20703 -2.71875,15.16797 1.41797,34.89453 4.13672,19.72266 3.82812,19.27734 8.9375,29.55469 5.11328,10.27734 2.91406,22.7539 6.39844,31.85547 3.48437,9.10547 9.73437,7.47656 10.79297,17.09765 1.0625,9.625 7.78515,11.09766 16.95703,11.71485 9.16797,0.61328 13.78515,8.08593 22.86718,4.9414 9.08204,-3.14453 13.76954,-32.40625 13.76954,-32.40625 l -1.6875,-10.45312 c 0,0 3.05468,10.45312 10.91015,15.40625 7.85547,4.95312 14.25781,21.41797 26.48438,22.23437 12.22656,0.82032 8.76562,-13.72656 16.30859,-19.36718 7.54297,-5.64454 15.40625,-26.26954 9.25,-41.35157 -6.15234,-15.08203 0.082,-26.66406 -11.75,-38.51172 -11.82812,-11.85156 -0.31641,-25.41015 -16.37891,-40.47265 -9,-8.44922 -8.43359,-16.94141 -20.8164,-25.617189 -11.85156,-8.304687 -15.33985,-38.851562 -43.60156,-38.855468 -1.26954,0 -2.58594,0.0625 -3.96094,0.1875"
         id="path8" />
    </clipPath>
    <clipPath
       id="clip-8">
      <path
         clip-rule="nonzero"
         d="m 151,159 h 142 v 26 H 151 Z m 0,0"
         id="path9" />
    </clipPath>
    <clipPath
       id="clip-9">
      <path
         clip-rule="nonzero"
         d="m 198.04297,52.789063 c 0,0 -10.23438,0 -19.54297,11.65625 -9.30859,11.660156 -8.67578,7.265625 -16.10547,26.558593 -7.43359,19.289064 -9.5,29.726564 -10.25,40.933594 -0.75,11.20703 -2.71875,15.16797 1.41797,34.89453 4.13672,19.72266 3.82812,19.27734 8.9375,29.55469 5.11328,10.27734 2.91406,22.7539 6.39844,31.85547 3.48437,9.10547 9.73437,7.47656 10.79297,17.09765 1.0625,9.625 7.78515,11.09766 16.95703,11.71485 9.16797,0.61328 13.78515,8.08593 22.86718,4.9414 9.08204,-3.14453 13.76954,-32.40625 13.76954,-32.40625 l -1.6875,-10.45312 c 0,0 3.05468,10.45312 10.91015,15.40625 7.85547,4.95312 14.25781,21.41797 26.48438,22.23437 12.22656,0.82032 8.76562,-13.72656 16.30859,-19.36718 7.54297,-5.64454 15.40625,-26.26954 9.25,-41.35157 -6.15234,-15.08203 0.082,-26.66406 -11.75,-38.51172 -11.82812,-11.85156 -0.31641,-25.41015 -16.37891,-40.47265 -9,-8.44922 -8.43359,-16.94141 -20.8164,-25.617189 -11.85156,-8.304687 -15.33985,-38.851562 -43.60156,-38.855468 -1.26954,0 -2.58594,0.0625 -3.96094,0.1875"
         id="path10" />
    </clipPath>
    <clipPath
       id="clip-10">
      <path
         clip-rule="nonzero"
         d="m 151,134 h 130 v 29 H 151 Z m 0,0"
         id="path11" />
    </clipPath>
    <clipPath
       id="clip-11">
      <path
         clip-rule="nonzero"
         d="m 198.04297,52.789063 c 0,0 -10.23438,0 -19.54297,11.65625 -9.30859,11.660156 -8.67578,7.265625 -16.10547,26.558593 -7.43359,19.289064 -9.5,29.726564 -10.25,40.933594 -0.75,11.20703 -2.71875,15.16797 1.41797,34.89453 4.13672,19.72266 3.82812,19.27734 8.9375,29.55469 5.11328,10.27734 2.91406,22.7539 6.39844,31.85547 3.48437,9.10547 9.73437,7.47656 10.79297,17.09765 1.0625,9.625 7.78515,11.09766 16.95703,11.71485 9.16797,0.61328 13.78515,8.08593 22.86718,4.9414 9.08204,-3.14453 13.76954,-32.40625 13.76954,-32.40625 l -1.6875,-10.45312 c 0,0 3.05468,10.45312 10.91015,15.40625 7.85547,4.95312 14.25781,21.41797 26.48438,22.23437 12.22656,0.82032 8.76562,-13.72656 16.30859,-19.36718 7.54297,-5.64454 15.40625,-26.26954 9.25,-41.35157 -6.15234,-15.08203 0.082,-26.66406 -11.75,-38.51172 -11.82812,-11.85156 -0.31641,-25.41015 -16.37891,-40.47265 -9,-8.44922 -8.43359,-16.94141 -20.8164,-25.617189 -11.85156,-8.304687 -15.33985,-38.851562 -43.60156,-38.855468 -1.26954,0 -2.58594,0.0625 -3.96094,0.1875"
         id="path12" />
    </clipPath>
    <clipPath
       id="clip-12">
      <path
         clip-rule="nonzero"
         d="m 151,112 h 119 v 34 H 151 Z m 0,0"
         id="path13" />
    </clipPath>
    <clipPath
       id="clip-13">
      <path
         clip-rule="nonzero"
         d="m 198.04297,52.789063 c 0,0 -10.23438,0 -19.54297,11.65625 -9.30859,11.660156 -8.67578,7.265625 -16.10547,26.558593 -7.43359,19.289064 -9.5,29.726564 -10.25,40.933594 -0.75,11.20703 -2.71875,15.16797 1.41797,34.89453 4.13672,19.72266 3.82812,19.27734 8.9375,29.55469 5.11328,10.27734 2.91406,22.7539 6.39844,31.85547 3.48437,9.10547 9.73437,7.47656 10.79297,17.09765 1.0625,9.625 7.78515,11.09766 16.95703,11.71485 9.16797,0.61328 13.78515,8.08593 22.86718,4.9414 9.08204,-3.14453 13.76954,-32.40625 13.76954,-32.40625 l -1.6875,-10.45312 c 0,0 3.05468,10.45312 10.91015,15.40625 7.85547,4.95312 14.25781,21.41797 26.48438,22.23437 12.22656,0.82032 8.76562,-13.72656 16.30859,-19.36718 7.54297,-5.64454 15.40625,-26.26954 9.25,-41.35157 -6.15234,-15.08203 0.082,-26.66406 -11.75,-38.51172 -11.82812,-11.85156 -0.31641,-25.41015 -16.37891,-40.47265 -9,-8.44922 -8.43359,-16.94141 -20.8164,-25.617189 -11.85156,-8.304687 -15.33985,-38.851562 -43.60156,-38.855468 -1.26954,0 -2.58594,0.0625 -3.96094,0.1875"
         id="path14" />
    </clipPath>
    <clipPath
       id="clip-14">
      <path
         clip-rule="nonzero"
         d="m 151,91 h 106 v 32 H 151 Z m 0,0"
         id="path15" />
    </clipPath>
    <clipPath
       id="clip-15">
      <path
         clip-rule="nonzero"
         d="m 198.04297,52.789063 c 0,0 -10.23438,0 -19.54297,11.65625 -9.30859,11.660156 -8.67578,7.265625 -16.10547,26.558593 -7.43359,19.289064 -9.5,29.726564 -10.25,40.933594 -0.75,11.20703 -2.71875,15.16797 1.41797,34.89453 4.13672,19.72266 3.82812,19.27734 8.9375,29.55469 5.11328,10.27734 2.91406,22.7539 6.39844,31.85547 3.48437,9.10547 9.73437,7.47656 10.79297,17.09765 1.0625,9.625 7.78515,11.09766 16.95703,11.71485 9.16797,0.61328 13.78515,8.08593 22.86718,4.9414 9.08204,-3.14453 13.76954,-32.40625 13.76954,-32.40625 l -1.6875,-10.45312 c 0,0 3.05468,10.45312 10.91015,15.40625 7.85547,4.95312 14.25781,21.41797 26.48438,22.23437 12.22656,0.82032 8.76562,-13.72656 16.30859,-19.36718 7.54297,-5.64454 15.40625,-26.26954 9.25,-41.35157 -6.15234,-15.08203 0.082,-26.66406 -11.75,-38.51172 -11.82812,-11.85156 -0.31641,-25.41015 -16.37891,-40.47265 -9,-8.44922 -8.43359,-16.94141 -20.8164,-25.617189 -11.85156,-8.304687 -15.33985,-38.851562 -43.60156,-38.855468 -1.26954,0 -2.58594,0.0625 -3.96094,0.1875"
         id="path16" />
    </clipPath>
    <clipPath
       id="clip-16">
      <path
         clip-rule="nonzero"
         d="m 162,77 h 82 v 31 h -82 z m 0,0"
         id="path17" />
    </clipPath>
    <clipPath
       id="clip-17">
      <path
         clip-rule="nonzero"
         d="m 198.04297,52.789063 c 0,0 -10.23438,0 -19.54297,11.65625 -9.30859,11.660156 -8.67578,7.265625 -16.10547,26.558593 -7.43359,19.289064 -9.5,29.726564 -10.25,40.933594 -0.75,11.20703 -2.71875,15.16797 1.41797,34.89453 4.13672,19.72266 3.82812,19.27734 8.9375,29.55469 5.11328,10.27734 2.91406,22.7539 6.39844,31.85547 3.48437,9.10547 9.73437,7.47656 10.79297,17.09765 1.0625,9.625 7.78515,11.09766 16.95703,11.71485 9.16797,0.61328 13.78515,8.08593 22.86718,4.9414 9.08204,-3.14453 13.76954,-32.40625 13.76954,-32.40625 l -1.6875,-10.45312 c 0,0 3.05468,10.45312 10.91015,15.40625 7.85547,4.95312 14.25781,21.41797 26.48438,22.23437 12.22656,0.82032 8.76562,-13.72656 16.30859,-19.36718 7.54297,-5.64454 15.40625,-26.26954 9.25,-41.35157 -6.15234,-15.08203 0.082,-26.66406 -11.75,-38.51172 -11.82812,-11.85156 -0.31641,-25.41015 -16.37891,-40.47265 -9,-8.44922 -8.43359,-16.94141 -20.8164,-25.617189 -11.85156,-8.304687 -15.33985,-38.851562 -43.60156,-38.855468 -1.26954,0 -2.58594,0.0625 -3.96094,0.1875"
         id="path18" />
    </clipPath>
    <clipPath
       id="clip-18">
      <path
         clip-rule="nonzero"
         d="m 171,62 h 63 v 24 h -63 z m 0,0"
         id="path19" />
    </clipPath>
    <clipPath
       id="clip-19">
      <path
         clip-rule="nonzero"
         d="m 198.04297,52.789063 c 0,0 -10.23438,0 -19.54297,11.65625 -9.30859,11.660156 -8.67578,7.265625 -16.10547,26.558593 -7.43359,19.289064 -9.5,29.726564 -10.25,40.933594 -0.75,11.20703 -2.71875,15.16797 1.41797,34.89453 4.13672,19.72266 3.82812,19.27734 8.9375,29.55469 5.11328,10.27734 2.91406,22.7539 6.39844,31.85547 3.48437,9.10547 9.73437,7.47656 10.79297,17.09765 1.0625,9.625 7.78515,11.09766 16.95703,11.71485 9.16797,0.61328 13.78515,8.08593 22.86718,4.9414 9.08204,-3.14453 13.76954,-32.40625 13.76954,-32.40625 l -1.6875,-10.45312 c 0,0 3.05468,10.45312 10.91015,15.40625 7.85547,4.95312 14.25781,21.41797 26.48438,22.23437 12.22656,0.82032 8.76562,-13.72656 16.30859,-19.36718 7.54297,-5.64454 15.40625,-26.26954 9.25,-41.35157 -6.15234,-15.08203 0.082,-26.66406 -11.75,-38.51172 -11.82812,-11.85156 -0.31641,-25.41015 -16.37891,-40.47265 -9,-8.44922 -8.43359,-16.94141 -20.8164,-25.617189 -11.85156,-8.304687 -15.33985,-38.851562 -43.60156,-38.855468 -1.26954,0 -2.58594,0.0625 -3.96094,0.1875"
         id="path20" />
    </clipPath>
    <clipPath
       id="clip-20">
      <path
         clip-rule="nonzero"
         d="m 301,245 h 125 v 11 H 301 Z m 0,0"
         id="path21" />
    </clipPath>
    <clipPath
       id="clip-21">
      <path
         clip-rule="nonzero"
         d="m 359.62109,240.90234 c -2.125,1.23047 -4.0039,0.8711 -6.53125,0.51172 -5.17187,-0.73437 -13.05468,-1.46875 -31.2539,11.40625 0,0 -31.65625,0.85938 -40.16407,4.34375 -8.51171,3.48438 -21.10546,11.98828 -11.23437,13.01172 3.92187,0.41016 8.58203,-0.89453 13.63281,-2.19922 7.65235,-1.97265 16.19922,-3.94531 24.4375,0.0274 6.91016,3.33984 13.89844,1.33203 20.30469,-0.67579 6.26172,-1.96093 11.96875,-3.92187 16.51172,-0.89453 5.63281,3.75782 15.88672,1.55078 24.85937,-0.66015 5.66407,-1.39063 10.8125,-2.78516 13.96875,-2.67969 8.14844,0.27734 19.37891,1.47656 30.61328,-5.92969 11.23438,-7.41015 15.66016,-2.02344 9.19141,-10.84375 -6.46875,-8.82031 -21.98828,-4.05469 -31.24609,-7.45703 -3.48047,-1.27734 -8.10157,-1.83984 -12.85938,-1.83984 -7.91015,0 -16.1914,1.54297 -20.23047,3.8789"
         id="path22" />
    </clipPath>
    <clipPath
       id="clip-22">
      <path
         clip-rule="nonzero"
         d="m 400,239 h 27 v 12 h -27 z m 0,0"
         id="path23" />
    </clipPath>
    <clipPath
       id="clip-23">
      <path
         clip-rule="nonzero"
         d="m 359.62109,240.90234 c -2.125,1.23047 -4.0039,0.8711 -6.53125,0.51172 -5.17187,-0.73437 -13.05468,-1.46875 -31.2539,11.40625 0,0 -31.65625,0.85938 -40.16407,4.34375 -8.51171,3.48438 -21.10546,11.98828 -11.23437,13.01172 3.92187,0.41016 8.58203,-0.89453 13.63281,-2.19922 7.65235,-1.97265 16.19922,-3.94531 24.4375,0.0274 6.91016,3.33984 13.89844,1.33203 20.30469,-0.67579 6.26172,-1.96093 11.96875,-3.92187 16.51172,-0.89453 5.63281,3.75782 15.88672,1.55078 24.85937,-0.66015 5.66407,-1.39063 10.8125,-2.78516 13.96875,-2.67969 8.14844,0.27734 19.37891,1.47656 30.61328,-5.92969 11.23438,-7.41015 15.66016,-2.02344 9.19141,-10.84375 -6.46875,-8.82031 -21.98828,-4.05469 -31.24609,-7.45703 -3.48047,-1.27734 -8.10157,-1.83984 -12.85938,-1.83984 -7.91015,0 -16.1914,1.54297 -20.23047,3.8789"
         id="path24" />
    </clipPath>
    <clipPath
       id="clip-24">
      <path
         clip-rule="nonzero"
         d="m 378,237 h 36 v 29 h -36 z m 0,0"
         id="path25" />
    </clipPath>
    <clipPath
       id="clip-25">
      <path
         clip-rule="nonzero"
         d="m 359.62109,240.90234 c -2.125,1.23047 -4.0039,0.8711 -6.53125,0.51172 -5.17187,-0.73437 -13.05468,-1.46875 -31.2539,11.40625 0,0 -31.65625,0.85938 -40.16407,4.34375 -8.51171,3.48438 -21.10546,11.98828 -11.23437,13.01172 3.92187,0.41016 8.58203,-0.89453 13.63281,-2.19922 7.65235,-1.97265 16.19922,-3.94531 24.4375,0.0274 6.91016,3.33984 13.89844,1.33203 20.30469,-0.67579 6.26172,-1.96093 11.96875,-3.92187 16.51172,-0.89453 5.63281,3.75782 15.88672,1.55078 24.85937,-0.66015 5.66407,-1.39063 10.8125,-2.78516 13.96875,-2.67969 8.14844,0.27734 19.37891,1.47656 30.61328,-5.92969 11.23438,-7.41015 15.66016,-2.02344 9.19141,-10.84375 -6.46875,-8.82031 -21.98828,-4.05469 -31.24609,-7.45703 -3.48047,-1.27734 -8.10157,-1.83984 -12.85938,-1.83984 -7.91015,0 -16.1914,1.54297 -20.23047,3.8789"
         id="path26" />
    </clipPath>
    <clipPath
       id="clip-26">
      <path
         clip-rule="nonzero"
         d="m 359,237 h 22 v 33 h -22 z m 0,0"
         id="path27" />
    </clipPath>
    <clipPath
       id="clip-27">
      <path
         clip-rule="nonzero"
         d="m 359.62109,240.90234 c -2.125,1.23047 -4.0039,0.8711 -6.53125,0.51172 -5.17187,-0.73437 -13.05468,-1.46875 -31.2539,11.40625 0,0 -31.65625,0.85938 -40.16407,4.34375 -8.51171,3.48438 -21.10546,11.98828 -11.23437,13.01172 3.92187,0.41016 8.58203,-0.89453 13.63281,-2.19922 7.65235,-1.97265 16.19922,-3.94531 24.4375,0.0274 6.91016,3.33984 13.89844,1.33203 20.30469,-0.67579 6.26172,-1.96093 11.96875,-3.92187 16.51172,-0.89453 5.63281,3.75782 15.88672,1.55078 24.85937,-0.66015 5.66407,-1.39063 10.8125,-2.78516 13.96875,-2.67969 8.14844,0.27734 19.37891,1.47656 30.61328,-5.92969 11.23438,-7.41015 15.66016,-2.02344 9.19141,-10.84375 -6.46875,-8.82031 -21.98828,-4.05469 -31.24609,-7.45703 -3.48047,-1.27734 -8.10157,-1.83984 -12.85938,-1.83984 -7.91015,0 -16.1914,1.54297 -20.23047,3.8789"
         id="path28" />
    </clipPath>
    <clipPath
       id="clip-28">
      <path
         clip-rule="nonzero"
         d="m 337,237 h 21 v 34 h -21 z m 0,0"
         id="path29" />
    </clipPath>
    <clipPath
       id="clip-29">
      <path
         clip-rule="nonzero"
         d="m 359.62109,240.90234 c -2.125,1.23047 -4.0039,0.8711 -6.53125,0.51172 -5.17187,-0.73437 -13.05468,-1.46875 -31.2539,11.40625 0,0 -31.65625,0.85938 -40.16407,4.34375 -8.51171,3.48438 -21.10546,11.98828 -11.23437,13.01172 3.92187,0.41016 8.58203,-0.89453 13.63281,-2.19922 7.65235,-1.97265 16.19922,-3.94531 24.4375,0.0274 6.91016,3.33984 13.89844,1.33203 20.30469,-0.67579 6.26172,-1.96093 11.96875,-3.92187 16.51172,-0.89453 5.63281,3.75782 15.88672,1.55078 24.85937,-0.66015 5.66407,-1.39063 10.8125,-2.78516 13.96875,-2.67969 8.14844,0.27734 19.37891,1.47656 30.61328,-5.92969 11.23438,-7.41015 15.66016,-2.02344 9.19141,-10.84375 -6.46875,-8.82031 -21.98828,-4.05469 -31.24609,-7.45703 -3.48047,-1.27734 -8.10157,-1.83984 -12.85938,-1.83984 -7.91015,0 -16.1914,1.54297 -20.23047,3.8789"
         id="path30" />
    </clipPath>
    <clipPath
       id="clip-30">
      <path
         clip-rule="nonzero"
         d="m 317,242 h 17 v 29 h -17 z m 0,0"
         id="path31" />
    </clipPath>
    <clipPath
       id="clip-31">
      <path
         clip-rule="nonzero"
         d="m 359.62109,240.90234 c -2.125,1.23047 -4.0039,0.8711 -6.53125,0.51172 -5.17187,-0.73437 -13.05468,-1.46875 -31.2539,11.40625 0,0 -31.65625,0.85938 -40.16407,4.34375 -8.51171,3.48438 -21.10546,11.98828 -11.23437,13.01172 3.92187,0.41016 8.58203,-0.89453 13.63281,-2.19922 7.65235,-1.97265 16.19922,-3.94531 24.4375,0.0274 6.91016,3.33984 13.89844,1.33203 20.30469,-0.67579 6.26172,-1.96093 11.96875,-3.92187 16.51172,-0.89453 5.63281,3.75782 15.88672,1.55078 24.85937,-0.66015 5.66407,-1.39063 10.8125,-2.78516 13.96875,-2.67969 8.14844,0.27734 19.37891,1.47656 30.61328,-5.92969 11.23438,-7.41015 15.66016,-2.02344 9.19141,-10.84375 -6.46875,-8.82031 -21.98828,-4.05469 -31.24609,-7.45703 -3.48047,-1.27734 -8.10157,-1.83984 -12.85938,-1.83984 -7.91015,0 -16.1914,1.54297 -20.23047,3.8789"
         id="path32" />
    </clipPath>
    <clipPath
       id="clip-32">
      <path
         clip-rule="nonzero"
         d="m 275,251 h 49 v 19 h -49 z m 0,0"
         id="path33" />
    </clipPath>
    <clipPath
       id="clip-33">
      <path
         clip-rule="nonzero"
         d="m 359.62109,240.90234 c -2.125,1.23047 -4.0039,0.8711 -6.53125,0.51172 -5.17187,-0.73437 -13.05468,-1.46875 -31.2539,11.40625 0,0 -31.65625,0.85938 -40.16407,4.34375 -8.51171,3.48438 -21.10546,11.98828 -11.23437,13.01172 3.92187,0.41016 8.58203,-0.89453 13.63281,-2.19922 7.65235,-1.97265 16.19922,-3.94531 24.4375,0.0274 6.91016,3.33984 13.89844,1.33203 20.30469,-0.67579 6.26172,-1.96093 11.96875,-3.92187 16.51172,-0.89453 5.63281,3.75782 15.88672,1.55078 24.85937,-0.66015 5.66407,-1.39063 10.8125,-2.78516 13.96875,-2.67969 8.14844,0.27734 19.37891,1.47656 30.61328,-5.92969 11.23438,-7.41015 15.66016,-2.02344 9.19141,-10.84375 -6.46875,-8.82031 -21.98828,-4.05469 -31.24609,-7.45703 -3.48047,-1.27734 -8.10157,-1.83984 -12.85938,-1.83984 -7.91015,0 -16.1914,1.54297 -20.23047,3.8789"
         id="path34" />
    </clipPath>
    <clipPath
       id="clip-34">
      <path
         clip-rule="nonzero"
         d="m 74,262 h 129 v 26 H 74 Z m 0,0"
         id="path35" />
    </clipPath>
    <clipPath
       id="clip-35">
      <path
         clip-rule="nonzero"
         d="m 139.91797,260.07031 c -8.51172,3.53516 -21.10547,0.12891 -38.125,6.59766 -17.019532,6.46875 -20.765626,11.36719 -28.593751,15.55469 -7.828125,4.1875 8.851562,8.27343 29.273441,7.59375 20.42578,-0.6836 29.27343,-3.06641 38.80468,-4.08594 4.01172,-0.42969 7.54297,0.58984 11.58203,1.60937 5.55469,1.39844 12.06641,2.79688 22.11719,0.4336 17.36328,-4.08594 15.66016,-12.59375 34.04297,-11.23438 18.37891,1.36328 17.69922,-6.125 8.84766,-9.53125 -8.84766,-3.40234 -24.16797,1.01953 -24.16797,1.01953 0,0 -6.46875,0.34375 -12.25391,-4.76172 -5.78515,-5.10937 -13.95703,-2.72265 -19.0625,-2.04296 -2.0664,0.27343 -4.74219,-0.4375 -7.76562,-1.15235 -2.5625,-0.60547 -5.37891,-1.21484 -8.27344,-1.21484 -2.12109,0 -4.28516,0.32812 -6.42578,1.21484"
         id="path36" />
    </clipPath>
    <clipPath
       id="clip-36">
      <path
         clip-rule="nonzero"
         d="m 77,276 h 22 v 3 H 77 Z m 0,0"
         id="path37" />
    </clipPath>
    <clipPath
       id="clip-37">
      <path
         clip-rule="nonzero"
         d="m 139.91797,260.07031 c -8.51172,3.53516 -21.10547,0.12891 -38.125,6.59766 -17.019532,6.46875 -20.765626,11.36719 -28.593751,15.55469 -7.828125,4.1875 8.851562,8.27343 29.273441,7.59375 20.42578,-0.6836 29.27343,-3.06641 38.80468,-4.08594 4.01172,-0.42969 7.54297,0.58984 11.58203,1.60937 5.55469,1.39844 12.06641,2.79688 22.11719,0.4336 17.36328,-4.08594 15.66016,-12.59375 34.04297,-11.23438 18.37891,1.36328 17.69922,-6.125 8.84766,-9.53125 -8.84766,-3.40234 -24.16797,1.01953 -24.16797,1.01953 0,0 -6.46875,0.34375 -12.25391,-4.76172 -5.78515,-5.10937 -13.95703,-2.72265 -19.0625,-2.04296 -2.0664,0.27343 -4.74219,-0.4375 -7.76562,-1.15235 -2.5625,-0.60547 -5.37891,-1.21484 -8.27344,-1.21484 -2.12109,0 -4.28516,0.32812 -6.42578,1.21484"
         id="path38" />
    </clipPath>
    <clipPath
       id="clip-38">
      <path
         clip-rule="nonzero"
         d="m 82,261 h 38 v 29 H 82 Z m 0,0"
         id="path39" />
    </clipPath>
    <clipPath
       id="clip-39">
      <path
         clip-rule="nonzero"
         d="m 139.91797,260.07031 c -8.51172,3.53516 -21.10547,0.12891 -38.125,6.59766 -17.019532,6.46875 -20.765626,11.36719 -28.593751,15.55469 -7.828125,4.1875 8.851562,8.27343 29.273441,7.59375 20.42578,-0.6836 29.27343,-3.06641 38.80468,-4.08594 4.01172,-0.42969 7.54297,0.58984 11.58203,1.60937 5.55469,1.39844 12.06641,2.79688 22.11719,0.4336 17.36328,-4.08594 15.66016,-12.59375 34.04297,-11.23438 18.37891,1.36328 17.69922,-6.125 8.84766,-9.53125 -8.84766,-3.40234 -24.16797,1.01953 -24.16797,1.01953 0,0 -6.46875,0.34375 -12.25391,-4.76172 -5.78515,-5.10937 -13.95703,-2.72265 -19.0625,-2.04296 -2.0664,0.27343 -4.74219,-0.4375 -7.76562,-1.15235 -2.5625,-0.60547 -5.37891,-1.21484 -8.27344,-1.21484 -2.12109,0 -4.28516,0.32812 -6.42578,1.21484"
         id="path40" />
    </clipPath>
    <clipPath
       id="clip-40">
      <path
         clip-rule="nonzero"
         d="m 114,258 h 26 v 32 h -26 z m 0,0"
         id="path41" />
    </clipPath>
    <clipPath
       id="clip-41">
      <path
         clip-rule="nonzero"
         d="m 139.91797,260.07031 c -8.51172,3.53516 -21.10547,0.12891 -38.125,6.59766 -17.019532,6.46875 -20.765626,11.36719 -28.593751,15.55469 -7.828125,4.1875 8.851562,8.27343 29.273441,7.59375 20.42578,-0.6836 29.27343,-3.06641 38.80468,-4.08594 4.01172,-0.42969 7.54297,0.58984 11.58203,1.60937 5.55469,1.39844 12.06641,2.79688 22.11719,0.4336 17.36328,-4.08594 15.66016,-12.59375 34.04297,-11.23438 18.37891,1.36328 17.69922,-6.125 8.84766,-9.53125 -8.84766,-3.40234 -24.16797,1.01953 -24.16797,1.01953 0,0 -6.46875,0.34375 -12.25391,-4.76172 -5.78515,-5.10937 -13.95703,-2.72265 -19.0625,-2.04296 -2.0664,0.27343 -4.74219,-0.4375 -7.76562,-1.15235 -2.5625,-0.60547 -5.37891,-1.21484 -8.27344,-1.21484 -2.12109,0 -4.28516,0.32812 -6.42578,1.21484"
         id="path42" />
    </clipPath>
    <clipPath
       id="clip-42">
      <path
         clip-rule="nonzero"
         d="m 138,258 h 28 v 32 h -28 z m 0,0"
         id="path43" />
    </clipPath>
    <clipPath
       id="clip-43">
      <path
         clip-rule="nonzero"
         d="m 139.91797,260.07031 c -8.51172,3.53516 -21.10547,0.12891 -38.125,6.59766 -17.019532,6.46875 -20.765626,11.36719 -28.593751,15.55469 -7.828125,4.1875 8.851562,8.27343 29.273441,7.59375 20.42578,-0.6836 29.27343,-3.06641 38.80468,-4.08594 4.01172,-0.42969 7.54297,0.58984 11.58203,1.60937 5.55469,1.39844 12.06641,2.79688 22.11719,0.4336 17.36328,-4.08594 15.66016,-12.59375 34.04297,-11.23438 18.37891,1.36328 17.69922,-6.125 8.84766,-9.53125 -8.84766,-3.40234 -24.16797,1.01953 -24.16797,1.01953 0,0 -6.46875,0.34375 -12.25391,-4.76172 -5.78515,-5.10937 -13.95703,-2.72265 -19.0625,-2.04296 -2.0664,0.27343 -4.74219,-0.4375 -7.76562,-1.15235 -2.5625,-0.60547 -5.37891,-1.21484 -8.27344,-1.21484 -2.12109,0 -4.28516,0.32812 -6.42578,1.21484"
         id="path44" />
    </clipPath>
    <clipPath
       id="clip-44">
      <path
         clip-rule="nonzero"
         d="m 166,258 h 20 v 32 h -20 z m 0,0"
         id="path45" />
    </clipPath>
    <clipPath
       id="clip-45">
      <path
         clip-rule="nonzero"
         d="m 139.91797,260.07031 c -8.51172,3.53516 -21.10547,0.12891 -38.125,6.59766 -17.019532,6.46875 -20.765626,11.36719 -28.593751,15.55469 -7.828125,4.1875 8.851562,8.27343 29.273441,7.59375 20.42578,-0.6836 29.27343,-3.06641 38.80468,-4.08594 4.01172,-0.42969 7.54297,0.58984 11.58203,1.60937 5.55469,1.39844 12.06641,2.79688 22.11719,0.4336 17.36328,-4.08594 15.66016,-12.59375 34.04297,-11.23438 18.37891,1.36328 17.69922,-6.125 8.84766,-9.53125 -8.84766,-3.40234 -24.16797,1.01953 -24.16797,1.01953 0,0 -6.46875,0.34375 -12.25391,-4.76172 -5.78515,-5.10937 -13.95703,-2.72265 -19.0625,-2.04296 -2.0664,0.27343 -4.74219,-0.4375 -7.76562,-1.15235 -2.5625,-0.60547 -5.37891,-1.21484 -8.27344,-1.21484 -2.12109,0 -4.28516,0.32812 -6.42578,1.21484"
         id="path46" />
    </clipPath>
    <clipPath
       id="clip-46">
      <path
         clip-rule="nonzero"
         d="m 183,269 h 41 v 7 h -41 z m 0,0"
         id="path47" />
    </clipPath>
    <clipPath
       id="clip-47">
      <path
         clip-rule="nonzero"
         d="m 139.91797,260.07031 c -8.51172,3.53516 -21.10547,0.12891 -38.125,6.59766 -17.019532,6.46875 -20.765626,11.36719 -28.593751,15.55469 -7.828125,4.1875 8.851562,8.27343 29.273441,7.59375 20.42578,-0.6836 29.27343,-3.06641 38.80468,-4.08594 4.01172,-0.42969 7.54297,0.58984 11.58203,1.60937 5.55469,1.39844 12.06641,2.79688 22.11719,0.4336 17.36328,-4.08594 15.66016,-12.59375 34.04297,-11.23438 18.37891,1.36328 17.69922,-6.125 8.84766,-9.53125 -8.84766,-3.40234 -24.16797,1.01953 -24.16797,1.01953 0,0 -6.46875,0.34375 -12.25391,-4.76172 -5.78515,-5.10937 -13.95703,-2.72265 -19.0625,-2.04296 -2.0664,0.27343 -4.74219,-0.4375 -7.76562,-1.15235 -2.5625,-0.60547 -5.37891,-1.21484 -8.27344,-1.21484 -2.12109,0 -4.28516,0.32812 -6.42578,1.21484"
         id="path48" />
    </clipPath>
    <clipPath
       id="clip-48">
      <path
         clip-rule="nonzero"
         d="m 27,176 h 77 v 26 H 27 Z m 0,0"
         id="path49" />
    </clipPath>
    <clipPath
       id="clip-49">
      <path
         clip-rule="nonzero"
         d="M 72.210938,129.67578 H 30.109375 c 0,0 -9.988281,37.71484 12.617188,66.26563 2.070312,3.03515 14.480468,5.36328 29.484375,5.36328 15.007812,0 27.417968,-2.32813 29.484372,-5.36328 22.60938,-28.55079 12.61719,-66.26563 12.61719,-66.26563 z m 0,0"
         id="path50" />
    </clipPath>
    <clipPath
       id="clip-50">
      <path
         clip-rule="nonzero"
         d="m 61,152 h 56 v 50 H 61 Z m 0,0"
         id="path51" />
    </clipPath>
    <clipPath
       id="clip-51">
      <path
         clip-rule="nonzero"
         d="M 72.210938,129.67578 H 30.109375 c 0,0 -9.988281,37.71484 12.617188,66.26563 2.070312,3.03515 14.480468,5.36328 29.484375,5.36328 15.007812,0 27.417968,-2.32813 29.484372,-5.36328 22.60938,-28.55079 12.61719,-66.26563 12.61719,-66.26563 z m 0,0"
         id="path52" />
    </clipPath>
    <clipPath
       id="clip-52">
      <path
         clip-rule="nonzero"
         d="m 27,129 h 58 v 37 H 27 Z m 0,0"
         id="path53" />
    </clipPath>
    <clipPath
       id="clip-53">
      <path
         clip-rule="nonzero"
         d="M 72.210938,129.67578 H 30.109375 c 0,0 -9.988281,37.71484 12.617188,66.26563 2.070312,3.03515 14.480468,5.36328 29.484375,5.36328 15.007812,0 27.417968,-2.32813 29.484372,-5.36328 22.60938,-28.55079 12.61719,-66.26563 12.61719,-66.26563 z m 0,0"
         id="path54" />
    </clipPath>
    <clipPath
       id="clip-54">
      <path
         clip-rule="nonzero"
         d="m 64,129 h 53 v 58 H 64 Z m 0,0"
         id="path55" />
    </clipPath>
    <clipPath
       id="clip-55">
      <path
         clip-rule="nonzero"
         d="M 72.210938,129.67578 H 30.109375 c 0,0 -9.988281,37.71484 12.617188,66.26563 2.070312,3.03515 14.480468,5.36328 29.484375,5.36328 15.007812,0 27.417968,-2.32813 29.484372,-5.36328 22.60938,-28.55079 12.61719,-66.26563 12.61719,-66.26563 z m 0,0"
         id="path56" />
    </clipPath>
    <clipPath
       id="clip-56">
      <path
         clip-rule="nonzero"
         d="m 30,129 h 85 v 10 H 30 Z m 0,0"
         id="path57" />
    </clipPath>
    <clipPath
       id="clip-57">
      <path
         clip-rule="nonzero"
         d="m 30.109375,129.67578 c 0,4.95313 18.851563,8.96484 42.101563,8.96484 23.253906,0 42.101562,-4.01171 42.101562,-8.96484 0,-4.95312 -18.847656,-8.96484 -42.101562,-8.96484 -23.25,0 -42.101563,4.01172 -42.101563,8.96484"
         id="path58" />
    </clipPath>
    <clipPath
       id="clip-58">
      <path
         clip-rule="nonzero"
         d="m 348,370 h 100 v 11 H 348 Z m 0,0"
         id="path59" />
    </clipPath>
    <clipPath
       id="clip-59">
      <path
         clip-rule="nonzero"
         d="m 348.47656,370.57422 c 0,5.39453 22.24219,9.76953 49.67578,9.76953 27.4375,0 49.67578,-4.375 49.67578,-9.76953 0,-5.39453 -22.23828,-9.76953 -49.67578,-9.76953 -27.43359,0 -49.67578,4.375 -49.67578,9.76953"
         id="path60" />
    </clipPath>
    <clipPath
       id="clip-60">
      <path
         clip-rule="nonzero"
         d="m 45,396 h 92 v 41 H 45 Z m 0,0"
         id="path61" />
    </clipPath>
    <clipPath
       id="clip-61">
      <path
         clip-rule="nonzero"
         d="m 45.511719,396.60937 v 53.92969 c 0,4.9375 20.34375,8.9375 45.445312,8.9375 25.097659,0 45.445309,-4 45.445309,-8.9375 v -53.92969 z m 0,0"
         id="path62" />
    </clipPath>
    <clipPath
       id="clip-62">
      <path
         clip-rule="nonzero"
         d="m 45,396 h 92 v 10 H 45 Z m 0,0"
         id="path63" />
    </clipPath>
    <clipPath
       id="clip-63">
      <path
         clip-rule="nonzero"
         d="m 45.511719,396.60937 c 0,4.9375 20.34375,8.9375 45.445312,8.9375 25.097659,0 45.445309,-4 45.445309,-8.9375 0,-4.93359 -20.34765,-8.9375 -45.445309,-8.9375 -25.101562,0 -45.445312,4.00391 -45.445312,8.9375"
         id="path64" />
    </clipPath>
  </defs>
  <path
     fill-rule="nonzero"
     fill="#ffc0b6"
     fill-opacity="1"
     d="m 22.592009,94.417908 c 0,3.081715 11.105829,5.582092 24.804963,5.582092 13.701291,0 24.80712,-2.500377 24.80712,-5.582092 0,-3.08171 -11.105829,-5.582087 -24.80712,-5.582087 -13.699134,0 -24.804963,2.500377 -24.804963,5.582087"
     id="path142"
     style="stroke-width:0.553238" />
  <path
     fill-rule="nonzero"
     fill="#e4975a"
     fill-opacity="1"
     d="m 19.914424,47.34078 9.003092,45.549238 c 0,2.007653 8.274803,3.634953 18.481619,3.634953 10.204653,0 18.477293,-1.6273 18.477293,-3.634953 L 74.881683,47.34078 Z m 0,0"
     id="path143"
     style="stroke-width:0.553238" />
  <path
     fill-rule="nonzero"
     fill="#fff0e9"
     fill-opacity="1"
     d="m 19.914424,47.34078 1.054611,7.777757 c 0,2.869924 11.831954,5.195251 26.4301,5.195251 14.595983,0 26.427937,-2.325327 26.427937,-5.195251 l 1.054611,-7.777757 z m 0,0"
     id="path144"
     style="stroke-width:0.553238" />
  <path
     fill-rule="nonzero"
     fill="#ffebdf"
     fill-opacity="1"
     d="m 74.87952,47.34078 c 0,2.984461 -12.30307,5.404878 -27.482548,5.404878 -15.177315,0 -27.482548,-2.420417 -27.482548,-5.404878 0,-2.984462 12.305233,-5.404879 27.482548,-5.404879 15.179478,0 27.482548,2.420417 27.482548,5.404879"
     id="path145"
     style="stroke-width:0.553238" />
  <g
     clip-path="url(#clip-58)"
     id="g147"
     transform="matrix(0.55323838,0,0,0.55323838,-172.87618,-157.6751)">
    <g
       clip-path="url(#clip-59)"
       id="g146">
      <path
         fill-rule="nonzero"
         fill="#7e402a"
         fill-opacity="1"
         d="m 447.82812,380.69141 c 0,5.39453 -22.23828,9.76953 -49.67578,9.76953 -27.43359,0 -49.67578,-4.375 -49.67578,-9.76953 0,-5.39454 22.24219,-9.76954 49.67578,-9.76954 27.4375,0 49.67578,4.375 49.67578,9.76954"
         id="path146" />
    </g>
  </g>
  <path
     fill-rule="nonzero"
     fill="#001401"
     fill-opacity="1"
     d="m 89.281006,27.182156 c 0,0 -13.243143,0.09725 -29.701985,12.056707 -7.142396,3.282696 -6.079138,1.780737 -6.079138,1.780737 0,0 9.389927,-16.804616 35.781123,-13.837444"
     id="path147"
     style="stroke-width:0.553238" />
  <path
     fill-rule="nonzero"
     fill="#001401"
     fill-opacity="1"
     d="m 34.523375,6.7209832 c 0,0 -3.561472,19.3093138 8.892875,29.9634738 C 42.234135,22.535822 34.523375,6.7209832 34.523375,6.7209832"
     id="path148"
     style="stroke-width:0.553238" />
  <path
     fill-rule="nonzero"
     fill="#001401"
     fill-opacity="1"
     d="m 4.771681,22.326195 c 0,0 13.245307,1.789377 28.664663,14.358262 l 4.644182,-0.607262 c 0,0 -15.423683,-13.450608 -33.308845,-13.751"
     id="path149"
     style="stroke-width:0.553238" />
  <path
     fill-rule="nonzero"
     fill="#001401"
     fill-opacity="1"
     d="m 49.547255,48.531542 0.589973,4.214116 h -7.185615 c 0,0 2.543602,-4.214116 6.595642,-4.214116"
     id="path150"
     style="stroke-width:0.553238" />
  <path
     fill-rule="nonzero"
     fill="#001401"
     fill-opacity="1"
     d="m 55.181207,50.210704 0.142631,2.534954 h -5.577766 l -0.198817,-4.214116 z m 0,0"
     id="path151"
     style="stroke-width:0.553238" />
  <path
     fill-rule="nonzero"
     fill="#305e27"
     fill-opacity="1"
     d="m 0,45.387156 c 0,0 28.178422,-8.333153 45.313681,1.953624 C 35.709811,36.34733 16.07849,31.074277 0,45.387156"
     id="path152"
     style="stroke-width:0.553238" />
  <path
     fill-rule="nonzero"
     fill="#001401"
     fill-opacity="1"
     d="m 2.1891864,30.698246 c 0,0 27.1194856,1.125929 43.1244946,17.063946 2.085454,0 3.442614,-0.356578 3.442614,-0.356578 0,0 -13.09835,-21.88101 -46.5671086,-16.707368"
     id="path153"
     style="stroke-width:0.553238" />
  <path
     fill-rule="nonzero"
     fill="#2a5125"
     fill-opacity="1"
     d="m 5.7593,62.072914 c 0,0 11.797377,-14.241567 39.554381,-14.732134 C 38.67482,38.942798 10.701705,46.158664 5.7593,62.072914"
     id="path154"
     style="stroke-width:0.553238" />
  <path
     fill-rule="nonzero"
     fill="#305e27"
     fill-opacity="1"
     d="m 90.013616,46.342361 c 0,0 -22.693578,-13.126449 -36.963239,0.507851 C 64.96229,34.594687 73.634734,30.910031 90.013616,46.342361"
     id="path155"
     style="stroke-width:0.553238" />
  <path
     fill-rule="nonzero"
     fill="#305e27"
     fill-opacity="1"
     d="m 85.920515,22.635228 c 0,0 -25.256627,3.513932 -35.582301,25.876862 -0.790959,0.01947 -2.372878,0 -2.372878,0 0,0 3.26108,-26.37175 37.955179,-25.876862"
     id="path156"
     style="stroke-width:0.553238" />
  <path
     fill-rule="nonzero"
     fill="#2a5125"
     fill-opacity="1"
     d="m 7.5400361,17.001275 c 0,0 17.4896799,9.625485 35.8783719,26.803968 2.569532,3.044969 3.978564,3.535537 3.978564,3.535537 0,0 -12.47812,-25.695328 -39.8569359,-30.339505"
     id="path157"
     style="stroke-width:0.553238" />
  <path
     fill-rule="nonzero"
     fill="#305e27"
     fill-opacity="1"
     d="m 15.149227,6.1288467 c 0,0 18.593993,21.1808143 26.099452,31.7852713 4.265988,6.688563 6.148293,9.491496 6.148293,9.491496 h 1.359323 c 0,0 -12.004841,-31.480559 -33.607068,-41.2767673"
     id="path158"
     style="stroke-width:0.553238" />
  <path
     fill-rule="nonzero"
     fill="#2a5125"
     fill-opacity="1"
     d="m 45.000327,0 c 0,0 -10.215464,26.244246 2.107058,44.65239 C 44.012708,14.528991 45.000327,0 45.000327,0"
     id="path159"
     style="stroke-width:0.553238" />
  <path
     fill-rule="nonzero"
     fill="#305e27"
     fill-opacity="1"
     d="m 56.663715,7.9074195 c 0,0 -14.297755,7.8080085 -11.350034,29.1573885 1.793704,7.587582 2.651655,8.423923 2.651655,8.423923 0,0 -0.296066,-21.965295 8.698379,-37.5813115"
     id="path160"
     style="stroke-width:0.553238" />
  <path
     fill-rule="nonzero"
     fill="#2a5125"
     fill-opacity="1"
     d="m 66.944007,7.3131198 c 0,0 -26.886091,17.7835872 -18.978671,40.0276602 l 2.372878,1.17131 c 0,0 0.592137,-25.976268 16.605793,-41.1989702"
     id="path161"
     style="stroke-width:0.553238" />
  <path
     fill-rule="nonzero"
     fill="#305e27"
     fill-opacity="1"
     d="m 76.92607,9.5865865 c 0,0 -25.105354,13.9001145 -27.378815,38.9449555 4.261661,0 2.965009,-1.125928 2.965009,-1.125928 0,0 6.720983,-25.165863 24.413806,-37.8190275"
     id="path162"
     style="stroke-width:0.553238" />
  <path
     fill-rule="nonzero"
     fill="#305e27"
     fill-opacity="1"
     d="m 32.84205,74.527262 c 0,0 -2.102743,-20.413633 12.921137,-26.968213 C 39.241027,42.19091 23.452123,49.41975 32.84205,74.527262"
     id="path163"
     style="stroke-width:0.553238" />
  <path
     fill-rule="nonzero"
     fill="#2a5125"
     fill-opacity="1"
     d="m 41.144947,78.974778 c 0,0 -5.830613,-21.844268 8.402308,-30.443236 -1.949303,-6.243383 -19.570808,0.788796 -8.402308,30.443236"
     id="path164"
     style="stroke-width:0.553238" />
  <path
     fill-rule="nonzero"
     fill="#2a5125"
     fill-opacity="1"
     d="m 49.547255,48.531542 c 0,0 4.250856,0.814727 11.563976,11.42783 7.315283,10.613099 8.50172,18.520518 8.50172,18.520518 0,0 0.350094,-30.814946 -20.065696,-29.948348"
     id="path165"
     style="stroke-width:0.553238" />
  <path
     fill-rule="nonzero"
     fill="#305e27"
     fill-opacity="1"
     d="m 85.228967,64.543035 c 0,0 -12.551596,-20.595161 -34.890753,-16.030945 4.842993,-5.614506 20.063533,-8.482267 34.890753,16.030945"
     id="path166"
     style="stroke-width:0.553238" />
  <path
     fill-rule="nonzero"
     fill="#2a5125"
     fill-opacity="1"
     d="m 88.589458,32.816114 c 0,0 -20.953903,-0.298234 -35.186823,14.034098 -0.669939,1.264238 -3.064421,1.661878 -3.064421,1.661878 0,0 5.238476,-20.441726 38.251244,-15.695976"
     id="path167"
     style="stroke-width:0.553238" />
</svg>
