<?xml version="1.0" encoding="UTF-8" standalone="no"?>
<svg
   width="111.90319pt"
   height="100pt"
   viewBox="0 0 111.90319 100"
   version="1.1"
   id="svg341"
   sodipodi:docname="plant-4.svg"
   inkscape:version="1.3 (0e150ed6c4, 2023-07-21)"
   xmlns:inkscape="http://www.inkscape.org/namespaces/inkscape"
   xmlns:sodipodi="http://sodipodi.sourceforge.net/DTD/sodipodi-0.dtd"
   xmlns="http://www.w3.org/2000/svg"
   xmlns:svg="http://www.w3.org/2000/svg">
  <sodipodi:namedview
     id="namedview341"
     pagecolor="#ffffff"
     bordercolor="#000000"
     borderopacity="0.25"
     inkscape:showpageshadow="2"
     inkscape:pageopacity="0.0"
     inkscape:pagecheckerboard="0"
     inkscape:deskcolor="#d1d1d1"
     inkscape:document-units="pt"
     showgrid="false"
     inkscape:zoom="3.3856273"
     inkscape:cx="66.752771"
     inkscape:cy="59.073248"
     inkscape:window-width="1920"
     inkscape:window-height="1002"
     inkscape:window-x="-8"
     inkscape:window-y="-8"
     inkscape:window-maximized="1"
     inkscape:current-layer="svg341" />
  <defs
     id="defs64">
    <clipPath
       id="clip-0">
      <path
         clip-rule="nonzero"
         d="m 199,370 h 100 v 11 H 199 Z m 0,0"
         id="path1" />
    </clipPath>
    <clipPath
       id="clip-1">
      <path
         clip-rule="nonzero"
         d="m 199.125,370.57422 c 0,5.39453 22.24219,9.76953 49.67578,9.76953 27.4375,0 49.67578,-4.375 49.67578,-9.76953 0,-5.39453 -22.23828,-9.76953 -49.67578,-9.76953 -27.43359,0 -49.67578,4.375 -49.67578,9.76953"
         id="path2" />
    </clipPath>
    <clipPath
       id="clip-2">
      <path
         clip-rule="nonzero"
         d="m 182,209 h 111 v 49 H 182 Z m 0,0"
         id="path3" />
    </clipPath>
    <clipPath
       id="clip-3">
      <path
         clip-rule="nonzero"
         d="m 198.04297,52.789063 c 0,0 -10.23438,0 -19.54297,11.65625 -9.30859,11.660156 -8.67578,7.265625 -16.10547,26.558593 -7.43359,19.289064 -9.5,29.726564 -10.25,40.933594 -0.75,11.20703 -2.71875,15.16797 1.41797,34.89453 4.13672,19.72266 3.82812,19.27734 8.9375,29.55469 5.11328,10.27734 2.91406,22.7539 6.39844,31.85547 3.48437,9.10547 9.73437,7.47656 10.79297,17.09765 1.0625,9.625 7.78515,11.09766 16.95703,11.71485 9.16797,0.61328 13.78515,8.08593 22.86718,4.9414 9.08204,-3.14453 13.76954,-32.40625 13.76954,-32.40625 l -1.6875,-10.45312 c 0,0 3.05468,10.45312 10.91015,15.40625 7.85547,4.95312 14.25781,21.41797 26.48438,22.23437 12.22656,0.82032 8.76562,-13.72656 16.30859,-19.36718 7.54297,-5.64454 15.40625,-26.26954 9.25,-41.35157 -6.15234,-15.08203 0.082,-26.66406 -11.75,-38.51172 -11.82812,-11.85156 -0.31641,-25.41015 -16.37891,-40.47265 -9,-8.44922 -8.43359,-16.94141 -20.8164,-25.617189 -11.85156,-8.304687 -15.33985,-38.851562 -43.60156,-38.855468 -1.26954,0 -2.58594,0.0625 -3.96094,0.1875"
         id="path4" />
    </clipPath>
    <clipPath
       id="clip-4">
      <path
         clip-rule="nonzero"
         d="m 169,197 h 128 v 34 H 169 Z m 0,0"
         id="path5" />
    </clipPath>
    <clipPath
       id="clip-5">
      <path
         clip-rule="nonzero"
         d="m 198.04297,52.789063 c 0,0 -10.23438,0 -19.54297,11.65625 -9.30859,11.660156 -8.67578,7.265625 -16.10547,26.558593 -7.43359,19.289064 -9.5,29.726564 -10.25,40.933594 -0.75,11.20703 -2.71875,15.16797 1.41797,34.89453 4.13672,19.72266 3.82812,19.27734 8.9375,29.55469 5.11328,10.27734 2.91406,22.7539 6.39844,31.85547 3.48437,9.10547 9.73437,7.47656 10.79297,17.09765 1.0625,9.625 7.78515,11.09766 16.95703,11.71485 9.16797,0.61328 13.78515,8.08593 22.86718,4.9414 9.08204,-3.14453 13.76954,-32.40625 13.76954,-32.40625 l -1.6875,-10.45312 c 0,0 3.05468,10.45312 10.91015,15.40625 7.85547,4.95312 14.25781,21.41797 26.48438,22.23437 12.22656,0.82032 8.76562,-13.72656 16.30859,-19.36718 7.54297,-5.64454 15.40625,-26.26954 9.25,-41.35157 -6.15234,-15.08203 0.082,-26.66406 -11.75,-38.51172 -11.82812,-11.85156 -0.31641,-25.41015 -16.37891,-40.47265 -9,-8.44922 -8.43359,-16.94141 -20.8164,-25.617189 -11.85156,-8.304687 -15.33985,-38.851562 -43.60156,-38.855468 -1.26954,0 -2.58594,0.0625 -3.96094,0.1875"
         id="path6" />
    </clipPath>
    <clipPath
       id="clip-6">
      <path
         clip-rule="nonzero"
         d="m 160,185 h 137 v 24 H 160 Z m 0,0"
         id="path7" />
    </clipPath>
    <clipPath
       id="clip-7">
      <path
         clip-rule="nonzero"
         d="m 198.04297,52.789063 c 0,0 -10.23438,0 -19.54297,11.65625 -9.30859,11.660156 -8.67578,7.265625 -16.10547,26.558593 -7.43359,19.289064 -9.5,29.726564 -10.25,40.933594 -0.75,11.20703 -2.71875,15.16797 1.41797,34.89453 4.13672,19.72266 3.82812,19.27734 8.9375,29.55469 5.11328,10.27734 2.91406,22.7539 6.39844,31.85547 3.48437,9.10547 9.73437,7.47656 10.79297,17.09765 1.0625,9.625 7.78515,11.09766 16.95703,11.71485 9.16797,0.61328 13.78515,8.08593 22.86718,4.9414 9.08204,-3.14453 13.76954,-32.40625 13.76954,-32.40625 l -1.6875,-10.45312 c 0,0 3.05468,10.45312 10.91015,15.40625 7.85547,4.95312 14.25781,21.41797 26.48438,22.23437 12.22656,0.82032 8.76562,-13.72656 16.30859,-19.36718 7.54297,-5.64454 15.40625,-26.26954 9.25,-41.35157 -6.15234,-15.08203 0.082,-26.66406 -11.75,-38.51172 -11.82812,-11.85156 -0.31641,-25.41015 -16.37891,-40.47265 -9,-8.44922 -8.43359,-16.94141 -20.8164,-25.617189 -11.85156,-8.304687 -15.33985,-38.851562 -43.60156,-38.855468 -1.26954,0 -2.58594,0.0625 -3.96094,0.1875"
         id="path8" />
    </clipPath>
    <clipPath
       id="clip-8">
      <path
         clip-rule="nonzero"
         d="m 151,159 h 142 v 26 H 151 Z m 0,0"
         id="path9" />
    </clipPath>
    <clipPath
       id="clip-9">
      <path
         clip-rule="nonzero"
         d="m 198.04297,52.789063 c 0,0 -10.23438,0 -19.54297,11.65625 -9.30859,11.660156 -8.67578,7.265625 -16.10547,26.558593 -7.43359,19.289064 -9.5,29.726564 -10.25,40.933594 -0.75,11.20703 -2.71875,15.16797 1.41797,34.89453 4.13672,19.72266 3.82812,19.27734 8.9375,29.55469 5.11328,10.27734 2.91406,22.7539 6.39844,31.85547 3.48437,9.10547 9.73437,7.47656 10.79297,17.09765 1.0625,9.625 7.78515,11.09766 16.95703,11.71485 9.16797,0.61328 13.78515,8.08593 22.86718,4.9414 9.08204,-3.14453 13.76954,-32.40625 13.76954,-32.40625 l -1.6875,-10.45312 c 0,0 3.05468,10.45312 10.91015,15.40625 7.85547,4.95312 14.25781,21.41797 26.48438,22.23437 12.22656,0.82032 8.76562,-13.72656 16.30859,-19.36718 7.54297,-5.64454 15.40625,-26.26954 9.25,-41.35157 -6.15234,-15.08203 0.082,-26.66406 -11.75,-38.51172 -11.82812,-11.85156 -0.31641,-25.41015 -16.37891,-40.47265 -9,-8.44922 -8.43359,-16.94141 -20.8164,-25.617189 -11.85156,-8.304687 -15.33985,-38.851562 -43.60156,-38.855468 -1.26954,0 -2.58594,0.0625 -3.96094,0.1875"
         id="path10" />
    </clipPath>
    <clipPath
       id="clip-10">
      <path
         clip-rule="nonzero"
         d="m 151,134 h 130 v 29 H 151 Z m 0,0"
         id="path11" />
    </clipPath>
    <clipPath
       id="clip-11">
      <path
         clip-rule="nonzero"
         d="m 198.04297,52.789063 c 0,0 -10.23438,0 -19.54297,11.65625 -9.30859,11.660156 -8.67578,7.265625 -16.10547,26.558593 -7.43359,19.289064 -9.5,29.726564 -10.25,40.933594 -0.75,11.20703 -2.71875,15.16797 1.41797,34.89453 4.13672,19.72266 3.82812,19.27734 8.9375,29.55469 5.11328,10.27734 2.91406,22.7539 6.39844,31.85547 3.48437,9.10547 9.73437,7.47656 10.79297,17.09765 1.0625,9.625 7.78515,11.09766 16.95703,11.71485 9.16797,0.61328 13.78515,8.08593 22.86718,4.9414 9.08204,-3.14453 13.76954,-32.40625 13.76954,-32.40625 l -1.6875,-10.45312 c 0,0 3.05468,10.45312 10.91015,15.40625 7.85547,4.95312 14.25781,21.41797 26.48438,22.23437 12.22656,0.82032 8.76562,-13.72656 16.30859,-19.36718 7.54297,-5.64454 15.40625,-26.26954 9.25,-41.35157 -6.15234,-15.08203 0.082,-26.66406 -11.75,-38.51172 -11.82812,-11.85156 -0.31641,-25.41015 -16.37891,-40.47265 -9,-8.44922 -8.43359,-16.94141 -20.8164,-25.617189 -11.85156,-8.304687 -15.33985,-38.851562 -43.60156,-38.855468 -1.26954,0 -2.58594,0.0625 -3.96094,0.1875"
         id="path12" />
    </clipPath>
    <clipPath
       id="clip-12">
      <path
         clip-rule="nonzero"
         d="m 151,112 h 119 v 34 H 151 Z m 0,0"
         id="path13" />
    </clipPath>
    <clipPath
       id="clip-13">
      <path
         clip-rule="nonzero"
         d="m 198.04297,52.789063 c 0,0 -10.23438,0 -19.54297,11.65625 -9.30859,11.660156 -8.67578,7.265625 -16.10547,26.558593 -7.43359,19.289064 -9.5,29.726564 -10.25,40.933594 -0.75,11.20703 -2.71875,15.16797 1.41797,34.89453 4.13672,19.72266 3.82812,19.27734 8.9375,29.55469 5.11328,10.27734 2.91406,22.7539 6.39844,31.85547 3.48437,9.10547 9.73437,7.47656 10.79297,17.09765 1.0625,9.625 7.78515,11.09766 16.95703,11.71485 9.16797,0.61328 13.78515,8.08593 22.86718,4.9414 9.08204,-3.14453 13.76954,-32.40625 13.76954,-32.40625 l -1.6875,-10.45312 c 0,0 3.05468,10.45312 10.91015,15.40625 7.85547,4.95312 14.25781,21.41797 26.48438,22.23437 12.22656,0.82032 8.76562,-13.72656 16.30859,-19.36718 7.54297,-5.64454 15.40625,-26.26954 9.25,-41.35157 -6.15234,-15.08203 0.082,-26.66406 -11.75,-38.51172 -11.82812,-11.85156 -0.31641,-25.41015 -16.37891,-40.47265 -9,-8.44922 -8.43359,-16.94141 -20.8164,-25.617189 -11.85156,-8.304687 -15.33985,-38.851562 -43.60156,-38.855468 -1.26954,0 -2.58594,0.0625 -3.96094,0.1875"
         id="path14" />
    </clipPath>
    <clipPath
       id="clip-14">
      <path
         clip-rule="nonzero"
         d="m 151,91 h 106 v 32 H 151 Z m 0,0"
         id="path15" />
    </clipPath>
    <clipPath
       id="clip-15">
      <path
         clip-rule="nonzero"
         d="m 198.04297,52.789063 c 0,0 -10.23438,0 -19.54297,11.65625 -9.30859,11.660156 -8.67578,7.265625 -16.10547,26.558593 -7.43359,19.289064 -9.5,29.726564 -10.25,40.933594 -0.75,11.20703 -2.71875,15.16797 1.41797,34.89453 4.13672,19.72266 3.82812,19.27734 8.9375,29.55469 5.11328,10.27734 2.91406,22.7539 6.39844,31.85547 3.48437,9.10547 9.73437,7.47656 10.79297,17.09765 1.0625,9.625 7.78515,11.09766 16.95703,11.71485 9.16797,0.61328 13.78515,8.08593 22.86718,4.9414 9.08204,-3.14453 13.76954,-32.40625 13.76954,-32.40625 l -1.6875,-10.45312 c 0,0 3.05468,10.45312 10.91015,15.40625 7.85547,4.95312 14.25781,21.41797 26.48438,22.23437 12.22656,0.82032 8.76562,-13.72656 16.30859,-19.36718 7.54297,-5.64454 15.40625,-26.26954 9.25,-41.35157 -6.15234,-15.08203 0.082,-26.66406 -11.75,-38.51172 -11.82812,-11.85156 -0.31641,-25.41015 -16.37891,-40.47265 -9,-8.44922 -8.43359,-16.94141 -20.8164,-25.617189 -11.85156,-8.304687 -15.33985,-38.851562 -43.60156,-38.855468 -1.26954,0 -2.58594,0.0625 -3.96094,0.1875"
         id="path16" />
    </clipPath>
    <clipPath
       id="clip-16">
      <path
         clip-rule="nonzero"
         d="m 162,77 h 82 v 31 h -82 z m 0,0"
         id="path17" />
    </clipPath>
    <clipPath
       id="clip-17">
      <path
         clip-rule="nonzero"
         d="m 198.04297,52.789063 c 0,0 -10.23438,0 -19.54297,11.65625 -9.30859,11.660156 -8.67578,7.265625 -16.10547,26.558593 -7.43359,19.289064 -9.5,29.726564 -10.25,40.933594 -0.75,11.20703 -2.71875,15.16797 1.41797,34.89453 4.13672,19.72266 3.82812,19.27734 8.9375,29.55469 5.11328,10.27734 2.91406,22.7539 6.39844,31.85547 3.48437,9.10547 9.73437,7.47656 10.79297,17.09765 1.0625,9.625 7.78515,11.09766 16.95703,11.71485 9.16797,0.61328 13.78515,8.08593 22.86718,4.9414 9.08204,-3.14453 13.76954,-32.40625 13.76954,-32.40625 l -1.6875,-10.45312 c 0,0 3.05468,10.45312 10.91015,15.40625 7.85547,4.95312 14.25781,21.41797 26.48438,22.23437 12.22656,0.82032 8.76562,-13.72656 16.30859,-19.36718 7.54297,-5.64454 15.40625,-26.26954 9.25,-41.35157 -6.15234,-15.08203 0.082,-26.66406 -11.75,-38.51172 -11.82812,-11.85156 -0.31641,-25.41015 -16.37891,-40.47265 -9,-8.44922 -8.43359,-16.94141 -20.8164,-25.617189 -11.85156,-8.304687 -15.33985,-38.851562 -43.60156,-38.855468 -1.26954,0 -2.58594,0.0625 -3.96094,0.1875"
         id="path18" />
    </clipPath>
    <clipPath
       id="clip-18">
      <path
         clip-rule="nonzero"
         d="m 171,62 h 63 v 24 h -63 z m 0,0"
         id="path19" />
    </clipPath>
    <clipPath
       id="clip-19">
      <path
         clip-rule="nonzero"
         d="m 198.04297,52.789063 c 0,0 -10.23438,0 -19.54297,11.65625 -9.30859,11.660156 -8.67578,7.265625 -16.10547,26.558593 -7.43359,19.289064 -9.5,29.726564 -10.25,40.933594 -0.75,11.20703 -2.71875,15.16797 1.41797,34.89453 4.13672,19.72266 3.82812,19.27734 8.9375,29.55469 5.11328,10.27734 2.91406,22.7539 6.39844,31.85547 3.48437,9.10547 9.73437,7.47656 10.79297,17.09765 1.0625,9.625 7.78515,11.09766 16.95703,11.71485 9.16797,0.61328 13.78515,8.08593 22.86718,4.9414 9.08204,-3.14453 13.76954,-32.40625 13.76954,-32.40625 l -1.6875,-10.45312 c 0,0 3.05468,10.45312 10.91015,15.40625 7.85547,4.95312 14.25781,21.41797 26.48438,22.23437 12.22656,0.82032 8.76562,-13.72656 16.30859,-19.36718 7.54297,-5.64454 15.40625,-26.26954 9.25,-41.35157 -6.15234,-15.08203 0.082,-26.66406 -11.75,-38.51172 -11.82812,-11.85156 -0.31641,-25.41015 -16.37891,-40.47265 -9,-8.44922 -8.43359,-16.94141 -20.8164,-25.617189 -11.85156,-8.304687 -15.33985,-38.851562 -43.60156,-38.855468 -1.26954,0 -2.58594,0.0625 -3.96094,0.1875"
         id="path20" />
    </clipPath>
    <clipPath
       id="clip-20">
      <path
         clip-rule="nonzero"
         d="m 301,245 h 125 v 11 H 301 Z m 0,0"
         id="path21" />
    </clipPath>
    <clipPath
       id="clip-21">
      <path
         clip-rule="nonzero"
         d="m 359.62109,240.90234 c -2.125,1.23047 -4.0039,0.8711 -6.53125,0.51172 -5.17187,-0.73437 -13.05468,-1.46875 -31.2539,11.40625 0,0 -31.65625,0.85938 -40.16407,4.34375 -8.51171,3.48438 -21.10546,11.98828 -11.23437,13.01172 3.92187,0.41016 8.58203,-0.89453 13.63281,-2.19922 7.65235,-1.97265 16.19922,-3.94531 24.4375,0.0274 6.91016,3.33984 13.89844,1.33203 20.30469,-0.67579 6.26172,-1.96093 11.96875,-3.92187 16.51172,-0.89453 5.63281,3.75782 15.88672,1.55078 24.85937,-0.66015 5.66407,-1.39063 10.8125,-2.78516 13.96875,-2.67969 8.14844,0.27734 19.37891,1.47656 30.61328,-5.92969 11.23438,-7.41015 15.66016,-2.02344 9.19141,-10.84375 -6.46875,-8.82031 -21.98828,-4.05469 -31.24609,-7.45703 -3.48047,-1.27734 -8.10157,-1.83984 -12.85938,-1.83984 -7.91015,0 -16.1914,1.54297 -20.23047,3.8789"
         id="path22" />
    </clipPath>
    <clipPath
       id="clip-22">
      <path
         clip-rule="nonzero"
         d="m 400,239 h 27 v 12 h -27 z m 0,0"
         id="path23" />
    </clipPath>
    <clipPath
       id="clip-23">
      <path
         clip-rule="nonzero"
         d="m 359.62109,240.90234 c -2.125,1.23047 -4.0039,0.8711 -6.53125,0.51172 -5.17187,-0.73437 -13.05468,-1.46875 -31.2539,11.40625 0,0 -31.65625,0.85938 -40.16407,4.34375 -8.51171,3.48438 -21.10546,11.98828 -11.23437,13.01172 3.92187,0.41016 8.58203,-0.89453 13.63281,-2.19922 7.65235,-1.97265 16.19922,-3.94531 24.4375,0.0274 6.91016,3.33984 13.89844,1.33203 20.30469,-0.67579 6.26172,-1.96093 11.96875,-3.92187 16.51172,-0.89453 5.63281,3.75782 15.88672,1.55078 24.85937,-0.66015 5.66407,-1.39063 10.8125,-2.78516 13.96875,-2.67969 8.14844,0.27734 19.37891,1.47656 30.61328,-5.92969 11.23438,-7.41015 15.66016,-2.02344 9.19141,-10.84375 -6.46875,-8.82031 -21.98828,-4.05469 -31.24609,-7.45703 -3.48047,-1.27734 -8.10157,-1.83984 -12.85938,-1.83984 -7.91015,0 -16.1914,1.54297 -20.23047,3.8789"
         id="path24" />
    </clipPath>
    <clipPath
       id="clip-24">
      <path
         clip-rule="nonzero"
         d="m 378,237 h 36 v 29 h -36 z m 0,0"
         id="path25" />
    </clipPath>
    <clipPath
       id="clip-25">
      <path
         clip-rule="nonzero"
         d="m 359.62109,240.90234 c -2.125,1.23047 -4.0039,0.8711 -6.53125,0.51172 -5.17187,-0.73437 -13.05468,-1.46875 -31.2539,11.40625 0,0 -31.65625,0.85938 -40.16407,4.34375 -8.51171,3.48438 -21.10546,11.98828 -11.23437,13.01172 3.92187,0.41016 8.58203,-0.89453 13.63281,-2.19922 7.65235,-1.97265 16.19922,-3.94531 24.4375,0.0274 6.91016,3.33984 13.89844,1.33203 20.30469,-0.67579 6.26172,-1.96093 11.96875,-3.92187 16.51172,-0.89453 5.63281,3.75782 15.88672,1.55078 24.85937,-0.66015 5.66407,-1.39063 10.8125,-2.78516 13.96875,-2.67969 8.14844,0.27734 19.37891,1.47656 30.61328,-5.92969 11.23438,-7.41015 15.66016,-2.02344 9.19141,-10.84375 -6.46875,-8.82031 -21.98828,-4.05469 -31.24609,-7.45703 -3.48047,-1.27734 -8.10157,-1.83984 -12.85938,-1.83984 -7.91015,0 -16.1914,1.54297 -20.23047,3.8789"
         id="path26" />
    </clipPath>
    <clipPath
       id="clip-26">
      <path
         clip-rule="nonzero"
         d="m 359,237 h 22 v 33 h -22 z m 0,0"
         id="path27" />
    </clipPath>
    <clipPath
       id="clip-27">
      <path
         clip-rule="nonzero"
         d="m 359.62109,240.90234 c -2.125,1.23047 -4.0039,0.8711 -6.53125,0.51172 -5.17187,-0.73437 -13.05468,-1.46875 -31.2539,11.40625 0,0 -31.65625,0.85938 -40.16407,4.34375 -8.51171,3.48438 -21.10546,11.98828 -11.23437,13.01172 3.92187,0.41016 8.58203,-0.89453 13.63281,-2.19922 7.65235,-1.97265 16.19922,-3.94531 24.4375,0.0274 6.91016,3.33984 13.89844,1.33203 20.30469,-0.67579 6.26172,-1.96093 11.96875,-3.92187 16.51172,-0.89453 5.63281,3.75782 15.88672,1.55078 24.85937,-0.66015 5.66407,-1.39063 10.8125,-2.78516 13.96875,-2.67969 8.14844,0.27734 19.37891,1.47656 30.61328,-5.92969 11.23438,-7.41015 15.66016,-2.02344 9.19141,-10.84375 -6.46875,-8.82031 -21.98828,-4.05469 -31.24609,-7.45703 -3.48047,-1.27734 -8.10157,-1.83984 -12.85938,-1.83984 -7.91015,0 -16.1914,1.54297 -20.23047,3.8789"
         id="path28" />
    </clipPath>
    <clipPath
       id="clip-28">
      <path
         clip-rule="nonzero"
         d="m 337,237 h 21 v 34 h -21 z m 0,0"
         id="path29" />
    </clipPath>
    <clipPath
       id="clip-29">
      <path
         clip-rule="nonzero"
         d="m 359.62109,240.90234 c -2.125,1.23047 -4.0039,0.8711 -6.53125,0.51172 -5.17187,-0.73437 -13.05468,-1.46875 -31.2539,11.40625 0,0 -31.65625,0.85938 -40.16407,4.34375 -8.51171,3.48438 -21.10546,11.98828 -11.23437,13.01172 3.92187,0.41016 8.58203,-0.89453 13.63281,-2.19922 7.65235,-1.97265 16.19922,-3.94531 24.4375,0.0274 6.91016,3.33984 13.89844,1.33203 20.30469,-0.67579 6.26172,-1.96093 11.96875,-3.92187 16.51172,-0.89453 5.63281,3.75782 15.88672,1.55078 24.85937,-0.66015 5.66407,-1.39063 10.8125,-2.78516 13.96875,-2.67969 8.14844,0.27734 19.37891,1.47656 30.61328,-5.92969 11.23438,-7.41015 15.66016,-2.02344 9.19141,-10.84375 -6.46875,-8.82031 -21.98828,-4.05469 -31.24609,-7.45703 -3.48047,-1.27734 -8.10157,-1.83984 -12.85938,-1.83984 -7.91015,0 -16.1914,1.54297 -20.23047,3.8789"
         id="path30" />
    </clipPath>
    <clipPath
       id="clip-30">
      <path
         clip-rule="nonzero"
         d="m 317,242 h 17 v 29 h -17 z m 0,0"
         id="path31" />
    </clipPath>
    <clipPath
       id="clip-31">
      <path
         clip-rule="nonzero"
         d="m 359.62109,240.90234 c -2.125,1.23047 -4.0039,0.8711 -6.53125,0.51172 -5.17187,-0.73437 -13.05468,-1.46875 -31.2539,11.40625 0,0 -31.65625,0.85938 -40.16407,4.34375 -8.51171,3.48438 -21.10546,11.98828 -11.23437,13.01172 3.92187,0.41016 8.58203,-0.89453 13.63281,-2.19922 7.65235,-1.97265 16.19922,-3.94531 24.4375,0.0274 6.91016,3.33984 13.89844,1.33203 20.30469,-0.67579 6.26172,-1.96093 11.96875,-3.92187 16.51172,-0.89453 5.63281,3.75782 15.88672,1.55078 24.85937,-0.66015 5.66407,-1.39063 10.8125,-2.78516 13.96875,-2.67969 8.14844,0.27734 19.37891,1.47656 30.61328,-5.92969 11.23438,-7.41015 15.66016,-2.02344 9.19141,-10.84375 -6.46875,-8.82031 -21.98828,-4.05469 -31.24609,-7.45703 -3.48047,-1.27734 -8.10157,-1.83984 -12.85938,-1.83984 -7.91015,0 -16.1914,1.54297 -20.23047,3.8789"
         id="path32" />
    </clipPath>
    <clipPath
       id="clip-32">
      <path
         clip-rule="nonzero"
         d="m 275,251 h 49 v 19 h -49 z m 0,0"
         id="path33" />
    </clipPath>
    <clipPath
       id="clip-33">
      <path
         clip-rule="nonzero"
         d="m 359.62109,240.90234 c -2.125,1.23047 -4.0039,0.8711 -6.53125,0.51172 -5.17187,-0.73437 -13.05468,-1.46875 -31.2539,11.40625 0,0 -31.65625,0.85938 -40.16407,4.34375 -8.51171,3.48438 -21.10546,11.98828 -11.23437,13.01172 3.92187,0.41016 8.58203,-0.89453 13.63281,-2.19922 7.65235,-1.97265 16.19922,-3.94531 24.4375,0.0274 6.91016,3.33984 13.89844,1.33203 20.30469,-0.67579 6.26172,-1.96093 11.96875,-3.92187 16.51172,-0.89453 5.63281,3.75782 15.88672,1.55078 24.85937,-0.66015 5.66407,-1.39063 10.8125,-2.78516 13.96875,-2.67969 8.14844,0.27734 19.37891,1.47656 30.61328,-5.92969 11.23438,-7.41015 15.66016,-2.02344 9.19141,-10.84375 -6.46875,-8.82031 -21.98828,-4.05469 -31.24609,-7.45703 -3.48047,-1.27734 -8.10157,-1.83984 -12.85938,-1.83984 -7.91015,0 -16.1914,1.54297 -20.23047,3.8789"
         id="path34" />
    </clipPath>
    <clipPath
       id="clip-34">
      <path
         clip-rule="nonzero"
         d="m 74,262 h 129 v 26 H 74 Z m 0,0"
         id="path35" />
    </clipPath>
    <clipPath
       id="clip-35">
      <path
         clip-rule="nonzero"
         d="m 139.91797,260.07031 c -8.51172,3.53516 -21.10547,0.12891 -38.125,6.59766 -17.019532,6.46875 -20.765626,11.36719 -28.593751,15.55469 -7.828125,4.1875 8.851562,8.27343 29.273441,7.59375 20.42578,-0.6836 29.27343,-3.06641 38.80468,-4.08594 4.01172,-0.42969 7.54297,0.58984 11.58203,1.60937 5.55469,1.39844 12.06641,2.79688 22.11719,0.4336 17.36328,-4.08594 15.66016,-12.59375 34.04297,-11.23438 18.37891,1.36328 17.69922,-6.125 8.84766,-9.53125 -8.84766,-3.40234 -24.16797,1.01953 -24.16797,1.01953 0,0 -6.46875,0.34375 -12.25391,-4.76172 -5.78515,-5.10937 -13.95703,-2.72265 -19.0625,-2.04296 -2.0664,0.27343 -4.74219,-0.4375 -7.76562,-1.15235 -2.5625,-0.60547 -5.37891,-1.21484 -8.27344,-1.21484 -2.12109,0 -4.28516,0.32812 -6.42578,1.21484"
         id="path36" />
    </clipPath>
    <clipPath
       id="clip-36">
      <path
         clip-rule="nonzero"
         d="m 77,276 h 22 v 3 H 77 Z m 0,0"
         id="path37" />
    </clipPath>
    <clipPath
       id="clip-37">
      <path
         clip-rule="nonzero"
         d="m 139.91797,260.07031 c -8.51172,3.53516 -21.10547,0.12891 -38.125,6.59766 -17.019532,6.46875 -20.765626,11.36719 -28.593751,15.55469 -7.828125,4.1875 8.851562,8.27343 29.273441,7.59375 20.42578,-0.6836 29.27343,-3.06641 38.80468,-4.08594 4.01172,-0.42969 7.54297,0.58984 11.58203,1.60937 5.55469,1.39844 12.06641,2.79688 22.11719,0.4336 17.36328,-4.08594 15.66016,-12.59375 34.04297,-11.23438 18.37891,1.36328 17.69922,-6.125 8.84766,-9.53125 -8.84766,-3.40234 -24.16797,1.01953 -24.16797,1.01953 0,0 -6.46875,0.34375 -12.25391,-4.76172 -5.78515,-5.10937 -13.95703,-2.72265 -19.0625,-2.04296 -2.0664,0.27343 -4.74219,-0.4375 -7.76562,-1.15235 -2.5625,-0.60547 -5.37891,-1.21484 -8.27344,-1.21484 -2.12109,0 -4.28516,0.32812 -6.42578,1.21484"
         id="path38" />
    </clipPath>
    <clipPath
       id="clip-38">
      <path
         clip-rule="nonzero"
         d="m 82,261 h 38 v 29 H 82 Z m 0,0"
         id="path39" />
    </clipPath>
    <clipPath
       id="clip-39">
      <path
         clip-rule="nonzero"
         d="m 139.91797,260.07031 c -8.51172,3.53516 -21.10547,0.12891 -38.125,6.59766 -17.019532,6.46875 -20.765626,11.36719 -28.593751,15.55469 -7.828125,4.1875 8.851562,8.27343 29.273441,7.59375 20.42578,-0.6836 29.27343,-3.06641 38.80468,-4.08594 4.01172,-0.42969 7.54297,0.58984 11.58203,1.60937 5.55469,1.39844 12.06641,2.79688 22.11719,0.4336 17.36328,-4.08594 15.66016,-12.59375 34.04297,-11.23438 18.37891,1.36328 17.69922,-6.125 8.84766,-9.53125 -8.84766,-3.40234 -24.16797,1.01953 -24.16797,1.01953 0,0 -6.46875,0.34375 -12.25391,-4.76172 -5.78515,-5.10937 -13.95703,-2.72265 -19.0625,-2.04296 -2.0664,0.27343 -4.74219,-0.4375 -7.76562,-1.15235 -2.5625,-0.60547 -5.37891,-1.21484 -8.27344,-1.21484 -2.12109,0 -4.28516,0.32812 -6.42578,1.21484"
         id="path40" />
    </clipPath>
    <clipPath
       id="clip-40">
      <path
         clip-rule="nonzero"
         d="m 114,258 h 26 v 32 h -26 z m 0,0"
         id="path41" />
    </clipPath>
    <clipPath
       id="clip-41">
      <path
         clip-rule="nonzero"
         d="m 139.91797,260.07031 c -8.51172,3.53516 -21.10547,0.12891 -38.125,6.59766 -17.019532,6.46875 -20.765626,11.36719 -28.593751,15.55469 -7.828125,4.1875 8.851562,8.27343 29.273441,7.59375 20.42578,-0.6836 29.27343,-3.06641 38.80468,-4.08594 4.01172,-0.42969 7.54297,0.58984 11.58203,1.60937 5.55469,1.39844 12.06641,2.79688 22.11719,0.4336 17.36328,-4.08594 15.66016,-12.59375 34.04297,-11.23438 18.37891,1.36328 17.69922,-6.125 8.84766,-9.53125 -8.84766,-3.40234 -24.16797,1.01953 -24.16797,1.01953 0,0 -6.46875,0.34375 -12.25391,-4.76172 -5.78515,-5.10937 -13.95703,-2.72265 -19.0625,-2.04296 -2.0664,0.27343 -4.74219,-0.4375 -7.76562,-1.15235 -2.5625,-0.60547 -5.37891,-1.21484 -8.27344,-1.21484 -2.12109,0 -4.28516,0.32812 -6.42578,1.21484"
         id="path42" />
    </clipPath>
    <clipPath
       id="clip-42">
      <path
         clip-rule="nonzero"
         d="m 138,258 h 28 v 32 h -28 z m 0,0"
         id="path43" />
    </clipPath>
    <clipPath
       id="clip-43">
      <path
         clip-rule="nonzero"
         d="m 139.91797,260.07031 c -8.51172,3.53516 -21.10547,0.12891 -38.125,6.59766 -17.019532,6.46875 -20.765626,11.36719 -28.593751,15.55469 -7.828125,4.1875 8.851562,8.27343 29.273441,7.59375 20.42578,-0.6836 29.27343,-3.06641 38.80468,-4.08594 4.01172,-0.42969 7.54297,0.58984 11.58203,1.60937 5.55469,1.39844 12.06641,2.79688 22.11719,0.4336 17.36328,-4.08594 15.66016,-12.59375 34.04297,-11.23438 18.37891,1.36328 17.69922,-6.125 8.84766,-9.53125 -8.84766,-3.40234 -24.16797,1.01953 -24.16797,1.01953 0,0 -6.46875,0.34375 -12.25391,-4.76172 -5.78515,-5.10937 -13.95703,-2.72265 -19.0625,-2.04296 -2.0664,0.27343 -4.74219,-0.4375 -7.76562,-1.15235 -2.5625,-0.60547 -5.37891,-1.21484 -8.27344,-1.21484 -2.12109,0 -4.28516,0.32812 -6.42578,1.21484"
         id="path44" />
    </clipPath>
    <clipPath
       id="clip-44">
      <path
         clip-rule="nonzero"
         d="m 166,258 h 20 v 32 h -20 z m 0,0"
         id="path45" />
    </clipPath>
    <clipPath
       id="clip-45">
      <path
         clip-rule="nonzero"
         d="m 139.91797,260.07031 c -8.51172,3.53516 -21.10547,0.12891 -38.125,6.59766 -17.019532,6.46875 -20.765626,11.36719 -28.593751,15.55469 -7.828125,4.1875 8.851562,8.27343 29.273441,7.59375 20.42578,-0.6836 29.27343,-3.06641 38.80468,-4.08594 4.01172,-0.42969 7.54297,0.58984 11.58203,1.60937 5.55469,1.39844 12.06641,2.79688 22.11719,0.4336 17.36328,-4.08594 15.66016,-12.59375 34.04297,-11.23438 18.37891,1.36328 17.69922,-6.125 8.84766,-9.53125 -8.84766,-3.40234 -24.16797,1.01953 -24.16797,1.01953 0,0 -6.46875,0.34375 -12.25391,-4.76172 -5.78515,-5.10937 -13.95703,-2.72265 -19.0625,-2.04296 -2.0664,0.27343 -4.74219,-0.4375 -7.76562,-1.15235 -2.5625,-0.60547 -5.37891,-1.21484 -8.27344,-1.21484 -2.12109,0 -4.28516,0.32812 -6.42578,1.21484"
         id="path46" />
    </clipPath>
    <clipPath
       id="clip-46">
      <path
         clip-rule="nonzero"
         d="m 183,269 h 41 v 7 h -41 z m 0,0"
         id="path47" />
    </clipPath>
    <clipPath
       id="clip-47">
      <path
         clip-rule="nonzero"
         d="m 139.91797,260.07031 c -8.51172,3.53516 -21.10547,0.12891 -38.125,6.59766 -17.019532,6.46875 -20.765626,11.36719 -28.593751,15.55469 -7.828125,4.1875 8.851562,8.27343 29.273441,7.59375 20.42578,-0.6836 29.27343,-3.06641 38.80468,-4.08594 4.01172,-0.42969 7.54297,0.58984 11.58203,1.60937 5.55469,1.39844 12.06641,2.79688 22.11719,0.4336 17.36328,-4.08594 15.66016,-12.59375 34.04297,-11.23438 18.37891,1.36328 17.69922,-6.125 8.84766,-9.53125 -8.84766,-3.40234 -24.16797,1.01953 -24.16797,1.01953 0,0 -6.46875,0.34375 -12.25391,-4.76172 -5.78515,-5.10937 -13.95703,-2.72265 -19.0625,-2.04296 -2.0664,0.27343 -4.74219,-0.4375 -7.76562,-1.15235 -2.5625,-0.60547 -5.37891,-1.21484 -8.27344,-1.21484 -2.12109,0 -4.28516,0.32812 -6.42578,1.21484"
         id="path48" />
    </clipPath>
    <clipPath
       id="clip-48">
      <path
         clip-rule="nonzero"
         d="m 27,176 h 77 v 26 H 27 Z m 0,0"
         id="path49" />
    </clipPath>
    <clipPath
       id="clip-49">
      <path
         clip-rule="nonzero"
         d="M 72.210938,129.67578 H 30.109375 c 0,0 -9.988281,37.71484 12.617188,66.26563 2.070312,3.03515 14.480468,5.36328 29.484375,5.36328 15.007812,0 27.417968,-2.32813 29.484372,-5.36328 22.60938,-28.55079 12.61719,-66.26563 12.61719,-66.26563 z m 0,0"
         id="path50" />
    </clipPath>
    <clipPath
       id="clip-50">
      <path
         clip-rule="nonzero"
         d="m 61,152 h 56 v 50 H 61 Z m 0,0"
         id="path51" />
    </clipPath>
    <clipPath
       id="clip-51">
      <path
         clip-rule="nonzero"
         d="M 72.210938,129.67578 H 30.109375 c 0,0 -9.988281,37.71484 12.617188,66.26563 2.070312,3.03515 14.480468,5.36328 29.484375,5.36328 15.007812,0 27.417968,-2.32813 29.484372,-5.36328 22.60938,-28.55079 12.61719,-66.26563 12.61719,-66.26563 z m 0,0"
         id="path52" />
    </clipPath>
    <clipPath
       id="clip-52">
      <path
         clip-rule="nonzero"
         d="m 27,129 h 58 v 37 H 27 Z m 0,0"
         id="path53" />
    </clipPath>
    <clipPath
       id="clip-53">
      <path
         clip-rule="nonzero"
         d="M 72.210938,129.67578 H 30.109375 c 0,0 -9.988281,37.71484 12.617188,66.26563 2.070312,3.03515 14.480468,5.36328 29.484375,5.36328 15.007812,0 27.417968,-2.32813 29.484372,-5.36328 22.60938,-28.55079 12.61719,-66.26563 12.61719,-66.26563 z m 0,0"
         id="path54" />
    </clipPath>
    <clipPath
       id="clip-54">
      <path
         clip-rule="nonzero"
         d="m 64,129 h 53 v 58 H 64 Z m 0,0"
         id="path55" />
    </clipPath>
    <clipPath
       id="clip-55">
      <path
         clip-rule="nonzero"
         d="M 72.210938,129.67578 H 30.109375 c 0,0 -9.988281,37.71484 12.617188,66.26563 2.070312,3.03515 14.480468,5.36328 29.484375,5.36328 15.007812,0 27.417968,-2.32813 29.484372,-5.36328 22.60938,-28.55079 12.61719,-66.26563 12.61719,-66.26563 z m 0,0"
         id="path56" />
    </clipPath>
    <clipPath
       id="clip-56">
      <path
         clip-rule="nonzero"
         d="m 30,129 h 85 v 10 H 30 Z m 0,0"
         id="path57" />
    </clipPath>
    <clipPath
       id="clip-57">
      <path
         clip-rule="nonzero"
         d="m 30.109375,129.67578 c 0,4.95313 18.851563,8.96484 42.101563,8.96484 23.253906,0 42.101562,-4.01171 42.101562,-8.96484 0,-4.95312 -18.847656,-8.96484 -42.101562,-8.96484 -23.25,0 -42.101563,4.01172 -42.101563,8.96484"
         id="path58" />
    </clipPath>
    <clipPath
       id="clip-58">
      <path
         clip-rule="nonzero"
         d="m 348,370 h 100 v 11 H 348 Z m 0,0"
         id="path59" />
    </clipPath>
    <clipPath
       id="clip-59">
      <path
         clip-rule="nonzero"
         d="m 348.47656,370.57422 c 0,5.39453 22.24219,9.76953 49.67578,9.76953 27.4375,0 49.67578,-4.375 49.67578,-9.76953 0,-5.39453 -22.23828,-9.76953 -49.67578,-9.76953 -27.43359,0 -49.67578,4.375 -49.67578,9.76953"
         id="path60" />
    </clipPath>
    <clipPath
       id="clip-60">
      <path
         clip-rule="nonzero"
         d="m 45,396 h 92 v 41 H 45 Z m 0,0"
         id="path61" />
    </clipPath>
    <clipPath
       id="clip-61">
      <path
         clip-rule="nonzero"
         d="m 45.511719,396.60937 v 53.92969 c 0,4.9375 20.34375,8.9375 45.445312,8.9375 25.097659,0 45.445309,-4 45.445309,-8.9375 v -53.92969 z m 0,0"
         id="path62" />
    </clipPath>
    <clipPath
       id="clip-62">
      <path
         clip-rule="nonzero"
         d="m 45,396 h 92 v 10 H 45 Z m 0,0"
         id="path63" />
    </clipPath>
    <clipPath
       id="clip-63">
      <path
         clip-rule="nonzero"
         d="m 45.511719,396.60937 c 0,4.9375 20.34375,8.9375 45.445312,8.9375 25.097659,0 45.445309,-4 45.445309,-8.9375 0,-4.93359 -20.34765,-8.9375 -45.445309,-8.9375 -25.101562,0 -45.445312,4.00391 -45.445312,8.9375"
         id="path64" />
    </clipPath>
  </defs>
  <path
     fill-rule="nonzero"
     fill="#fff0e9"
     fill-opacity="1"
     d="m 111.90319,39.249043 -0.0451,-0.33089 c 0,0.1103 0.015,0.22059 0.0451,0.33089"
     id="path120"
     style="stroke-width:0.641727" />
  <path
     fill-rule="nonzero"
     fill="#ffc0b6"
     fill-opacity="1"
     d="m 18.970071,87.483465 c 0,4.402842 15.862196,7.972967 35.428531,7.972967 19.568711,0 35.430907,-3.570125 35.430907,-7.972967 0,-4.402842 -15.862196,-7.97298 -35.430907,-7.97298 -19.566335,0 -35.428531,3.570138 -35.428531,7.97298"
     id="path168"
     style="stroke-width:0.61257" />
  <path
     fill-rule="nonzero"
     fill="#de8f59"
     fill-opacity="1"
     d="m 26.854505,53.098225 v 33.035667 c 0,3.02217 12.461962,5.474837 27.838408,5.474837 15.37406,0 27.838408,-2.452667 27.838408,-5.474837 V 53.098225 Z m 0,0"
     id="path169"
     style="stroke-width:0.61257" />
  <g
     clip-path="url(#clip-60)"
     id="g171"
     transform="matrix(0.61256934,0,0,0.61256934,-1.0245764,-189.85252)">
    <g
       clip-path="url(#clip-61)"
       id="g170">
      <path
         fill-rule="nonzero"
         fill="#fff0e9"
         fill-opacity="1"
         d="m 45.511719,374.11328 v 53.92969 c 0,4.93359 20.34375,8.9375 45.445312,8.9375 25.097659,0 45.445309,-4.00391 45.445309,-8.9375 v -53.92969 z m 0,0"
         id="path170" />
    </g>
  </g>
  <path
     fill-rule="nonzero"
     fill="#c46238"
     fill-opacity="1"
     d="m 82.531321,53.098225 c 0,3.024556 -12.464348,5.474837 -27.838408,5.474837 -15.376446,0 -27.840794,-2.450281 -27.840794,-5.474837 0,-3.024565 12.464348,-5.474846 27.840794,-5.474846 15.37406,0 27.838408,2.450281 27.838408,5.474846"
     id="path171"
     style="stroke-width:0.61257" />
  <g
     clip-path="url(#clip-62)"
     id="g173"
     transform="matrix(0.61256934,0,0,0.61256934,-1.0245764,-189.85252)">
    <g
       clip-path="url(#clip-63)"
       id="g172">
      <path
         fill-rule="nonzero"
         fill="#7e402a"
         fill-opacity="1"
         d="m 136.40234,405.16797 c 0,4.9375 -20.34765,8.9375 -45.445309,8.9375 -25.101562,0 -45.449218,-4 -45.449218,-8.9375 0,-4.9336 20.347656,-8.9375 45.449218,-8.9375 25.097659,0 45.445309,4.0039 45.445309,8.9375"
         id="path172" />
    </g>
  </g>
  <path
     fill-rule="nonzero"
     fill="#003e1d"
     fill-opacity="1"
     d="m 52.122997,26.025521 c 0,0 -5.613621,-1.51706 -6.857905,2.723067 -1.24668,4.240127 6.410443,0.291925 6.857905,-2.723067"
     id="path173"
     style="stroke-width:0.61257" />
  <path
     fill-rule="nonzero"
     fill="#578e54"
     fill-opacity="1"
     d="m 59.01918,33.362007 c 0,0 -3.613188,3.24948 -7.425002,2.596233 -3.814201,-0.653246 -0.825536,-5.522698 7.425002,-2.596233"
     id="path174"
     style="stroke-width:0.61257" />
  <path
     fill-rule="nonzero"
     fill="#305e27"
     fill-opacity="1"
     d="m 58.119474,33.426612 c 0,0 -3.675416,-0.212964 -6.975154,-1.301711 -3.302134,-1.086352 -3.297351,-4.31192 1.426138,-3.113102 4.72349,1.201214 5.549016,4.414813 5.549016,4.414813"
     id="path175"
     style="stroke-width:0.61257" />
  <path
     fill-rule="nonzero"
     fill="#578e54"
     fill-opacity="1"
     d="m 51.594178,30.213013 c 5.101554,0.150755 8.176368,-2.100929 8.176368,-2.100929 v -1.725232 c -10.8779,-2.699135 -13.277923,3.675417 -8.176368,3.826161"
     id="path176"
     style="stroke-width:0.61257" />
  <path
     fill-rule="nonzero"
     fill="#003e1d"
     fill-opacity="1"
     d="m 66.092454,39.664766 c 0,0 -1.957353,7.958613 -7.458517,13.433459 -3.426562,-6.341056 -1.347177,-11.844606 0.732217,-14.046032 2.079385,-2.201416 5.015405,-12.840026 5.015405,-12.840026 l -5.381518,-1.710885 c 0,0 -0.299103,9.29383 -4.307128,13.694276 -3.519879,3.302133 -3.641911,8.07108 -3.641911,8.07108 0,0 -2.079385,-5.501164 -9.659933,-9.904006 l -3.668238,2.689561 c 0,0 7.336476,5.472451 10.026037,10.317972 2.691957,4.845521 4.768946,3.041308 5.381519,9.202897 3.91231,0 9.068895,-0.203389 9.068895,-0.203389 0,0 5.728484,-7.678659 7.317328,-15.577449 -0.612563,-2.273209 -3.424156,-3.127458 -3.424156,-3.127458"
     id="path177"
     style="stroke-width:0.61257" />
  <path
     fill-rule="nonzero"
     fill="#003e1d"
     fill-opacity="1"
     d="m 72.20618,28.217373 c -5.013028,-2.155951 -10.028433,0 -10.028433,0 l -0.97628,4.130065 c 8.315143,-1.935818 16.508264,1.691746 16.508264,1.691746 0,0 -0.490532,-3.668247 -5.503551,-5.821811"
     id="path178"
     style="stroke-width:0.61257" />
  <path
     fill-rule="nonzero"
     fill="#003e1d"
     fill-opacity="1"
     d="m 39.515073,36.889064 c 0,0 -3.974519,-0.375678 -9.076074,1.651063 -5.101554,2.024354 -2.624956,4.800055 1.05046,4.051094 3.675416,-0.751356 6.97755,-3.450492 8.025614,-5.702157"
     id="path179"
     style="stroke-width:0.61257" />
  <path
     fill-rule="nonzero"
     fill="#578e54"
     fill-opacity="1"
     d="m 35.626694,39.588191 c 0,0 -3.840528,1.093539 -7.858117,4.835946 -4.015203,3.740031 -0.701099,5.424599 2.450281,3.39067 3.151379,-2.033919 5.245121,-5.747622 5.407836,-8.226616"
     id="path180"
     style="stroke-width:0.61257" />
  <path
     fill-rule="nonzero"
     fill="#305e27"
     fill-opacity="1"
     d="m 42.57553,35.568205 c 0,0 -3.840527,1.09354 -7.858116,4.833551 -4.015203,3.740031 1.045677,4.747421 4.199453,2.713492 3.151379,-2.033918 3.498344,-5.070435 3.658663,-7.547043"
     id="path181"
     style="stroke-width:0.61257" />
  <path
     fill-rule="nonzero"
     fill="#0c391f"
     fill-opacity="1"
     d="m 30.771608,34.039184 c 0,0 -3.256668,-3.07721 -10.009294,-1.050469 -6.750221,2.024354 -0.90928,7.649935 10.009294,1.050469"
     id="path182"
     style="stroke-width:0.61257" />
  <path
     fill-rule="nonzero"
     fill="#003e1d"
     fill-opacity="1"
     d="m 33.530556,31.337653 c 0,0 -6.692794,-1.500318 -8.34147,-5.702157 -1.651062,-4.199453 5.582522,-4.814412 8.34147,0.751356 2.761354,5.565769 0,4.950801 0,4.950801"
     id="path183"
     style="stroke-width:0.61257" />
  <path
     fill-rule="nonzero"
     fill="#578e54"
     fill-opacity="1"
     d="m 28.414655,30.648514 c 0,0 -1.801826,-2.912099 -9.753261,-2.912099 -7.951435,0 -5.69977,7.099582 9.753261,2.912099"
     id="path184"
     style="stroke-width:0.61257" />
  <path
     fill-rule="nonzero"
     fill="#305e27"
     fill-opacity="1"
     d="m 36.591014,32.763791 c 0,0 -3.716091,-4.352594 -10.672106,-4.20184 -6.956015,0.150745 -4.931661,6.977541 10.672106,4.20184"
     id="path185"
     style="stroke-width:0.61257" />
  <path
     fill-rule="nonzero"
     fill="#305e27"
     fill-opacity="1"
     d="m 34.758097,32.689612 c 0,0 -1.464425,-2.572313 -2.629748,-8.300796 -1.162927,-5.728474 5.137446,-8.729109 6.33866,-2.878594 1.198809,5.852911 -3.708912,11.17939 -3.708912,11.17939"
     id="path186"
     style="stroke-width:0.61257" />
  <path
     fill-rule="nonzero"
     fill="#305e27"
     fill-opacity="1"
     d="m 36.119621,31.359187 c 0,0 4.747411,-1.330424 9.923145,0 5.175733,1.330425 2.024354,5.960586 -2.400023,4.209018 -4.426773,-1.753954 -7.523122,-4.209018 -7.523122,-4.209018"
     id="path187"
     style="stroke-width:0.61257" />
  <path
     fill-rule="nonzero"
     fill="#578e54"
     fill-opacity="1"
     d="m 36.591014,28.112084 c 0,0 -2.026741,-7.276644 2.325853,-10.727136 4.350198,-3.450492 4.9508,3.151389 3.148983,6.527693 -1.79942,3.373917 -5.474836,4.199443 -5.474836,4.199443"
     id="path188"
     style="stroke-width:0.61257" />
  <path
     fill-rule="nonzero"
     fill="#305e27"
     fill-opacity="1"
     d="m 34.758097,32.103366 c 0,0 1.00739,-6.616229 7.307753,-8.190725 6.302769,-1.576883 2.99107,8.757831 -7.307753,8.190725"
     id="path189"
     style="stroke-width:0.61257" />
  <path
     fill-rule="nonzero"
     fill="#578e54"
     fill-opacity="1"
     d="m 38.079361,32.19908 c 0,0 -0.03589,7.078047 6.527692,7.652332 6.561198,0.571889 3.003031,-5.032168 -6.527692,-7.652332"
     id="path190"
     style="stroke-width:0.61257" />
  <path
     fill-rule="nonzero"
     fill="#578e54"
     fill-opacity="1"
     d="m 58.495153,22.785606 c 0,0 -4.651697,-4.414803 -7.202474,-6.36976 -2.550778,-1.957353 -6.149619,-0.134002 -3.97452,4.091768 2.175099,4.228167 6.376938,5.278627 11.176994,2.277992"
     id="path191"
     style="stroke-width:0.61257" />
  <path
     fill-rule="nonzero"
     fill="#305e27"
     fill-opacity="1"
     d="m 59.770546,23.386218 c 0,0 -3.010209,0.49771 -7.200088,-0.375679 -4.187482,-0.871001 -5.166159,-0.148358 -5.922298,1.05046 -0.756139,1.201205 5.694978,7.202474 13.122386,-0.674781"
     id="path192"
     style="stroke-width:0.61257" />
  <path
     fill-rule="nonzero"
     fill="#578e54"
     fill-opacity="1"
     d="m 61.479035,26.260029 c 0,0 3.893171,-7.982544 11.545503,-7.082839 7.649936,0.902102 0.614959,9.810678 -11.545503,7.082839"
     id="path193"
     style="stroke-width:0.61257" />
  <path
     fill-rule="nonzero"
     fill="#003e1d"
     fill-opacity="1"
     d="m 56.394233,16.415846 c 0,0 -4.010421,-0.380461 -7.669084,-3.381096 -3.658664,-3.000634 5.19009,-6.3865119 7.669084,3.381096"
     id="path194"
     style="stroke-width:0.61257" />
  <path
     fill-rule="nonzero"
     fill="#578e54"
     fill-opacity="1"
     d="m 59.770546,13.17593 c 0,0 -3.751991,-0.667603 -8.176368,-2.242099 -4.426773,-1.5744966 0.524036,-8.870289 8.176368,2.242099"
     id="path195"
     style="stroke-width:0.61257" />
  <path
     fill-rule="nonzero"
     fill="#305e27"
     fill-opacity="1"
     d="m 59.770546,12.135035 c 0,0 -4.570349,-0.97628 -6.297977,-6.3027585 -1.730033,-5.32409202 7.259901,-5.04891977 6.297977,6.3027585"
     id="path196"
     style="stroke-width:0.61257" />
  <path
     fill-rule="nonzero"
     fill="#578e54"
     fill-opacity="1"
     d="m 61.081822,11.608612 c 0,0 -1.911888,-4.9507997 1.689349,-9.750855 3.601237,-4.8024512 9.748469,0.1507448 -1.689349,9.750855"
     id="path197"
     style="stroke-width:0.61257" />
  <path
     fill-rule="nonzero"
     fill="#003e1d"
     fill-opacity="1"
     d="m 62.696992,13.644927 c 0,0 1.048074,-7.2862274 7.949049,-9.3129679 6.90337,-2.0243541 1.576883,8.1237239 -7.949049,9.3129679"
     id="path198"
     style="stroke-width:0.61257" />
  <path
     fill-rule="nonzero"
     fill="#578e54"
     fill-opacity="1"
     d="m 70.346937,16.415846 c 0,0 -0.973894,-6.264481 6.075439,-7.5590134 7.054126,-1.2993148 2.325854,6.2118464 -6.075439,7.5590134"
     id="path199"
     style="stroke-width:0.61257" />
  <path
     fill-rule="nonzero"
     fill="#003e1d"
     fill-opacity="1"
     d="m 75.388669,30.220192 c 0,0 4.335841,-4.534448 11.236816,-6.472662 6.900975,-1.935809 9.377573,3.13225 2.926456,4.986701 -6.451127,1.854461 -14.163272,1.485961 -14.163272,1.485961"
     id="path200"
     style="stroke-width:0.61257" />
  <path
     fill-rule="nonzero"
     fill="#578e54"
     fill-opacity="1"
     d="m 77.999269,28.748588 c 0,0 -0.674781,-4.589479 3.601237,-8.238578 4.273623,-3.649089 12.00253,-2.440706 6.075439,4.118086 -5.92709,6.558812 -9.676676,4.120492 -9.676676,4.120492"
     id="path201"
     style="stroke-width:0.61257" />
  <path
     fill-rule="nonzero"
     fill="#305e27"
     fill-opacity="1"
     d="m 76.908126,29.193663 c 0,0 -2.189456,-4.307128 0.801605,-9.633616 2.988664,-5.324092 7.101977,-2.545985 4.82159,2.703918 -2.282783,5.247526 -5.623195,6.929698 -5.623195,6.929698"
     id="path202"
     style="stroke-width:0.61257" />
  <path
     fill-rule="nonzero"
     fill="#003e1d"
     fill-opacity="1"
     d="m 66.221664,22.350105 c 0,0 5.560976,-6.664081 8.176358,-4.010411 2.615383,2.65367 -3.285381,4.359772 -8.176358,4.010411"
     id="path203"
     style="stroke-width:0.61257" />
  <path
     fill-rule="nonzero"
     fill="#305e27"
     fill-opacity="1"
     d="m 74.414775,29.612402 c 0,0 13.146307,-4.048689 16.895912,1.107896 3.751982,5.156594 -9.406295,1.840094 -16.895912,-1.107896"
     id="path204"
     style="stroke-width:0.61257" />
  <path
     fill-rule="nonzero"
     fill="#578e54"
     fill-opacity="1"
     d="m 78.645337,30.717902 c 0,0 7.338872,0.433105 10.715176,4.965166 3.376303,4.532052 -6.731092,4.890977 -10.715176,-4.965166"
     id="path205"
     style="stroke-width:0.61257" />
  <path
     fill-rule="nonzero"
     fill="#305e27"
     fill-opacity="1"
     d="m 74.151563,29.353982 c 0,0 7.341259,0.433105 10.717572,4.965157 3.376313,4.532052 -6.731082,4.890987 -10.717572,-4.965157"
     id="path206"
     style="stroke-width:0.61257" />
  <path
     fill-rule="nonzero"
     fill="#305e27"
     fill-opacity="1"
     d="m 63.295208,41.165083 c 0,0 -5.924694,1.043282 -9.676676,0.370896 -3.749605,-0.669999 -2.593857,-7.348446 7.666679,-3.67303 2.684779,0.827932 2.009997,3.302134 2.009997,3.302134"
     id="path207"
     style="stroke-width:0.61257" />
  <path
     fill-rule="nonzero"
     fill="#578e54"
     fill-opacity="1"
     d="m 65.020449,41.653219 c 0,0 -3.227945,-0.732208 -3.938627,-6.08741 -0.710674,-5.352796 4.850303,-7.05172 5.482015,-0.839883 0.634107,6.214224 -1.543388,6.927293 -1.543388,6.927293"
     id="path208"
     style="stroke-width:0.61257" />
  <path
     fill-rule="nonzero"
     fill="#305e27"
     fill-opacity="1"
     d="m 66.221664,42.440467 c 0,0 -1.430921,-4.622984 1.459633,-8.20029 2.890564,-3.577306 7.391516,-0.952359 4.692381,3.24949 -2.701522,4.199453 -6.152014,4.9508 -6.152014,4.9508"
     id="path209"
     style="stroke-width:0.61257" />
  <path
     fill-rule="nonzero"
     fill="#578e54"
     fill-opacity="1"
     d="m 38.916867,31.713331 c 0,0 -5.252309,0.449857 -8.702792,0.899705 -3.450492,0.449858 -5.024989,3.151389 -1.275393,3.826171 3.751991,0.674781 7.726511,-0.07417 9.978185,-4.725876"
     id="path210"
     style="stroke-width:0.61257" />
  <path
     fill-rule="nonzero"
     fill="#305e27"
     fill-opacity="1"
     d="m 61.756603,26.386852 c 0,0 -5.474837,-2.400032 -7.724115,-6.226193 -2.251664,-3.826171 0.899715,-8.475472 4.350198,-3.074814 3.450492,5.400658 3.373917,9.301007 3.373917,9.301007"
     id="path211"
     style="stroke-width:0.61257" />
  <path
     fill-rule="nonzero"
     fill="#578e54"
     fill-opacity="1"
     d="m 60.842541,23.718817 c 0,0 -3.601237,-5.915121 -2.325853,-10.789355 1.275384,-4.8766207 5.702166,-4.335841 5.850515,1.919066 0.150754,6.254906 -3.524662,8.870289 -3.524662,8.870289"
     id="path212"
     style="stroke-width:0.61257" />
  <path
     fill-rule="nonzero"
     fill="#305e27"
     fill-opacity="1"
     d="m 61.720711,26.386852 c 0,0 -2.577094,-3.596464 2.612996,-9.674289 5.187695,-6.077845 9.839391,-2.029137 6.688012,2.69673 -3.148993,4.728272 -9.301008,6.977559 -9.301008,6.977559"
     id="path213"
     style="stroke-width:0.61257" />
  <path
     fill-rule="nonzero"
     fill="#305e27"
     fill-opacity="1"
     d="m 67.681297,41.090904 c 0,0 3.610812,-4.563161 8.453937,-3.936242 4.843125,0.62693 3.589276,3.7161 0.363718,3.225569 -3.225559,-0.490532 -8.817655,0.710673 -8.817655,0.710673"
     id="path214"
     style="stroke-width:0.61257" />
  <path
     fill-rule="nonzero"
     fill="#578e54"
     fill-opacity="1"
     d="m 66.403518,41.382829 c 0,0 5.910337,-1.969314 11.150676,-1.710885 5.240338,0.258429 3.862053,4.642123 1.514674,4.168344 -2.349775,-0.473779 -12.66535,-2.457459 -12.66535,-2.457459"
     id="path215"
     style="stroke-width:0.61257" />
  <path
     fill-rule="nonzero"
     fill="#578e54"
     fill-opacity="1"
     d="m 68.339336,40.959298 c 0,0 4.558369,-0.504898 7.484834,3.189667 2.92406,3.692169 -1.725251,6.092192 -4.87663,3.168132 -3.15138,-2.926455 -2.608204,-6.357799 -2.608204,-6.357799"
     id="path216"
     style="stroke-width:0.61257" />
  <path
     fill-rule="nonzero"
     fill="#578e54"
     fill-opacity="1"
     d="m 67.346303,42.715649 c 0,0 -4.876621,1.450069 -8.85115,0.624533 -3.974529,-0.825536 -1.763529,-4.173126 3.682594,-3.550989 5.44852,0.622147 5.168556,2.926456 5.168556,2.926456"
     id="path217"
     style="stroke-width:0.61257" />
  <path
     fill-rule="nonzero"
     fill="#305e27"
     fill-opacity="1"
     d="m 66.850979,40.997586 c 0,0 -0.770495,3.761556 -0.287142,6.60904 0.483353,2.845098 3.933845,4.477031 4.608627,1.222749 0.674791,-3.254272 -1.892739,-8.511363 -4.321485,-7.831789"
     id="path218"
     style="stroke-width:0.61257" />
</svg>
