<?xml version="1.0" encoding="UTF-8" standalone="no"?>
<svg
   width="100pt"
   height="116.1443pt"
   viewBox="0 0 100 116.1443"
   version="1.1"
   id="svg341"
   sodipodi:docname="plant-5.svg"
   inkscape:version="1.3 (0e150ed6c4, 2023-07-21)"
   xmlns:inkscape="http://www.inkscape.org/namespaces/inkscape"
   xmlns:sodipodi="http://sodipodi.sourceforge.net/DTD/sodipodi-0.dtd"
   xmlns="http://www.w3.org/2000/svg"
   xmlns:svg="http://www.w3.org/2000/svg">
  <sodipodi:namedview
     id="namedview341"
     pagecolor="#ffffff"
     bordercolor="#000000"
     borderopacity="0.25"
     inkscape:showpageshadow="2"
     inkscape:pageopacity="0.0"
     inkscape:pagecheckerboard="0"
     inkscape:deskcolor="#d1d1d1"
     inkscape:document-units="pt"
     showgrid="false"
     inkscape:zoom="0.5985"
     inkscape:cx="-411.86299"
     inkscape:cy="34.252297"
     inkscape:window-width="1432"
     inkscape:window-height="1027"
     inkscape:window-x="159"
     inkscape:window-y="5"
     inkscape:window-maximized="0"
     inkscape:current-layer="svg341" />
  <defs
     id="defs64">
    <clipPath
       id="clip-0">
      <path
         clip-rule="nonzero"
         d="m 199,370 h 100 v 11 H 199 Z m 0,0"
         id="path1" />
    </clipPath>
    <clipPath
       id="clip-1">
      <path
         clip-rule="nonzero"
         d="m 199.125,370.57422 c 0,5.39453 22.24219,9.76953 49.67578,9.76953 27.4375,0 49.67578,-4.375 49.67578,-9.76953 0,-5.39453 -22.23828,-9.76953 -49.67578,-9.76953 -27.43359,0 -49.67578,4.375 -49.67578,9.76953"
         id="path2" />
    </clipPath>
    <clipPath
       id="clip-2">
      <path
         clip-rule="nonzero"
         d="m 182,209 h 111 v 49 H 182 Z m 0,0"
         id="path3" />
    </clipPath>
    <clipPath
       id="clip-3">
      <path
         clip-rule="nonzero"
         d="m 198.04297,52.789063 c 0,0 -10.23438,0 -19.54297,11.65625 -9.30859,11.660156 -8.67578,7.265625 -16.10547,26.558593 -7.43359,19.289064 -9.5,29.726564 -10.25,40.933594 -0.75,11.20703 -2.71875,15.16797 1.41797,34.89453 4.13672,19.72266 3.82812,19.27734 8.9375,29.55469 5.11328,10.27734 2.91406,22.7539 6.39844,31.85547 3.48437,9.10547 9.73437,7.47656 10.79297,17.09765 1.0625,9.625 7.78515,11.09766 16.95703,11.71485 9.16797,0.61328 13.78515,8.08593 22.86718,4.9414 9.08204,-3.14453 13.76954,-32.40625 13.76954,-32.40625 l -1.6875,-10.45312 c 0,0 3.05468,10.45312 10.91015,15.40625 7.85547,4.95312 14.25781,21.41797 26.48438,22.23437 12.22656,0.82032 8.76562,-13.72656 16.30859,-19.36718 7.54297,-5.64454 15.40625,-26.26954 9.25,-41.35157 -6.15234,-15.08203 0.082,-26.66406 -11.75,-38.51172 -11.82812,-11.85156 -0.31641,-25.41015 -16.37891,-40.47265 -9,-8.44922 -8.43359,-16.94141 -20.8164,-25.617189 -11.85156,-8.304687 -15.33985,-38.851562 -43.60156,-38.855468 -1.26954,0 -2.58594,0.0625 -3.96094,0.1875"
         id="path4" />
    </clipPath>
    <clipPath
       id="clip-4">
      <path
         clip-rule="nonzero"
         d="m 169,197 h 128 v 34 H 169 Z m 0,0"
         id="path5" />
    </clipPath>
    <clipPath
       id="clip-5">
      <path
         clip-rule="nonzero"
         d="m 198.04297,52.789063 c 0,0 -10.23438,0 -19.54297,11.65625 -9.30859,11.660156 -8.67578,7.265625 -16.10547,26.558593 -7.43359,19.289064 -9.5,29.726564 -10.25,40.933594 -0.75,11.20703 -2.71875,15.16797 1.41797,34.89453 4.13672,19.72266 3.82812,19.27734 8.9375,29.55469 5.11328,10.27734 2.91406,22.7539 6.39844,31.85547 3.48437,9.10547 9.73437,7.47656 10.79297,17.09765 1.0625,9.625 7.78515,11.09766 16.95703,11.71485 9.16797,0.61328 13.78515,8.08593 22.86718,4.9414 9.08204,-3.14453 13.76954,-32.40625 13.76954,-32.40625 l -1.6875,-10.45312 c 0,0 3.05468,10.45312 10.91015,15.40625 7.85547,4.95312 14.25781,21.41797 26.48438,22.23437 12.22656,0.82032 8.76562,-13.72656 16.30859,-19.36718 7.54297,-5.64454 15.40625,-26.26954 9.25,-41.35157 -6.15234,-15.08203 0.082,-26.66406 -11.75,-38.51172 -11.82812,-11.85156 -0.31641,-25.41015 -16.37891,-40.47265 -9,-8.44922 -8.43359,-16.94141 -20.8164,-25.617189 -11.85156,-8.304687 -15.33985,-38.851562 -43.60156,-38.855468 -1.26954,0 -2.58594,0.0625 -3.96094,0.1875"
         id="path6" />
    </clipPath>
    <clipPath
       id="clip-6">
      <path
         clip-rule="nonzero"
         d="m 160,185 h 137 v 24 H 160 Z m 0,0"
         id="path7" />
    </clipPath>
    <clipPath
       id="clip-7">
      <path
         clip-rule="nonzero"
         d="m 198.04297,52.789063 c 0,0 -10.23438,0 -19.54297,11.65625 -9.30859,11.660156 -8.67578,7.265625 -16.10547,26.558593 -7.43359,19.289064 -9.5,29.726564 -10.25,40.933594 -0.75,11.20703 -2.71875,15.16797 1.41797,34.89453 4.13672,19.72266 3.82812,19.27734 8.9375,29.55469 5.11328,10.27734 2.91406,22.7539 6.39844,31.85547 3.48437,9.10547 9.73437,7.47656 10.79297,17.09765 1.0625,9.625 7.78515,11.09766 16.95703,11.71485 9.16797,0.61328 13.78515,8.08593 22.86718,4.9414 9.08204,-3.14453 13.76954,-32.40625 13.76954,-32.40625 l -1.6875,-10.45312 c 0,0 3.05468,10.45312 10.91015,15.40625 7.85547,4.95312 14.25781,21.41797 26.48438,22.23437 12.22656,0.82032 8.76562,-13.72656 16.30859,-19.36718 7.54297,-5.64454 15.40625,-26.26954 9.25,-41.35157 -6.15234,-15.08203 0.082,-26.66406 -11.75,-38.51172 -11.82812,-11.85156 -0.31641,-25.41015 -16.37891,-40.47265 -9,-8.44922 -8.43359,-16.94141 -20.8164,-25.617189 -11.85156,-8.304687 -15.33985,-38.851562 -43.60156,-38.855468 -1.26954,0 -2.58594,0.0625 -3.96094,0.1875"
         id="path8" />
    </clipPath>
    <clipPath
       id="clip-8">
      <path
         clip-rule="nonzero"
         d="m 151,159 h 142 v 26 H 151 Z m 0,0"
         id="path9" />
    </clipPath>
    <clipPath
       id="clip-9">
      <path
         clip-rule="nonzero"
         d="m 198.04297,52.789063 c 0,0 -10.23438,0 -19.54297,11.65625 -9.30859,11.660156 -8.67578,7.265625 -16.10547,26.558593 -7.43359,19.289064 -9.5,29.726564 -10.25,40.933594 -0.75,11.20703 -2.71875,15.16797 1.41797,34.89453 4.13672,19.72266 3.82812,19.27734 8.9375,29.55469 5.11328,10.27734 2.91406,22.7539 6.39844,31.85547 3.48437,9.10547 9.73437,7.47656 10.79297,17.09765 1.0625,9.625 7.78515,11.09766 16.95703,11.71485 9.16797,0.61328 13.78515,8.08593 22.86718,4.9414 9.08204,-3.14453 13.76954,-32.40625 13.76954,-32.40625 l -1.6875,-10.45312 c 0,0 3.05468,10.45312 10.91015,15.40625 7.85547,4.95312 14.25781,21.41797 26.48438,22.23437 12.22656,0.82032 8.76562,-13.72656 16.30859,-19.36718 7.54297,-5.64454 15.40625,-26.26954 9.25,-41.35157 -6.15234,-15.08203 0.082,-26.66406 -11.75,-38.51172 -11.82812,-11.85156 -0.31641,-25.41015 -16.37891,-40.47265 -9,-8.44922 -8.43359,-16.94141 -20.8164,-25.617189 -11.85156,-8.304687 -15.33985,-38.851562 -43.60156,-38.855468 -1.26954,0 -2.58594,0.0625 -3.96094,0.1875"
         id="path10" />
    </clipPath>
    <clipPath
       id="clip-10">
      <path
         clip-rule="nonzero"
         d="m 151,134 h 130 v 29 H 151 Z m 0,0"
         id="path11" />
    </clipPath>
    <clipPath
       id="clip-11">
      <path
         clip-rule="nonzero"
         d="m 198.04297,52.789063 c 0,0 -10.23438,0 -19.54297,11.65625 -9.30859,11.660156 -8.67578,7.265625 -16.10547,26.558593 -7.43359,19.289064 -9.5,29.726564 -10.25,40.933594 -0.75,11.20703 -2.71875,15.16797 1.41797,34.89453 4.13672,19.72266 3.82812,19.27734 8.9375,29.55469 5.11328,10.27734 2.91406,22.7539 6.39844,31.85547 3.48437,9.10547 9.73437,7.47656 10.79297,17.09765 1.0625,9.625 7.78515,11.09766 16.95703,11.71485 9.16797,0.61328 13.78515,8.08593 22.86718,4.9414 9.08204,-3.14453 13.76954,-32.40625 13.76954,-32.40625 l -1.6875,-10.45312 c 0,0 3.05468,10.45312 10.91015,15.40625 7.85547,4.95312 14.25781,21.41797 26.48438,22.23437 12.22656,0.82032 8.76562,-13.72656 16.30859,-19.36718 7.54297,-5.64454 15.40625,-26.26954 9.25,-41.35157 -6.15234,-15.08203 0.082,-26.66406 -11.75,-38.51172 -11.82812,-11.85156 -0.31641,-25.41015 -16.37891,-40.47265 -9,-8.44922 -8.43359,-16.94141 -20.8164,-25.617189 -11.85156,-8.304687 -15.33985,-38.851562 -43.60156,-38.855468 -1.26954,0 -2.58594,0.0625 -3.96094,0.1875"
         id="path12" />
    </clipPath>
    <clipPath
       id="clip-12">
      <path
         clip-rule="nonzero"
         d="m 151,112 h 119 v 34 H 151 Z m 0,0"
         id="path13" />
    </clipPath>
    <clipPath
       id="clip-13">
      <path
         clip-rule="nonzero"
         d="m 198.04297,52.789063 c 0,0 -10.23438,0 -19.54297,11.65625 -9.30859,11.660156 -8.67578,7.265625 -16.10547,26.558593 -7.43359,19.289064 -9.5,29.726564 -10.25,40.933594 -0.75,11.20703 -2.71875,15.16797 1.41797,34.89453 4.13672,19.72266 3.82812,19.27734 8.9375,29.55469 5.11328,10.27734 2.91406,22.7539 6.39844,31.85547 3.48437,9.10547 9.73437,7.47656 10.79297,17.09765 1.0625,9.625 7.78515,11.09766 16.95703,11.71485 9.16797,0.61328 13.78515,8.08593 22.86718,4.9414 9.08204,-3.14453 13.76954,-32.40625 13.76954,-32.40625 l -1.6875,-10.45312 c 0,0 3.05468,10.45312 10.91015,15.40625 7.85547,4.95312 14.25781,21.41797 26.48438,22.23437 12.22656,0.82032 8.76562,-13.72656 16.30859,-19.36718 7.54297,-5.64454 15.40625,-26.26954 9.25,-41.35157 -6.15234,-15.08203 0.082,-26.66406 -11.75,-38.51172 -11.82812,-11.85156 -0.31641,-25.41015 -16.37891,-40.47265 -9,-8.44922 -8.43359,-16.94141 -20.8164,-25.617189 -11.85156,-8.304687 -15.33985,-38.851562 -43.60156,-38.855468 -1.26954,0 -2.58594,0.0625 -3.96094,0.1875"
         id="path14" />
    </clipPath>
    <clipPath
       id="clip-14">
      <path
         clip-rule="nonzero"
         d="m 151,91 h 106 v 32 H 151 Z m 0,0"
         id="path15" />
    </clipPath>
    <clipPath
       id="clip-15">
      <path
         clip-rule="nonzero"
         d="m 198.04297,52.789063 c 0,0 -10.23438,0 -19.54297,11.65625 -9.30859,11.660156 -8.67578,7.265625 -16.10547,26.558593 -7.43359,19.289064 -9.5,29.726564 -10.25,40.933594 -0.75,11.20703 -2.71875,15.16797 1.41797,34.89453 4.13672,19.72266 3.82812,19.27734 8.9375,29.55469 5.11328,10.27734 2.91406,22.7539 6.39844,31.85547 3.48437,9.10547 9.73437,7.47656 10.79297,17.09765 1.0625,9.625 7.78515,11.09766 16.95703,11.71485 9.16797,0.61328 13.78515,8.08593 22.86718,4.9414 9.08204,-3.14453 13.76954,-32.40625 13.76954,-32.40625 l -1.6875,-10.45312 c 0,0 3.05468,10.45312 10.91015,15.40625 7.85547,4.95312 14.25781,21.41797 26.48438,22.23437 12.22656,0.82032 8.76562,-13.72656 16.30859,-19.36718 7.54297,-5.64454 15.40625,-26.26954 9.25,-41.35157 -6.15234,-15.08203 0.082,-26.66406 -11.75,-38.51172 -11.82812,-11.85156 -0.31641,-25.41015 -16.37891,-40.47265 -9,-8.44922 -8.43359,-16.94141 -20.8164,-25.617189 -11.85156,-8.304687 -15.33985,-38.851562 -43.60156,-38.855468 -1.26954,0 -2.58594,0.0625 -3.96094,0.1875"
         id="path16" />
    </clipPath>
    <clipPath
       id="clip-16">
      <path
         clip-rule="nonzero"
         d="m 162,77 h 82 v 31 h -82 z m 0,0"
         id="path17" />
    </clipPath>
    <clipPath
       id="clip-17">
      <path
         clip-rule="nonzero"
         d="m 198.04297,52.789063 c 0,0 -10.23438,0 -19.54297,11.65625 -9.30859,11.660156 -8.67578,7.265625 -16.10547,26.558593 -7.43359,19.289064 -9.5,29.726564 -10.25,40.933594 -0.75,11.20703 -2.71875,15.16797 1.41797,34.89453 4.13672,19.72266 3.82812,19.27734 8.9375,29.55469 5.11328,10.27734 2.91406,22.7539 6.39844,31.85547 3.48437,9.10547 9.73437,7.47656 10.79297,17.09765 1.0625,9.625 7.78515,11.09766 16.95703,11.71485 9.16797,0.61328 13.78515,8.08593 22.86718,4.9414 9.08204,-3.14453 13.76954,-32.40625 13.76954,-32.40625 l -1.6875,-10.45312 c 0,0 3.05468,10.45312 10.91015,15.40625 7.85547,4.95312 14.25781,21.41797 26.48438,22.23437 12.22656,0.82032 8.76562,-13.72656 16.30859,-19.36718 7.54297,-5.64454 15.40625,-26.26954 9.25,-41.35157 -6.15234,-15.08203 0.082,-26.66406 -11.75,-38.51172 -11.82812,-11.85156 -0.31641,-25.41015 -16.37891,-40.47265 -9,-8.44922 -8.43359,-16.94141 -20.8164,-25.617189 -11.85156,-8.304687 -15.33985,-38.851562 -43.60156,-38.855468 -1.26954,0 -2.58594,0.0625 -3.96094,0.1875"
         id="path18" />
    </clipPath>
    <clipPath
       id="clip-18">
      <path
         clip-rule="nonzero"
         d="m 171,62 h 63 v 24 h -63 z m 0,0"
         id="path19" />
    </clipPath>
    <clipPath
       id="clip-19">
      <path
         clip-rule="nonzero"
         d="m 198.04297,52.789063 c 0,0 -10.23438,0 -19.54297,11.65625 -9.30859,11.660156 -8.67578,7.265625 -16.10547,26.558593 -7.43359,19.289064 -9.5,29.726564 -10.25,40.933594 -0.75,11.20703 -2.71875,15.16797 1.41797,34.89453 4.13672,19.72266 3.82812,19.27734 8.9375,29.55469 5.11328,10.27734 2.91406,22.7539 6.39844,31.85547 3.48437,9.10547 9.73437,7.47656 10.79297,17.09765 1.0625,9.625 7.78515,11.09766 16.95703,11.71485 9.16797,0.61328 13.78515,8.08593 22.86718,4.9414 9.08204,-3.14453 13.76954,-32.40625 13.76954,-32.40625 l -1.6875,-10.45312 c 0,0 3.05468,10.45312 10.91015,15.40625 7.85547,4.95312 14.25781,21.41797 26.48438,22.23437 12.22656,0.82032 8.76562,-13.72656 16.30859,-19.36718 7.54297,-5.64454 15.40625,-26.26954 9.25,-41.35157 -6.15234,-15.08203 0.082,-26.66406 -11.75,-38.51172 -11.82812,-11.85156 -0.31641,-25.41015 -16.37891,-40.47265 -9,-8.44922 -8.43359,-16.94141 -20.8164,-25.617189 -11.85156,-8.304687 -15.33985,-38.851562 -43.60156,-38.855468 -1.26954,0 -2.58594,0.0625 -3.96094,0.1875"
         id="path20" />
    </clipPath>
    <clipPath
       id="clip-20">
      <path
         clip-rule="nonzero"
         d="m 301,245 h 125 v 11 H 301 Z m 0,0"
         id="path21" />
    </clipPath>
    <clipPath
       id="clip-21">
      <path
         clip-rule="nonzero"
         d="m 359.62109,240.90234 c -2.125,1.23047 -4.0039,0.8711 -6.53125,0.51172 -5.17187,-0.73437 -13.05468,-1.46875 -31.2539,11.40625 0,0 -31.65625,0.85938 -40.16407,4.34375 -8.51171,3.48438 -21.10546,11.98828 -11.23437,13.01172 3.92187,0.41016 8.58203,-0.89453 13.63281,-2.19922 7.65235,-1.97265 16.19922,-3.94531 24.4375,0.0274 6.91016,3.33984 13.89844,1.33203 20.30469,-0.67579 6.26172,-1.96093 11.96875,-3.92187 16.51172,-0.89453 5.63281,3.75782 15.88672,1.55078 24.85937,-0.66015 5.66407,-1.39063 10.8125,-2.78516 13.96875,-2.67969 8.14844,0.27734 19.37891,1.47656 30.61328,-5.92969 11.23438,-7.41015 15.66016,-2.02344 9.19141,-10.84375 -6.46875,-8.82031 -21.98828,-4.05469 -31.24609,-7.45703 -3.48047,-1.27734 -8.10157,-1.83984 -12.85938,-1.83984 -7.91015,0 -16.1914,1.54297 -20.23047,3.8789"
         id="path22" />
    </clipPath>
    <clipPath
       id="clip-22">
      <path
         clip-rule="nonzero"
         d="m 400,239 h 27 v 12 h -27 z m 0,0"
         id="path23" />
    </clipPath>
    <clipPath
       id="clip-23">
      <path
         clip-rule="nonzero"
         d="m 359.62109,240.90234 c -2.125,1.23047 -4.0039,0.8711 -6.53125,0.51172 -5.17187,-0.73437 -13.05468,-1.46875 -31.2539,11.40625 0,0 -31.65625,0.85938 -40.16407,4.34375 -8.51171,3.48438 -21.10546,11.98828 -11.23437,13.01172 3.92187,0.41016 8.58203,-0.89453 13.63281,-2.19922 7.65235,-1.97265 16.19922,-3.94531 24.4375,0.0274 6.91016,3.33984 13.89844,1.33203 20.30469,-0.67579 6.26172,-1.96093 11.96875,-3.92187 16.51172,-0.89453 5.63281,3.75782 15.88672,1.55078 24.85937,-0.66015 5.66407,-1.39063 10.8125,-2.78516 13.96875,-2.67969 8.14844,0.27734 19.37891,1.47656 30.61328,-5.92969 11.23438,-7.41015 15.66016,-2.02344 9.19141,-10.84375 -6.46875,-8.82031 -21.98828,-4.05469 -31.24609,-7.45703 -3.48047,-1.27734 -8.10157,-1.83984 -12.85938,-1.83984 -7.91015,0 -16.1914,1.54297 -20.23047,3.8789"
         id="path24" />
    </clipPath>
    <clipPath
       id="clip-24">
      <path
         clip-rule="nonzero"
         d="m 378,237 h 36 v 29 h -36 z m 0,0"
         id="path25" />
    </clipPath>
    <clipPath
       id="clip-25">
      <path
         clip-rule="nonzero"
         d="m 359.62109,240.90234 c -2.125,1.23047 -4.0039,0.8711 -6.53125,0.51172 -5.17187,-0.73437 -13.05468,-1.46875 -31.2539,11.40625 0,0 -31.65625,0.85938 -40.16407,4.34375 -8.51171,3.48438 -21.10546,11.98828 -11.23437,13.01172 3.92187,0.41016 8.58203,-0.89453 13.63281,-2.19922 7.65235,-1.97265 16.19922,-3.94531 24.4375,0.0274 6.91016,3.33984 13.89844,1.33203 20.30469,-0.67579 6.26172,-1.96093 11.96875,-3.92187 16.51172,-0.89453 5.63281,3.75782 15.88672,1.55078 24.85937,-0.66015 5.66407,-1.39063 10.8125,-2.78516 13.96875,-2.67969 8.14844,0.27734 19.37891,1.47656 30.61328,-5.92969 11.23438,-7.41015 15.66016,-2.02344 9.19141,-10.84375 -6.46875,-8.82031 -21.98828,-4.05469 -31.24609,-7.45703 -3.48047,-1.27734 -8.10157,-1.83984 -12.85938,-1.83984 -7.91015,0 -16.1914,1.54297 -20.23047,3.8789"
         id="path26" />
    </clipPath>
    <clipPath
       id="clip-26">
      <path
         clip-rule="nonzero"
         d="m 359,237 h 22 v 33 h -22 z m 0,0"
         id="path27" />
    </clipPath>
    <clipPath
       id="clip-27">
      <path
         clip-rule="nonzero"
         d="m 359.62109,240.90234 c -2.125,1.23047 -4.0039,0.8711 -6.53125,0.51172 -5.17187,-0.73437 -13.05468,-1.46875 -31.2539,11.40625 0,0 -31.65625,0.85938 -40.16407,4.34375 -8.51171,3.48438 -21.10546,11.98828 -11.23437,13.01172 3.92187,0.41016 8.58203,-0.89453 13.63281,-2.19922 7.65235,-1.97265 16.19922,-3.94531 24.4375,0.0274 6.91016,3.33984 13.89844,1.33203 20.30469,-0.67579 6.26172,-1.96093 11.96875,-3.92187 16.51172,-0.89453 5.63281,3.75782 15.88672,1.55078 24.85937,-0.66015 5.66407,-1.39063 10.8125,-2.78516 13.96875,-2.67969 8.14844,0.27734 19.37891,1.47656 30.61328,-5.92969 11.23438,-7.41015 15.66016,-2.02344 9.19141,-10.84375 -6.46875,-8.82031 -21.98828,-4.05469 -31.24609,-7.45703 -3.48047,-1.27734 -8.10157,-1.83984 -12.85938,-1.83984 -7.91015,0 -16.1914,1.54297 -20.23047,3.8789"
         id="path28" />
    </clipPath>
    <clipPath
       id="clip-28">
      <path
         clip-rule="nonzero"
         d="m 337,237 h 21 v 34 h -21 z m 0,0"
         id="path29" />
    </clipPath>
    <clipPath
       id="clip-29">
      <path
         clip-rule="nonzero"
         d="m 359.62109,240.90234 c -2.125,1.23047 -4.0039,0.8711 -6.53125,0.51172 -5.17187,-0.73437 -13.05468,-1.46875 -31.2539,11.40625 0,0 -31.65625,0.85938 -40.16407,4.34375 -8.51171,3.48438 -21.10546,11.98828 -11.23437,13.01172 3.92187,0.41016 8.58203,-0.89453 13.63281,-2.19922 7.65235,-1.97265 16.19922,-3.94531 24.4375,0.0274 6.91016,3.33984 13.89844,1.33203 20.30469,-0.67579 6.26172,-1.96093 11.96875,-3.92187 16.51172,-0.89453 5.63281,3.75782 15.88672,1.55078 24.85937,-0.66015 5.66407,-1.39063 10.8125,-2.78516 13.96875,-2.67969 8.14844,0.27734 19.37891,1.47656 30.61328,-5.92969 11.23438,-7.41015 15.66016,-2.02344 9.19141,-10.84375 -6.46875,-8.82031 -21.98828,-4.05469 -31.24609,-7.45703 -3.48047,-1.27734 -8.10157,-1.83984 -12.85938,-1.83984 -7.91015,0 -16.1914,1.54297 -20.23047,3.8789"
         id="path30" />
    </clipPath>
    <clipPath
       id="clip-30">
      <path
         clip-rule="nonzero"
         d="m 317,242 h 17 v 29 h -17 z m 0,0"
         id="path31" />
    </clipPath>
    <clipPath
       id="clip-31">
      <path
         clip-rule="nonzero"
         d="m 359.62109,240.90234 c -2.125,1.23047 -4.0039,0.8711 -6.53125,0.51172 -5.17187,-0.73437 -13.05468,-1.46875 -31.2539,11.40625 0,0 -31.65625,0.85938 -40.16407,4.34375 -8.51171,3.48438 -21.10546,11.98828 -11.23437,13.01172 3.92187,0.41016 8.58203,-0.89453 13.63281,-2.19922 7.65235,-1.97265 16.19922,-3.94531 24.4375,0.0274 6.91016,3.33984 13.89844,1.33203 20.30469,-0.67579 6.26172,-1.96093 11.96875,-3.92187 16.51172,-0.89453 5.63281,3.75782 15.88672,1.55078 24.85937,-0.66015 5.66407,-1.39063 10.8125,-2.78516 13.96875,-2.67969 8.14844,0.27734 19.37891,1.47656 30.61328,-5.92969 11.23438,-7.41015 15.66016,-2.02344 9.19141,-10.84375 -6.46875,-8.82031 -21.98828,-4.05469 -31.24609,-7.45703 -3.48047,-1.27734 -8.10157,-1.83984 -12.85938,-1.83984 -7.91015,0 -16.1914,1.54297 -20.23047,3.8789"
         id="path32" />
    </clipPath>
    <clipPath
       id="clip-32">
      <path
         clip-rule="nonzero"
         d="m 275,251 h 49 v 19 h -49 z m 0,0"
         id="path33" />
    </clipPath>
    <clipPath
       id="clip-33">
      <path
         clip-rule="nonzero"
         d="m 359.62109,240.90234 c -2.125,1.23047 -4.0039,0.8711 -6.53125,0.51172 -5.17187,-0.73437 -13.05468,-1.46875 -31.2539,11.40625 0,0 -31.65625,0.85938 -40.16407,4.34375 -8.51171,3.48438 -21.10546,11.98828 -11.23437,13.01172 3.92187,0.41016 8.58203,-0.89453 13.63281,-2.19922 7.65235,-1.97265 16.19922,-3.94531 24.4375,0.0274 6.91016,3.33984 13.89844,1.33203 20.30469,-0.67579 6.26172,-1.96093 11.96875,-3.92187 16.51172,-0.89453 5.63281,3.75782 15.88672,1.55078 24.85937,-0.66015 5.66407,-1.39063 10.8125,-2.78516 13.96875,-2.67969 8.14844,0.27734 19.37891,1.47656 30.61328,-5.92969 11.23438,-7.41015 15.66016,-2.02344 9.19141,-10.84375 -6.46875,-8.82031 -21.98828,-4.05469 -31.24609,-7.45703 -3.48047,-1.27734 -8.10157,-1.83984 -12.85938,-1.83984 -7.91015,0 -16.1914,1.54297 -20.23047,3.8789"
         id="path34" />
    </clipPath>
    <clipPath
       id="clip-34">
      <path
         clip-rule="nonzero"
         d="m 74,262 h 129 v 26 H 74 Z m 0,0"
         id="path35" />
    </clipPath>
    <clipPath
       id="clip-35">
      <path
         clip-rule="nonzero"
         d="m 139.91797,260.07031 c -8.51172,3.53516 -21.10547,0.12891 -38.125,6.59766 -17.019532,6.46875 -20.765626,11.36719 -28.593751,15.55469 -7.828125,4.1875 8.851562,8.27343 29.273441,7.59375 20.42578,-0.6836 29.27343,-3.06641 38.80468,-4.08594 4.01172,-0.42969 7.54297,0.58984 11.58203,1.60937 5.55469,1.39844 12.06641,2.79688 22.11719,0.4336 17.36328,-4.08594 15.66016,-12.59375 34.04297,-11.23438 18.37891,1.36328 17.69922,-6.125 8.84766,-9.53125 -8.84766,-3.40234 -24.16797,1.01953 -24.16797,1.01953 0,0 -6.46875,0.34375 -12.25391,-4.76172 -5.78515,-5.10937 -13.95703,-2.72265 -19.0625,-2.04296 -2.0664,0.27343 -4.74219,-0.4375 -7.76562,-1.15235 -2.5625,-0.60547 -5.37891,-1.21484 -8.27344,-1.21484 -2.12109,0 -4.28516,0.32812 -6.42578,1.21484"
         id="path36" />
    </clipPath>
    <clipPath
       id="clip-36">
      <path
         clip-rule="nonzero"
         d="m 77,276 h 22 v 3 H 77 Z m 0,0"
         id="path37" />
    </clipPath>
    <clipPath
       id="clip-37">
      <path
         clip-rule="nonzero"
         d="m 139.91797,260.07031 c -8.51172,3.53516 -21.10547,0.12891 -38.125,6.59766 -17.019532,6.46875 -20.765626,11.36719 -28.593751,15.55469 -7.828125,4.1875 8.851562,8.27343 29.273441,7.59375 20.42578,-0.6836 29.27343,-3.06641 38.80468,-4.08594 4.01172,-0.42969 7.54297,0.58984 11.58203,1.60937 5.55469,1.39844 12.06641,2.79688 22.11719,0.4336 17.36328,-4.08594 15.66016,-12.59375 34.04297,-11.23438 18.37891,1.36328 17.69922,-6.125 8.84766,-9.53125 -8.84766,-3.40234 -24.16797,1.01953 -24.16797,1.01953 0,0 -6.46875,0.34375 -12.25391,-4.76172 -5.78515,-5.10937 -13.95703,-2.72265 -19.0625,-2.04296 -2.0664,0.27343 -4.74219,-0.4375 -7.76562,-1.15235 -2.5625,-0.60547 -5.37891,-1.21484 -8.27344,-1.21484 -2.12109,0 -4.28516,0.32812 -6.42578,1.21484"
         id="path38" />
    </clipPath>
    <clipPath
       id="clip-38">
      <path
         clip-rule="nonzero"
         d="m 82,261 h 38 v 29 H 82 Z m 0,0"
         id="path39" />
    </clipPath>
    <clipPath
       id="clip-39">
      <path
         clip-rule="nonzero"
         d="m 139.91797,260.07031 c -8.51172,3.53516 -21.10547,0.12891 -38.125,6.59766 -17.019532,6.46875 -20.765626,11.36719 -28.593751,15.55469 -7.828125,4.1875 8.851562,8.27343 29.273441,7.59375 20.42578,-0.6836 29.27343,-3.06641 38.80468,-4.08594 4.01172,-0.42969 7.54297,0.58984 11.58203,1.60937 5.55469,1.39844 12.06641,2.79688 22.11719,0.4336 17.36328,-4.08594 15.66016,-12.59375 34.04297,-11.23438 18.37891,1.36328 17.69922,-6.125 8.84766,-9.53125 -8.84766,-3.40234 -24.16797,1.01953 -24.16797,1.01953 0,0 -6.46875,0.34375 -12.25391,-4.76172 -5.78515,-5.10937 -13.95703,-2.72265 -19.0625,-2.04296 -2.0664,0.27343 -4.74219,-0.4375 -7.76562,-1.15235 -2.5625,-0.60547 -5.37891,-1.21484 -8.27344,-1.21484 -2.12109,0 -4.28516,0.32812 -6.42578,1.21484"
         id="path40" />
    </clipPath>
    <clipPath
       id="clip-40">
      <path
         clip-rule="nonzero"
         d="m 114,258 h 26 v 32 h -26 z m 0,0"
         id="path41" />
    </clipPath>
    <clipPath
       id="clip-41">
      <path
         clip-rule="nonzero"
         d="m 139.91797,260.07031 c -8.51172,3.53516 -21.10547,0.12891 -38.125,6.59766 -17.019532,6.46875 -20.765626,11.36719 -28.593751,15.55469 -7.828125,4.1875 8.851562,8.27343 29.273441,7.59375 20.42578,-0.6836 29.27343,-3.06641 38.80468,-4.08594 4.01172,-0.42969 7.54297,0.58984 11.58203,1.60937 5.55469,1.39844 12.06641,2.79688 22.11719,0.4336 17.36328,-4.08594 15.66016,-12.59375 34.04297,-11.23438 18.37891,1.36328 17.69922,-6.125 8.84766,-9.53125 -8.84766,-3.40234 -24.16797,1.01953 -24.16797,1.01953 0,0 -6.46875,0.34375 -12.25391,-4.76172 -5.78515,-5.10937 -13.95703,-2.72265 -19.0625,-2.04296 -2.0664,0.27343 -4.74219,-0.4375 -7.76562,-1.15235 -2.5625,-0.60547 -5.37891,-1.21484 -8.27344,-1.21484 -2.12109,0 -4.28516,0.32812 -6.42578,1.21484"
         id="path42" />
    </clipPath>
    <clipPath
       id="clip-42">
      <path
         clip-rule="nonzero"
         d="m 138,258 h 28 v 32 h -28 z m 0,0"
         id="path43" />
    </clipPath>
    <clipPath
       id="clip-43">
      <path
         clip-rule="nonzero"
         d="m 139.91797,260.07031 c -8.51172,3.53516 -21.10547,0.12891 -38.125,6.59766 -17.019532,6.46875 -20.765626,11.36719 -28.593751,15.55469 -7.828125,4.1875 8.851562,8.27343 29.273441,7.59375 20.42578,-0.6836 29.27343,-3.06641 38.80468,-4.08594 4.01172,-0.42969 7.54297,0.58984 11.58203,1.60937 5.55469,1.39844 12.06641,2.79688 22.11719,0.4336 17.36328,-4.08594 15.66016,-12.59375 34.04297,-11.23438 18.37891,1.36328 17.69922,-6.125 8.84766,-9.53125 -8.84766,-3.40234 -24.16797,1.01953 -24.16797,1.01953 0,0 -6.46875,0.34375 -12.25391,-4.76172 -5.78515,-5.10937 -13.95703,-2.72265 -19.0625,-2.04296 -2.0664,0.27343 -4.74219,-0.4375 -7.76562,-1.15235 -2.5625,-0.60547 -5.37891,-1.21484 -8.27344,-1.21484 -2.12109,0 -4.28516,0.32812 -6.42578,1.21484"
         id="path44" />
    </clipPath>
    <clipPath
       id="clip-44">
      <path
         clip-rule="nonzero"
         d="m 166,258 h 20 v 32 h -20 z m 0,0"
         id="path45" />
    </clipPath>
    <clipPath
       id="clip-45">
      <path
         clip-rule="nonzero"
         d="m 139.91797,260.07031 c -8.51172,3.53516 -21.10547,0.12891 -38.125,6.59766 -17.019532,6.46875 -20.765626,11.36719 -28.593751,15.55469 -7.828125,4.1875 8.851562,8.27343 29.273441,7.59375 20.42578,-0.6836 29.27343,-3.06641 38.80468,-4.08594 4.01172,-0.42969 7.54297,0.58984 11.58203,1.60937 5.55469,1.39844 12.06641,2.79688 22.11719,0.4336 17.36328,-4.08594 15.66016,-12.59375 34.04297,-11.23438 18.37891,1.36328 17.69922,-6.125 8.84766,-9.53125 -8.84766,-3.40234 -24.16797,1.01953 -24.16797,1.01953 0,0 -6.46875,0.34375 -12.25391,-4.76172 -5.78515,-5.10937 -13.95703,-2.72265 -19.0625,-2.04296 -2.0664,0.27343 -4.74219,-0.4375 -7.76562,-1.15235 -2.5625,-0.60547 -5.37891,-1.21484 -8.27344,-1.21484 -2.12109,0 -4.28516,0.32812 -6.42578,1.21484"
         id="path46" />
    </clipPath>
    <clipPath
       id="clip-46">
      <path
         clip-rule="nonzero"
         d="m 183,269 h 41 v 7 h -41 z m 0,0"
         id="path47" />
    </clipPath>
    <clipPath
       id="clip-47">
      <path
         clip-rule="nonzero"
         d="m 139.91797,260.07031 c -8.51172,3.53516 -21.10547,0.12891 -38.125,6.59766 -17.019532,6.46875 -20.765626,11.36719 -28.593751,15.55469 -7.828125,4.1875 8.851562,8.27343 29.273441,7.59375 20.42578,-0.6836 29.27343,-3.06641 38.80468,-4.08594 4.01172,-0.42969 7.54297,0.58984 11.58203,1.60937 5.55469,1.39844 12.06641,2.79688 22.11719,0.4336 17.36328,-4.08594 15.66016,-12.59375 34.04297,-11.23438 18.37891,1.36328 17.69922,-6.125 8.84766,-9.53125 -8.84766,-3.40234 -24.16797,1.01953 -24.16797,1.01953 0,0 -6.46875,0.34375 -12.25391,-4.76172 -5.78515,-5.10937 -13.95703,-2.72265 -19.0625,-2.04296 -2.0664,0.27343 -4.74219,-0.4375 -7.76562,-1.15235 -2.5625,-0.60547 -5.37891,-1.21484 -8.27344,-1.21484 -2.12109,0 -4.28516,0.32812 -6.42578,1.21484"
         id="path48" />
    </clipPath>
    <clipPath
       id="clip-48">
      <path
         clip-rule="nonzero"
         d="m 27,176 h 77 v 26 H 27 Z m 0,0"
         id="path49" />
    </clipPath>
    <clipPath
       id="clip-49">
      <path
         clip-rule="nonzero"
         d="M 72.210938,129.67578 H 30.109375 c 0,0 -9.988281,37.71484 12.617188,66.26563 2.070312,3.03515 14.480468,5.36328 29.484375,5.36328 15.007812,0 27.417968,-2.32813 29.484372,-5.36328 22.60938,-28.55079 12.61719,-66.26563 12.61719,-66.26563 z m 0,0"
         id="path50" />
    </clipPath>
    <clipPath
       id="clip-50">
      <path
         clip-rule="nonzero"
         d="m 61,152 h 56 v 50 H 61 Z m 0,0"
         id="path51" />
    </clipPath>
    <clipPath
       id="clip-51">
      <path
         clip-rule="nonzero"
         d="M 72.210938,129.67578 H 30.109375 c 0,0 -9.988281,37.71484 12.617188,66.26563 2.070312,3.03515 14.480468,5.36328 29.484375,5.36328 15.007812,0 27.417968,-2.32813 29.484372,-5.36328 22.60938,-28.55079 12.61719,-66.26563 12.61719,-66.26563 z m 0,0"
         id="path52" />
    </clipPath>
    <clipPath
       id="clip-52">
      <path
         clip-rule="nonzero"
         d="m 27,129 h 58 v 37 H 27 Z m 0,0"
         id="path53" />
    </clipPath>
    <clipPath
       id="clip-53">
      <path
         clip-rule="nonzero"
         d="M 72.210938,129.67578 H 30.109375 c 0,0 -9.988281,37.71484 12.617188,66.26563 2.070312,3.03515 14.480468,5.36328 29.484375,5.36328 15.007812,0 27.417968,-2.32813 29.484372,-5.36328 22.60938,-28.55079 12.61719,-66.26563 12.61719,-66.26563 z m 0,0"
         id="path54" />
    </clipPath>
    <clipPath
       id="clip-54">
      <path
         clip-rule="nonzero"
         d="m 64,129 h 53 v 58 H 64 Z m 0,0"
         id="path55" />
    </clipPath>
    <clipPath
       id="clip-55">
      <path
         clip-rule="nonzero"
         d="M 72.210938,129.67578 H 30.109375 c 0,0 -9.988281,37.71484 12.617188,66.26563 2.070312,3.03515 14.480468,5.36328 29.484375,5.36328 15.007812,0 27.417968,-2.32813 29.484372,-5.36328 22.60938,-28.55079 12.61719,-66.26563 12.61719,-66.26563 z m 0,0"
         id="path56" />
    </clipPath>
    <clipPath
       id="clip-56">
      <path
         clip-rule="nonzero"
         d="m 30,129 h 85 v 10 H 30 Z m 0,0"
         id="path57" />
    </clipPath>
    <clipPath
       id="clip-57">
      <path
         clip-rule="nonzero"
         d="m 30.109375,129.67578 c 0,4.95313 18.851563,8.96484 42.101563,8.96484 23.253906,0 42.101562,-4.01171 42.101562,-8.96484 0,-4.95312 -18.847656,-8.96484 -42.101562,-8.96484 -23.25,0 -42.101563,4.01172 -42.101563,8.96484"
         id="path58" />
    </clipPath>
    <clipPath
       id="clip-58">
      <path
         clip-rule="nonzero"
         d="m 348,370 h 100 v 11 H 348 Z m 0,0"
         id="path59" />
    </clipPath>
    <clipPath
       id="clip-59">
      <path
         clip-rule="nonzero"
         d="m 348.47656,370.57422 c 0,5.39453 22.24219,9.76953 49.67578,9.76953 27.4375,0 49.67578,-4.375 49.67578,-9.76953 0,-5.39453 -22.23828,-9.76953 -49.67578,-9.76953 -27.43359,0 -49.67578,4.375 -49.67578,9.76953"
         id="path60" />
    </clipPath>
    <clipPath
       id="clip-60">
      <path
         clip-rule="nonzero"
         d="m 45,396 h 92 v 41 H 45 Z m 0,0"
         id="path61" />
    </clipPath>
    <clipPath
       id="clip-61">
      <path
         clip-rule="nonzero"
         d="m 45.511719,396.60937 v 53.92969 c 0,4.9375 20.34375,8.9375 45.445312,8.9375 25.097659,0 45.445309,-4 45.445309,-8.9375 v -53.92969 z m 0,0"
         id="path62" />
    </clipPath>
    <clipPath
       id="clip-62">
      <path
         clip-rule="nonzero"
         d="m 45,396 h 92 v 10 H 45 Z m 0,0"
         id="path63" />
    </clipPath>
    <clipPath
       id="clip-63">
      <path
         clip-rule="nonzero"
         d="m 45.511719,396.60937 c 0,4.9375 20.34375,8.9375 45.445312,8.9375 25.097659,0 45.445309,-4 45.445309,-8.9375 0,-4.93359 -20.34765,-8.9375 -45.445309,-8.9375 -25.101562,0 -45.445312,4.00391 -45.445312,8.9375"
         id="path64" />
    </clipPath>
  </defs>
  <path
     fill-rule="nonzero"
     fill="#ffc0b6"
     fill-opacity="1"
     d="m 37.536956,113.30789 c 0,1.5659 5.54325,2.83641 12.38117,2.83641 6.83792,0 12.38117,-1.27051 12.38117,-2.83641 0,-1.5659 -5.54325,-2.83642 -12.38117,-2.83642 -6.83792,0 -12.38117,1.27052 -12.38117,2.83642"
     id="path65"
     style="stroke-width:0.281116" />
  <path
     fill-rule="nonzero"
     fill="#f7e6db"
     fill-opacity="1"
     d="m 35.953486,89.386691 4.57472,23.144839 c 0,1.02014 4.20465,1.84701 9.38992,1.84701 5.18637,0 9.38993,-0.82687 9.38993,-1.84701 l 4.57472,-23.144839 z m 0,0"
     id="path66"
     style="stroke-width:0.281116" />
  <path
     fill-rule="nonzero"
     fill="#fff0e9"
     fill-opacity="1"
     d="m 35.953486,89.386691 0.53587,3.95209 c 0,1.45829 6.01215,2.63986 13.42877,2.63986 7.41663,0 13.42877,-1.18157 13.42877,-2.63986 l 0.53588,-3.95209 z m 0,0"
     id="path67"
     style="stroke-width:0.281116" />
  <path
     fill-rule="nonzero"
     fill="#ffebdf"
     fill-opacity="1"
     d="m 63.882776,89.386691 c 0,1.51649 -6.25153,2.74637 -13.96465,2.74637 -7.71201,0 -13.96464,-1.22988 -13.96464,-2.74637 0,-1.51649 6.25263,-2.74637 13.96464,-2.74637 7.71312,0 13.96465,1.22988 13.96465,2.74637"
     id="path68"
     style="stroke-width:0.281116" />
  <g
     clip-path="url(#clip-0)"
     id="g70"
     transform="matrix(0.28111577,0,0,0.28111577,-20.023695,-14.787563)">
    <g
       clip-path="url(#clip-1)"
       id="g69">
      <path
         fill-rule="nonzero"
         fill="#7e402a"
         fill-opacity="1"
         d="m 298.47656,380.34375 c 0,5.39453 -22.23828,9.76562 -49.67578,9.76562 -27.43359,0 -49.67578,-4.37109 -49.67578,-9.76562 0,-5.39844 22.24219,-9.76953 49.67578,-9.76953 27.4375,0 49.67578,4.37109 49.67578,9.76953"
         id="path69" />
    </g>
  </g>
  <path
     fill-rule="nonzero"
     fill="#578e54"
     fill-opacity="1"
     d="m 35.649306,0.05337262 c 0,0 -2.87704,-0.0011 -5.49384,3.27565698 -2.616788,3.277854 -2.438895,2.042482 -4.527497,7.4660394 -2.0897,5.42246 -2.669501,8.356606 -2.881437,11.507079 -0.210836,3.150473 -0.764283,4.263955 0.398614,9.809403 1.162897,5.54435 1.076146,5.419165 2.512472,8.308289 1.437424,2.889123 0.819189,6.396481 1.797603,8.955071 0.979513,2.55969 2.736485,2.10178 3.035175,4.80642 0.29868,2.70574 2.18853,3.11973 4.76689,3.29323 2.57726,0.1724 3.87522,2.27309 6.42832,1.38911 2.5531,-0.88398 3.87083,-9.10991 3.87083,-9.10991 l -0.47438,-2.938538 c 0,0 0.85762,2.937438 3.06702,4.330938 2.2083,1.3935 4.00809,6.02093 7.44517,6.25044 3.43708,0.2306 2.46416,-3.85876 4.58461,-5.44552 2.12044,-1.58567 4.33094,-7.383686 2.60032,-11.623483 -1.72952,-4.239796 0.0231,-7.495688 -3.30311,-10.827349 -3.32507,-3.330563 -0.089,-7.142097 -4.60437,-11.376404 -2.53004,-2.375208 -2.37082,-4.762496 -5.85182,-7.201395 -3.481,-2.4388994 -4.39463,-11.70693438 -13.37057,-10.86907738"
     id="path70"
     style="stroke-width:0.281116" />
  <g
     clip-path="url(#clip-2)"
     id="g72"
     transform="matrix(0.28111577,0,0,0.28111577,-20.023695,-14.787563)">
    <g
       clip-path="url(#clip-3)"
       id="g71">
      <path
         fill="none"
         stroke-width="0.967"
         stroke-linecap="round"
         stroke-linejoin="round"
         stroke="#00522b"
         stroke-opacity="1"
         stroke-miterlimit="10"
         d="m -2.5625e-4,1.875e-4 c 0,0 17.56640625,6.9648435 27.17968725,20.8437505 9.613281,13.875 19.855469,26.757812 19.855469,26.757812 0,0 14.402344,-14.394531 36.421875,-19.265625 22.019535,-4.871094 25.312495,-9.003906 25.312495,-9.003906"
         transform="matrix(1,0,0,-1,183.3401,257.1955)"
         id="path71" />
    </g>
  </g>
  <g
     clip-path="url(#clip-4)"
     id="g74"
     transform="matrix(0.28111577,0,0,0.28111577,-20.023695,-14.787563)">
    <g
       clip-path="url(#clip-5)"
       id="g73">
      <path
         fill="none"
         stroke-width="0.967"
         stroke-linecap="round"
         stroke-linejoin="round"
         stroke="#00522b"
         stroke-opacity="1"
         stroke-miterlimit="10"
         d="m 0.00121875,-7.875e-4 c 0,0 9.23046825,7.4414065 29.06250025,11.8125005 19.835937,4.375 28.140625,20.382812 28.140625,20.382812 0,0 6.46875,-6.144531 26.644531,-8.851562 20.171875,-2.707032 47.027345,-6.949219 47.027345,-6.949219"
         transform="matrix(1,0,0,-1,169.8855,230.4289)"
         id="path72" />
    </g>
  </g>
  <g
     clip-path="url(#clip-6)"
     id="g76"
     transform="matrix(0.28111577,0,0,0.28111577,-20.023695,-14.787563)">
    <g
       clip-path="url(#clip-7)"
       id="g75">
      <path
         fill="none"
         stroke-width="0.967"
         stroke-linecap="round"
         stroke-linejoin="round"
         stroke="#00522b"
         stroke-opacity="1"
         stroke-miterlimit="10"
         d="m -0.0017875,-0.001225 c 0,0 -23.6679685,3.214844 -38.8007815,0.15625 -15.128906,-3.058594 -32.0625,-4.636719 -32.0625,-4.636719 0,0 -8.039062,-6.566406 -22.214843,-7.492187 -14.175778,-0.929688 -41.851558,-8.949219 -41.851558,-8.949219"
         transform="matrix(1,0,0,-1,296.3221,187.1394)"
         id="path74" />
    </g>
  </g>
  <g
     clip-path="url(#clip-8)"
     id="g78"
     transform="matrix(0.28111577,0,0,0.28111577,-20.023695,-14.787563)">
    <g
       clip-path="url(#clip-9)"
       id="g77">
      <path
         fill="none"
         stroke-width="0.967"
         stroke-linecap="round"
         stroke-linejoin="round"
         stroke="#00522b"
         stroke-opacity="1"
         stroke-miterlimit="10"
         d="m 7.125e-4,-0.00170625 c 0,0 14.5781245,12.24218725 45.9296875,5.01171925 31.355469,-7.234375 41.203125,-0.773438 58.97266,9.257812 17.76953,10.027344 36.75781,9.824219 36.75781,9.824219"
         transform="matrix(1,0,0,-1,150.2571,183.8147)"
         id="path76" />
    </g>
  </g>
  <g
     clip-path="url(#clip-10)"
     id="g80"
     transform="matrix(0.28111577,0,0,0.28111577,-20.023695,-14.787563)">
    <g
       clip-path="url(#clip-11)"
       id="g79">
      <path
         fill="none"
         stroke-width="0.967"
         stroke-linecap="round"
         stroke-linejoin="round"
         stroke="#00522b"
         stroke-opacity="1"
         stroke-miterlimit="10"
         d="m 0.00123125,-7.1875e-4 c 0,0 -17.06640625,0.66015575 -35.08203125,-13.02343725 -18.011719,-13.683594 -21.4375,-16.167969 -44.546875,-12.722657 -23.109375,3.449219 -56.792965,2.988282 -56.792965,2.988282"
         transform="matrix(1,0,0,-1,280.0183,134.886)"
         id="path78" />
    </g>
  </g>
  <g
     clip-path="url(#clip-12)"
     id="g82"
     transform="matrix(0.28111577,0,0,0.28111577,-20.023695,-14.787563)">
    <g
       clip-path="url(#clip-13)"
       id="g81">
      <path
         fill="none"
         stroke-width="0.967"
         stroke-linecap="round"
         stroke-linejoin="round"
         stroke="#00522b"
         stroke-opacity="1"
         stroke-miterlimit="10"
         d="m 0.00163125,7.375e-4 c 0,0 12.07421875,14.3710935 41.00390675,0.3554685 28.929687,-14.011718 34.925781,-9.390625 48.050781,4.25 13.128911,13.640625 35.195311,18.945313 35.195311,18.945313"
         transform="matrix(1,0,0,-1,145.0179,136.4148)"
         id="path80" />
    </g>
  </g>
  <g
     clip-path="url(#clip-14)"
     id="g84"
     transform="matrix(0.28111577,0,0,0.28111577,-20.023695,-14.787563)">
    <g
       clip-path="url(#clip-15)"
       id="g83">
      <path
         fill="none"
         stroke-width="0.967"
         stroke-linecap="round"
         stroke-linejoin="round"
         stroke="#00522b"
         stroke-opacity="1"
         stroke-miterlimit="10"
         d="m 1.8125e-4,-2.3125e-4 c 0,0 -14.55078125,-2.49609375 -25.81250025,-20.69531275 -11.261719,-18.199218 -42.976562,-5.492187 -77.613281,8.226563"
         transform="matrix(1,0,0,-1,255.7381,92.0193)"
         id="path82" />
    </g>
  </g>
  <g
     clip-path="url(#clip-16)"
     id="g86"
     transform="matrix(0.28111577,0,0,0.28111577,-20.023695,-14.787563)">
    <g
       clip-path="url(#clip-17)"
       id="g85">
      <path
         fill="none"
         stroke-width="0.967"
         stroke-linecap="round"
         stroke-linejoin="round"
         stroke="#00522b"
         stroke-opacity="1"
         stroke-miterlimit="10"
         d="m 0.0011875,-0.00171875 c 0,0 34.1953125,-12.14062525 46.6445315,-26.84375025 9.941406,16.679688 33.296875,29.066406 33.296875,29.066406"
         transform="matrix(1,0,0,-1,162.866,80.635)"
         id="path84" />
    </g>
  </g>
  <g
     clip-path="url(#clip-18)"
     id="g88"
     transform="matrix(0.28111577,0,0,0.28111577,-20.023695,-14.787563)">
    <g
       clip-path="url(#clip-19)"
       id="g87">
      <path
         fill="none"
         stroke-width="0.967"
         stroke-linecap="round"
         stroke-linejoin="round"
         stroke="#00522b"
         stroke-opacity="1"
         stroke-miterlimit="10"
         d="m -3.0625e-4,-0.00171875 c 0,0 19.17187525,-8.28125025 31.98437525,-21.82031225 11.035156,19.816406 28.730469,20.613281 28.730469,20.613281"
         transform="matrix(1,0,0,-1,171.9339,62.76)"
         id="path86" />
    </g>
  </g>
  <path
     fill-rule="nonzero"
     fill="#153011"
     fill-opacity="1"
     d="m 38.065146,61.899941 -1.34079,0.57431 c 10.81417,9.47228 12.63154,22.83407 12.63154,22.83407 h 2.1479 c -3.59411,-18.98191 -13.43865,-23.40838 -13.43865,-23.40838"
     id="path88"
     style="stroke-width:0.281116" />
  <path
     fill-rule="nonzero"
     fill="#05542e"
     fill-opacity="1"
     d="m 36.659566,6.4498536 c 0,0 4.61755,26.2041634 7.79328,42.9129774 3.17573,16.70772 3.8895,43.28634 3.8895,43.28634 l 3.73686,0.18009 c 0,0 -0.58859,-19.97789 -5.98579,-45.37164 -5.39611,-25.392664 -9.43385,-41.0077674 -9.43385,-41.0077674"
     id="path89"
     style="stroke-width:0.281116" />
  <path
     fill-rule="nonzero"
     fill="#153011"
     fill-opacity="1"
     d="m 64.995156,57.505311 c 0,0 -14.15791,10.89873 -14.15791,34.5992 h 3.17243 c 0,0 -2.41034,-16.01262 10.98548,-33.42862 z m 0,0"
     id="path90"
     style="stroke-width:0.281116" />
  <path
     fill-rule="nonzero"
     fill="#578e54"
     fill-opacity="1"
     d="m 70.449466,56.284211 c 0,0 -8.89908,0.24159 -11.29076,1.2211 -2.39277,0.97951 -5.93308,3.37009 -3.15816,3.6578 2.77492,0.2877 6.85879,-2.46526 10.70217,-0.61055 3.84228,1.8558 7.76582,-2.16437 10.34967,-0.44144 2.58385,1.72293 8.62455,-1.01685 10.9152,-0.93888 2.29065,0.078 5.44772,0.41508 8.60588,-1.66693 3.15816,-2.08311 4.402314,-0.56882 2.58385,-3.04835 -1.81847,-2.47953 -6.18126,-1.13984 -8.78487,-2.09629 -2.60252,-0.95755 -7.48251,-0.47877 -9.30098,0.57431 -1.81847,1.05199 -3.00443,-2.03809 -10.622,3.34923"
     id="path91"
     style="stroke-width:0.281116" />
  <g
     clip-path="url(#clip-20)"
     id="g93"
     transform="matrix(0.28111577,0,0,0.28111577,-20.023695,-14.787563)">
    <g
       clip-path="url(#clip-21)"
       id="g92">
      <path
         fill="none"
         stroke-width="0.967"
         stroke-linecap="round"
         stroke-linejoin="round"
         stroke="#00522b"
         stroke-opacity="1"
         stroke-miterlimit="10"
         d="m -0.00175625,-0.0017375 c 0,0 -27.57812475,10.5117185 -53.62109375,3.7851565 -26.039062,-6.726563 -56.71875,-0.1875 -68.72266,6.121094"
         transform="matrix(1,0,0,-1,424.7791,255.4592)"
         id="path92" />
    </g>
  </g>
  <g
     clip-path="url(#clip-24)"
     id="g97"
     transform="matrix(0.28111577,0,0,0.28111577,-20.023695,-14.787563)">
    <g
       clip-path="url(#clip-25)"
       id="g96">
      <path
         fill="none"
         stroke-width="0.967"
         stroke-linecap="round"
         stroke-linejoin="round"
         stroke="#00522b"
         stroke-opacity="1"
         stroke-miterlimit="10"
         d="m 0.00116875,-0.0017125 c 0,0 -19.62890675,-12.3593745 -33.42968775,-18.4648435 14.675781,-3.636719 20.917969,-15.164063 20.917969,-15.164063"
         transform="matrix(1,0,0,-1,412.8543,231.6311)"
         id="path95" />
    </g>
  </g>
  <g
     clip-path="url(#clip-26)"
     id="g99"
     transform="matrix(0.28111577,0,0,0.28111577,-20.023695,-14.787563)">
    <g
       clip-path="url(#clip-27)"
       id="g98">
      <path
         fill="none"
         stroke-width="0.967"
         stroke-linecap="round"
         stroke-linejoin="round"
         stroke="#00522b"
         stroke-opacity="1"
         stroke-miterlimit="10"
         d="m 0.00119375,-7.75e-4 c 0,0 -21.91796875,-13.675781 -20.64843775,-19.832031 1.265625,-6.15625 14.59375,-14.550781 14.59375,-14.550781"
         transform="matrix(1,0,0,-1,380.4949,234.2961)"
         id="path97" />
    </g>
  </g>
  <g
     clip-path="url(#clip-28)"
     id="g101"
     transform="matrix(0.28111577,0,0,0.28111577,-20.023695,-14.787563)">
    <g
       clip-path="url(#clip-29)"
       id="g100">
      <path
         fill="none"
         stroke-width="0.967"
         stroke-linecap="round"
         stroke-linejoin="round"
         stroke="#00522b"
         stroke-opacity="1"
         stroke-miterlimit="10"
         d="m -8e-4,7.25e-4 c 0,0 -17.625,-10.152344 -15.835938,-17.246094 -8.023437,-10.730469 0.539063,-20.0625 0.539063,-20.0625"
         transform="matrix(1,0,0,-1,356.8758,237.1101)"
         id="path99" />
    </g>
  </g>
  <g
     clip-path="url(#clip-30)"
     id="g103"
     transform="matrix(0.28111577,0,0,0.28111577,-20.023695,-14.787563)">
    <g
       clip-path="url(#clip-31)"
       id="g102">
      <path
         fill="none"
         stroke-width="0.967"
         stroke-linecap="round"
         stroke-linejoin="round"
         stroke="#00522b"
         stroke-opacity="1"
         stroke-miterlimit="10"
         d="m 2.625e-4,-0.0017375 c 0,0 -3.0351565,16.9882815 11.2070315,23.6484375 6.917968,9.234375 0.703125,8.90625 0.703125,8.90625"
         transform="matrix(1,0,0,-1,318.1638,275.6467)"
         id="path101" />
    </g>
  </g>
  <g
     clip-path="url(#clip-32)"
     id="g105"
     transform="matrix(0.28111577,0,0,0.28111577,-20.023695,-14.787563)">
    <g
       clip-path="url(#clip-33)"
       id="g104">
      <path
         fill="none"
         stroke-width="0.967"
         stroke-linecap="round"
         stroke-linejoin="round"
         stroke="#00522b"
         stroke-opacity="1"
         stroke-miterlimit="10"
         d="m 0.00121875,-0.0018 c 0,0 -36.96093775,-8.675781 -46.57812475,-17.121094"
         transform="matrix(1,0,0,-1,323.0105,251.9982)"
         id="path103" />
    </g>
  </g>
  <path
     fill-rule="nonzero"
     fill="#578e54"
     fill-opacity="1"
     d="m 34.428206,60.560251 c 0,0 -1.81846,0.0955 -3.44476,-1.34079 -1.6263,-1.43413 -3.923544,-0.76429 -5.358771,-0.57322 -1.435228,0.19107 -3.923543,-1.31663 -6.315223,-0.32394 -2.392778,0.99379 -5.93308,0.0362 -10.717539,1.85471 -4.784458,1.81846 -5.837544,3.19549 -8.03815299,4.37266 -2.20060901,1.17718 2.48831299,2.3258 8.22922399,2.13473 5.74201,-0.19217 8.229225,-0.86202 10.90861,-1.14862 2.679385,-0.28661 4.593389,1.72293 9.473382,0.57431 4.88109,-1.14862 4.40232,-3.5414 9.57002,-3.15816 5.1666,0.38324 4.97552,-1.72184 2.48721,-2.67939 -2.48721,-0.95645 -6.794,0.28771 -6.794,0.28771"
     id="path105"
     style="stroke-width:0.281116" />
  <g
     clip-path="url(#clip-34)"
     id="g107"
     transform="matrix(0.28111577,0,0,0.28111577,-20.023695,-14.787563)">
    <g
       clip-path="url(#clip-35)"
       id="g106">
      <path
         fill="none"
         stroke-width="0.967"
         stroke-linecap="round"
         stroke-linejoin="round"
         stroke="#00522b"
         stroke-opacity="1"
         stroke-miterlimit="10"
         d="m 1.5e-4,0.00119375 c 0,0 25.363281,15.09375025 52.171875,12.94140625 26.808594,-2.148438 63.550785,3.230469 74.289065,11.507812"
         transform="matrix(1,0,0,-1,75.4061,287.3176)"
         id="path106" />
    </g>
  </g>
  <g
     clip-path="url(#clip-36)"
     id="g109"
     transform="matrix(0.28111577,0,0,0.28111577,-20.023695,-14.787563)">
    <g
       clip-path="url(#clip-37)"
       id="g108">
      <path
         fill="none"
         stroke-width="0.967"
         stroke-linecap="round"
         stroke-linejoin="round"
         stroke="#00522b"
         stroke-opacity="1"
         stroke-miterlimit="10"
         d="m 1.5625e-4,0.00113125 c 0,0 8.63281275,1.12109375 19.32031275,-1.19921825"
         transform="matrix(1,0,0,-1,78.3475,276.7941)"
         id="path107" />
    </g>
  </g>
  <g
     clip-path="url(#clip-38)"
     id="g111"
     transform="matrix(0.28111577,0,0,0.28111577,-20.023695,-14.787563)">
    <g
       clip-path="url(#clip-39)"
       id="g110">
      <path
         fill="none"
         stroke-width="0.967"
         stroke-linecap="round"
         stroke-linejoin="round"
         stroke="#00522b"
         stroke-opacity="1"
         stroke-miterlimit="10"
         d="m -0.0017125,0.00113125 c 0,0 21.4648435,-8.80468725 36.1093755,-12.44531225 -13.832032,-6.109375 -18,-18.535156 -18,-18.535156"
         transform="matrix(1,0,0,-1,83.0564,261.7941)"
         id="path109" />
    </g>
  </g>
  <g
     clip-path="url(#clip-40)"
     id="g113"
     transform="matrix(0.28111577,0,0,0.28111577,-20.023695,-14.787563)">
    <g
       clip-path="url(#clip-41)"
       id="g112">
      <path
         fill="none"
         stroke-width="0.967"
         stroke-linecap="round"
         stroke-linejoin="round"
         stroke="#00522b"
         stroke-opacity="1"
         stroke-miterlimit="10"
         d="m -0.001775,2.3125e-4 c 0,0 23.941406,-9.70703125 23.75,-15.98828125 -0.1875,-6.28125 -11.875,-16.84375 -11.875,-16.84375"
         transform="matrix(1,0,0,-1,115.3924,258.8557)"
         id="path111" />
    </g>
  </g>
  <g
     clip-path="url(#clip-42)"
     id="g115"
     transform="matrix(0.28111577,0,0,0.28111577,-20.023695,-14.787563)">
    <g
       clip-path="url(#clip-43)"
       id="g114">
      <path
         fill="none"
         stroke-width="0.967"
         stroke-linecap="round"
         stroke-linejoin="round"
         stroke="#00522b"
         stroke-opacity="1"
         stroke-miterlimit="10"
         d="m 0.00113125,0.00119375 c 0,0 22.01171875,-9.51171875 21.47265675,-16.80859375 9.746093,-9.191406 0.0078,-17.3125 0.0078,-17.3125"
         transform="matrix(1,0,0,-1,139.1434,257.5676)"
         id="path113" />
    </g>
  </g>
  <g
     clip-path="url(#clip-44)"
     id="g117"
     transform="matrix(0.28111577,0,0,0.28111577,-20.023695,-14.787563)">
    <g
       clip-path="url(#clip-45)"
       id="g116">
      <path
         fill="none"
         stroke-width="0.967"
         stroke-linecap="round"
         stroke-linejoin="round"
         stroke="#00522b"
         stroke-opacity="1"
         stroke-miterlimit="10"
         d="m 0.00165,2e-4 c 0,0 5.433594,12.785156 -9.742187,16.902344 -8.402344,7.90625 -7.589844,13.117187 -7.589844,13.117187"
         transform="matrix(1,0,0,-1,183.9046,288.8752)"
         id="path115" />
    </g>
  </g>
  <g
     clip-path="url(#clip-46)"
     id="g119"
     transform="matrix(0.28111577,0,0,0.28111577,-20.023695,-14.787563)">
    <g
       clip-path="url(#clip-47)"
       id="g118">
      <path
         fill="none"
         stroke-width="0.967"
         stroke-linecap="round"
         stroke-linejoin="round"
         stroke="#00522b"
         stroke-opacity="1"
         stroke-miterlimit="10"
         d="m 0.00113125,2.125e-4 c 0,0 29.13281275,1.3867185 40.05859375,-5.2773435"
         transform="matrix(1,0,0,-1,183.8309,269.9924)"
         id="path117" />
    </g>
  </g>
  <path
     fill-rule="nonzero"
     fill="#fff0e9"
     fill-opacity="1"
     d="m 49.918126,92.133061 c -7.46494,0 -13.56054,-1.15191 -13.94488,-2.60142 l 0.51611,3.80714 c 0,1.45829 6.01215,2.63986 13.42877,2.63986 7.41663,0 13.42877,-1.18157 13.42877,-2.63986 l 0.51611,-3.80714 c -0.38324,1.44951 -6.47994,2.60142 -13.94488,2.60142"
     id="path119"
     style="stroke-width:0.281116" />
  <path
     fill-rule="nonzero"
     fill="#fff0e9"
     fill-opacity="1"
     d="m 35.973246,89.531641 -0.0198,-0.14495 c 0,0.0483 0.007,0.0966 0.0198,0.14495"
     id="path120"
     style="stroke-width:0.281116" />
</svg>
