<?xml version="1.0" encoding="UTF-8" standalone="no"?>
<svg
   width="51.890221pt"
   height="100.00001pt"
   viewBox="0 0 51.890221 100.00001"
   version="1.1"
   id="svg341"
   sodipodi:docname="plant-1.svg"
   inkscape:version="1.3 (0e150ed6c4, 2023-07-21)"
   xmlns:inkscape="http://www.inkscape.org/namespaces/inkscape"
   xmlns:sodipodi="http://sodipodi.sourceforge.net/DTD/sodipodi-0.dtd"
   xmlns="http://www.w3.org/2000/svg"
   xmlns:svg="http://www.w3.org/2000/svg">
  <sodipodi:namedview
     id="namedview341"
     pagecolor="#ffffff"
     bordercolor="#000000"
     borderopacity="0.25"
     inkscape:showpageshadow="2"
     inkscape:pageopacity="0.0"
     inkscape:pagecheckerboard="0"
     inkscape:deskcolor="#d1d1d1"
     inkscape:document-units="pt"
     showgrid="false"
     inkscape:zoom="1.197"
     inkscape:cx="-5.0125313"
     inkscape:cy="133.6675"
     inkscape:window-width="1920"
     inkscape:window-height="1002"
     inkscape:window-x="-8"
     inkscape:window-y="-8"
     inkscape:window-maximized="1"
     inkscape:current-layer="svg341" />
  <defs
     id="defs64">
    <clipPath
       id="clip-0">
      <path
         clip-rule="nonzero"
         d="m 199,370 h 100 v 11 H 199 Z m 0,0"
         id="path1" />
    </clipPath>
    <clipPath
       id="clip-1">
      <path
         clip-rule="nonzero"
         d="m 199.125,370.57422 c 0,5.39453 22.24219,9.76953 49.67578,9.76953 27.4375,0 49.67578,-4.375 49.67578,-9.76953 0,-5.39453 -22.23828,-9.76953 -49.67578,-9.76953 -27.43359,0 -49.67578,4.375 -49.67578,9.76953"
         id="path2" />
    </clipPath>
    <clipPath
       id="clip-2">
      <path
         clip-rule="nonzero"
         d="m 182,209 h 111 v 49 H 182 Z m 0,0"
         id="path3" />
    </clipPath>
    <clipPath
       id="clip-3">
      <path
         clip-rule="nonzero"
         d="m 198.04297,52.789063 c 0,0 -10.23438,0 -19.54297,11.65625 -9.30859,11.660156 -8.67578,7.265625 -16.10547,26.558593 -7.43359,19.289064 -9.5,29.726564 -10.25,40.933594 -0.75,11.20703 -2.71875,15.16797 1.41797,34.89453 4.13672,19.72266 3.82812,19.27734 8.9375,29.55469 5.11328,10.27734 2.91406,22.7539 6.39844,31.85547 3.48437,9.10547 9.73437,7.47656 10.79297,17.09765 1.0625,9.625 7.78515,11.09766 16.95703,11.71485 9.16797,0.61328 13.78515,8.08593 22.86718,4.9414 9.08204,-3.14453 13.76954,-32.40625 13.76954,-32.40625 l -1.6875,-10.45312 c 0,0 3.05468,10.45312 10.91015,15.40625 7.85547,4.95312 14.25781,21.41797 26.48438,22.23437 12.22656,0.82032 8.76562,-13.72656 16.30859,-19.36718 7.54297,-5.64454 15.40625,-26.26954 9.25,-41.35157 -6.15234,-15.08203 0.082,-26.66406 -11.75,-38.51172 -11.82812,-11.85156 -0.31641,-25.41015 -16.37891,-40.47265 -9,-8.44922 -8.43359,-16.94141 -20.8164,-25.617189 -11.85156,-8.304687 -15.33985,-38.851562 -43.60156,-38.855468 -1.26954,0 -2.58594,0.0625 -3.96094,0.1875"
         id="path4" />
    </clipPath>
    <clipPath
       id="clip-4">
      <path
         clip-rule="nonzero"
         d="m 169,197 h 128 v 34 H 169 Z m 0,0"
         id="path5" />
    </clipPath>
    <clipPath
       id="clip-5">
      <path
         clip-rule="nonzero"
         d="m 198.04297,52.789063 c 0,0 -10.23438,0 -19.54297,11.65625 -9.30859,11.660156 -8.67578,7.265625 -16.10547,26.558593 -7.43359,19.289064 -9.5,29.726564 -10.25,40.933594 -0.75,11.20703 -2.71875,15.16797 1.41797,34.89453 4.13672,19.72266 3.82812,19.27734 8.9375,29.55469 5.11328,10.27734 2.91406,22.7539 6.39844,31.85547 3.48437,9.10547 9.73437,7.47656 10.79297,17.09765 1.0625,9.625 7.78515,11.09766 16.95703,11.71485 9.16797,0.61328 13.78515,8.08593 22.86718,4.9414 9.08204,-3.14453 13.76954,-32.40625 13.76954,-32.40625 l -1.6875,-10.45312 c 0,0 3.05468,10.45312 10.91015,15.40625 7.85547,4.95312 14.25781,21.41797 26.48438,22.23437 12.22656,0.82032 8.76562,-13.72656 16.30859,-19.36718 7.54297,-5.64454 15.40625,-26.26954 9.25,-41.35157 -6.15234,-15.08203 0.082,-26.66406 -11.75,-38.51172 -11.82812,-11.85156 -0.31641,-25.41015 -16.37891,-40.47265 -9,-8.44922 -8.43359,-16.94141 -20.8164,-25.617189 -11.85156,-8.304687 -15.33985,-38.851562 -43.60156,-38.855468 -1.26954,0 -2.58594,0.0625 -3.96094,0.1875"
         id="path6" />
    </clipPath>
    <clipPath
       id="clip-6">
      <path
         clip-rule="nonzero"
         d="m 160,185 h 137 v 24 H 160 Z m 0,0"
         id="path7" />
    </clipPath>
    <clipPath
       id="clip-7">
      <path
         clip-rule="nonzero"
         d="m 198.04297,52.789063 c 0,0 -10.23438,0 -19.54297,11.65625 -9.30859,11.660156 -8.67578,7.265625 -16.10547,26.558593 -7.43359,19.289064 -9.5,29.726564 -10.25,40.933594 -0.75,11.20703 -2.71875,15.16797 1.41797,34.89453 4.13672,19.72266 3.82812,19.27734 8.9375,29.55469 5.11328,10.27734 2.91406,22.7539 6.39844,31.85547 3.48437,9.10547 9.73437,7.47656 10.79297,17.09765 1.0625,9.625 7.78515,11.09766 16.95703,11.71485 9.16797,0.61328 13.78515,8.08593 22.86718,4.9414 9.08204,-3.14453 13.76954,-32.40625 13.76954,-32.40625 l -1.6875,-10.45312 c 0,0 3.05468,10.45312 10.91015,15.40625 7.85547,4.95312 14.25781,21.41797 26.48438,22.23437 12.22656,0.82032 8.76562,-13.72656 16.30859,-19.36718 7.54297,-5.64454 15.40625,-26.26954 9.25,-41.35157 -6.15234,-15.08203 0.082,-26.66406 -11.75,-38.51172 -11.82812,-11.85156 -0.31641,-25.41015 -16.37891,-40.47265 -9,-8.44922 -8.43359,-16.94141 -20.8164,-25.617189 -11.85156,-8.304687 -15.33985,-38.851562 -43.60156,-38.855468 -1.26954,0 -2.58594,0.0625 -3.96094,0.1875"
         id="path8" />
    </clipPath>
    <clipPath
       id="clip-8">
      <path
         clip-rule="nonzero"
         d="m 151,159 h 142 v 26 H 151 Z m 0,0"
         id="path9" />
    </clipPath>
    <clipPath
       id="clip-9">
      <path
         clip-rule="nonzero"
         d="m 198.04297,52.789063 c 0,0 -10.23438,0 -19.54297,11.65625 -9.30859,11.660156 -8.67578,7.265625 -16.10547,26.558593 -7.43359,19.289064 -9.5,29.726564 -10.25,40.933594 -0.75,11.20703 -2.71875,15.16797 1.41797,34.89453 4.13672,19.72266 3.82812,19.27734 8.9375,29.55469 5.11328,10.27734 2.91406,22.7539 6.39844,31.85547 3.48437,9.10547 9.73437,7.47656 10.79297,17.09765 1.0625,9.625 7.78515,11.09766 16.95703,11.71485 9.16797,0.61328 13.78515,8.08593 22.86718,4.9414 9.08204,-3.14453 13.76954,-32.40625 13.76954,-32.40625 l -1.6875,-10.45312 c 0,0 3.05468,10.45312 10.91015,15.40625 7.85547,4.95312 14.25781,21.41797 26.48438,22.23437 12.22656,0.82032 8.76562,-13.72656 16.30859,-19.36718 7.54297,-5.64454 15.40625,-26.26954 9.25,-41.35157 -6.15234,-15.08203 0.082,-26.66406 -11.75,-38.51172 -11.82812,-11.85156 -0.31641,-25.41015 -16.37891,-40.47265 -9,-8.44922 -8.43359,-16.94141 -20.8164,-25.617189 -11.85156,-8.304687 -15.33985,-38.851562 -43.60156,-38.855468 -1.26954,0 -2.58594,0.0625 -3.96094,0.1875"
         id="path10" />
    </clipPath>
    <clipPath
       id="clip-10">
      <path
         clip-rule="nonzero"
         d="m 151,134 h 130 v 29 H 151 Z m 0,0"
         id="path11" />
    </clipPath>
    <clipPath
       id="clip-11">
      <path
         clip-rule="nonzero"
         d="m 198.04297,52.789063 c 0,0 -10.23438,0 -19.54297,11.65625 -9.30859,11.660156 -8.67578,7.265625 -16.10547,26.558593 -7.43359,19.289064 -9.5,29.726564 -10.25,40.933594 -0.75,11.20703 -2.71875,15.16797 1.41797,34.89453 4.13672,19.72266 3.82812,19.27734 8.9375,29.55469 5.11328,10.27734 2.91406,22.7539 6.39844,31.85547 3.48437,9.10547 9.73437,7.47656 10.79297,17.09765 1.0625,9.625 7.78515,11.09766 16.95703,11.71485 9.16797,0.61328 13.78515,8.08593 22.86718,4.9414 9.08204,-3.14453 13.76954,-32.40625 13.76954,-32.40625 l -1.6875,-10.45312 c 0,0 3.05468,10.45312 10.91015,15.40625 7.85547,4.95312 14.25781,21.41797 26.48438,22.23437 12.22656,0.82032 8.76562,-13.72656 16.30859,-19.36718 7.54297,-5.64454 15.40625,-26.26954 9.25,-41.35157 -6.15234,-15.08203 0.082,-26.66406 -11.75,-38.51172 -11.82812,-11.85156 -0.31641,-25.41015 -16.37891,-40.47265 -9,-8.44922 -8.43359,-16.94141 -20.8164,-25.617189 -11.85156,-8.304687 -15.33985,-38.851562 -43.60156,-38.855468 -1.26954,0 -2.58594,0.0625 -3.96094,0.1875"
         id="path12" />
    </clipPath>
    <clipPath
       id="clip-12">
      <path
         clip-rule="nonzero"
         d="m 151,112 h 119 v 34 H 151 Z m 0,0"
         id="path13" />
    </clipPath>
    <clipPath
       id="clip-13">
      <path
         clip-rule="nonzero"
         d="m 198.04297,52.789063 c 0,0 -10.23438,0 -19.54297,11.65625 -9.30859,11.660156 -8.67578,7.265625 -16.10547,26.558593 -7.43359,19.289064 -9.5,29.726564 -10.25,40.933594 -0.75,11.20703 -2.71875,15.16797 1.41797,34.89453 4.13672,19.72266 3.82812,19.27734 8.9375,29.55469 5.11328,10.27734 2.91406,22.7539 6.39844,31.85547 3.48437,9.10547 9.73437,7.47656 10.79297,17.09765 1.0625,9.625 7.78515,11.09766 16.95703,11.71485 9.16797,0.61328 13.78515,8.08593 22.86718,4.9414 9.08204,-3.14453 13.76954,-32.40625 13.76954,-32.40625 l -1.6875,-10.45312 c 0,0 3.05468,10.45312 10.91015,15.40625 7.85547,4.95312 14.25781,21.41797 26.48438,22.23437 12.22656,0.82032 8.76562,-13.72656 16.30859,-19.36718 7.54297,-5.64454 15.40625,-26.26954 9.25,-41.35157 -6.15234,-15.08203 0.082,-26.66406 -11.75,-38.51172 -11.82812,-11.85156 -0.31641,-25.41015 -16.37891,-40.47265 -9,-8.44922 -8.43359,-16.94141 -20.8164,-25.617189 -11.85156,-8.304687 -15.33985,-38.851562 -43.60156,-38.855468 -1.26954,0 -2.58594,0.0625 -3.96094,0.1875"
         id="path14" />
    </clipPath>
    <clipPath
       id="clip-14">
      <path
         clip-rule="nonzero"
         d="m 151,91 h 106 v 32 H 151 Z m 0,0"
         id="path15" />
    </clipPath>
    <clipPath
       id="clip-15">
      <path
         clip-rule="nonzero"
         d="m 198.04297,52.789063 c 0,0 -10.23438,0 -19.54297,11.65625 -9.30859,11.660156 -8.67578,7.265625 -16.10547,26.558593 -7.43359,19.289064 -9.5,29.726564 -10.25,40.933594 -0.75,11.20703 -2.71875,15.16797 1.41797,34.89453 4.13672,19.72266 3.82812,19.27734 8.9375,29.55469 5.11328,10.27734 2.91406,22.7539 6.39844,31.85547 3.48437,9.10547 9.73437,7.47656 10.79297,17.09765 1.0625,9.625 7.78515,11.09766 16.95703,11.71485 9.16797,0.61328 13.78515,8.08593 22.86718,4.9414 9.08204,-3.14453 13.76954,-32.40625 13.76954,-32.40625 l -1.6875,-10.45312 c 0,0 3.05468,10.45312 10.91015,15.40625 7.85547,4.95312 14.25781,21.41797 26.48438,22.23437 12.22656,0.82032 8.76562,-13.72656 16.30859,-19.36718 7.54297,-5.64454 15.40625,-26.26954 9.25,-41.35157 -6.15234,-15.08203 0.082,-26.66406 -11.75,-38.51172 -11.82812,-11.85156 -0.31641,-25.41015 -16.37891,-40.47265 -9,-8.44922 -8.43359,-16.94141 -20.8164,-25.617189 -11.85156,-8.304687 -15.33985,-38.851562 -43.60156,-38.855468 -1.26954,0 -2.58594,0.0625 -3.96094,0.1875"
         id="path16" />
    </clipPath>
    <clipPath
       id="clip-16">
      <path
         clip-rule="nonzero"
         d="m 162,77 h 82 v 31 h -82 z m 0,0"
         id="path17" />
    </clipPath>
    <clipPath
       id="clip-17">
      <path
         clip-rule="nonzero"
         d="m 198.04297,52.789063 c 0,0 -10.23438,0 -19.54297,11.65625 -9.30859,11.660156 -8.67578,7.265625 -16.10547,26.558593 -7.43359,19.289064 -9.5,29.726564 -10.25,40.933594 -0.75,11.20703 -2.71875,15.16797 1.41797,34.89453 4.13672,19.72266 3.82812,19.27734 8.9375,29.55469 5.11328,10.27734 2.91406,22.7539 6.39844,31.85547 3.48437,9.10547 9.73437,7.47656 10.79297,17.09765 1.0625,9.625 7.78515,11.09766 16.95703,11.71485 9.16797,0.61328 13.78515,8.08593 22.86718,4.9414 9.08204,-3.14453 13.76954,-32.40625 13.76954,-32.40625 l -1.6875,-10.45312 c 0,0 3.05468,10.45312 10.91015,15.40625 7.85547,4.95312 14.25781,21.41797 26.48438,22.23437 12.22656,0.82032 8.76562,-13.72656 16.30859,-19.36718 7.54297,-5.64454 15.40625,-26.26954 9.25,-41.35157 -6.15234,-15.08203 0.082,-26.66406 -11.75,-38.51172 -11.82812,-11.85156 -0.31641,-25.41015 -16.37891,-40.47265 -9,-8.44922 -8.43359,-16.94141 -20.8164,-25.617189 -11.85156,-8.304687 -15.33985,-38.851562 -43.60156,-38.855468 -1.26954,0 -2.58594,0.0625 -3.96094,0.1875"
         id="path18" />
    </clipPath>
    <clipPath
       id="clip-18">
      <path
         clip-rule="nonzero"
         d="m 171,62 h 63 v 24 h -63 z m 0,0"
         id="path19" />
    </clipPath>
    <clipPath
       id="clip-19">
      <path
         clip-rule="nonzero"
         d="m 198.04297,52.789063 c 0,0 -10.23438,0 -19.54297,11.65625 -9.30859,11.660156 -8.67578,7.265625 -16.10547,26.558593 -7.43359,19.289064 -9.5,29.726564 -10.25,40.933594 -0.75,11.20703 -2.71875,15.16797 1.41797,34.89453 4.13672,19.72266 3.82812,19.27734 8.9375,29.55469 5.11328,10.27734 2.91406,22.7539 6.39844,31.85547 3.48437,9.10547 9.73437,7.47656 10.79297,17.09765 1.0625,9.625 7.78515,11.09766 16.95703,11.71485 9.16797,0.61328 13.78515,8.08593 22.86718,4.9414 9.08204,-3.14453 13.76954,-32.40625 13.76954,-32.40625 l -1.6875,-10.45312 c 0,0 3.05468,10.45312 10.91015,15.40625 7.85547,4.95312 14.25781,21.41797 26.48438,22.23437 12.22656,0.82032 8.76562,-13.72656 16.30859,-19.36718 7.54297,-5.64454 15.40625,-26.26954 9.25,-41.35157 -6.15234,-15.08203 0.082,-26.66406 -11.75,-38.51172 -11.82812,-11.85156 -0.31641,-25.41015 -16.37891,-40.47265 -9,-8.44922 -8.43359,-16.94141 -20.8164,-25.617189 -11.85156,-8.304687 -15.33985,-38.851562 -43.60156,-38.855468 -1.26954,0 -2.58594,0.0625 -3.96094,0.1875"
         id="path20" />
    </clipPath>
    <clipPath
       id="clip-20">
      <path
         clip-rule="nonzero"
         d="m 301,245 h 125 v 11 H 301 Z m 0,0"
         id="path21" />
    </clipPath>
    <clipPath
       id="clip-21">
      <path
         clip-rule="nonzero"
         d="m 359.62109,240.90234 c -2.125,1.23047 -4.0039,0.8711 -6.53125,0.51172 -5.17187,-0.73437 -13.05468,-1.46875 -31.2539,11.40625 0,0 -31.65625,0.85938 -40.16407,4.34375 -8.51171,3.48438 -21.10546,11.98828 -11.23437,13.01172 3.92187,0.41016 8.58203,-0.89453 13.63281,-2.19922 7.65235,-1.97265 16.19922,-3.94531 24.4375,0.0274 6.91016,3.33984 13.89844,1.33203 20.30469,-0.67579 6.26172,-1.96093 11.96875,-3.92187 16.51172,-0.89453 5.63281,3.75782 15.88672,1.55078 24.85937,-0.66015 5.66407,-1.39063 10.8125,-2.78516 13.96875,-2.67969 8.14844,0.27734 19.37891,1.47656 30.61328,-5.92969 11.23438,-7.41015 15.66016,-2.02344 9.19141,-10.84375 -6.46875,-8.82031 -21.98828,-4.05469 -31.24609,-7.45703 -3.48047,-1.27734 -8.10157,-1.83984 -12.85938,-1.83984 -7.91015,0 -16.1914,1.54297 -20.23047,3.8789"
         id="path22" />
    </clipPath>
    <clipPath
       id="clip-22">
      <path
         clip-rule="nonzero"
         d="m 400,239 h 27 v 12 h -27 z m 0,0"
         id="path23" />
    </clipPath>
    <clipPath
       id="clip-23">
      <path
         clip-rule="nonzero"
         d="m 359.62109,240.90234 c -2.125,1.23047 -4.0039,0.8711 -6.53125,0.51172 -5.17187,-0.73437 -13.05468,-1.46875 -31.2539,11.40625 0,0 -31.65625,0.85938 -40.16407,4.34375 -8.51171,3.48438 -21.10546,11.98828 -11.23437,13.01172 3.92187,0.41016 8.58203,-0.89453 13.63281,-2.19922 7.65235,-1.97265 16.19922,-3.94531 24.4375,0.0274 6.91016,3.33984 13.89844,1.33203 20.30469,-0.67579 6.26172,-1.96093 11.96875,-3.92187 16.51172,-0.89453 5.63281,3.75782 15.88672,1.55078 24.85937,-0.66015 5.66407,-1.39063 10.8125,-2.78516 13.96875,-2.67969 8.14844,0.27734 19.37891,1.47656 30.61328,-5.92969 11.23438,-7.41015 15.66016,-2.02344 9.19141,-10.84375 -6.46875,-8.82031 -21.98828,-4.05469 -31.24609,-7.45703 -3.48047,-1.27734 -8.10157,-1.83984 -12.85938,-1.83984 -7.91015,0 -16.1914,1.54297 -20.23047,3.8789"
         id="path24" />
    </clipPath>
    <clipPath
       id="clip-24">
      <path
         clip-rule="nonzero"
         d="m 378,237 h 36 v 29 h -36 z m 0,0"
         id="path25" />
    </clipPath>
    <clipPath
       id="clip-25">
      <path
         clip-rule="nonzero"
         d="m 359.62109,240.90234 c -2.125,1.23047 -4.0039,0.8711 -6.53125,0.51172 -5.17187,-0.73437 -13.05468,-1.46875 -31.2539,11.40625 0,0 -31.65625,0.85938 -40.16407,4.34375 -8.51171,3.48438 -21.10546,11.98828 -11.23437,13.01172 3.92187,0.41016 8.58203,-0.89453 13.63281,-2.19922 7.65235,-1.97265 16.19922,-3.94531 24.4375,0.0274 6.91016,3.33984 13.89844,1.33203 20.30469,-0.67579 6.26172,-1.96093 11.96875,-3.92187 16.51172,-0.89453 5.63281,3.75782 15.88672,1.55078 24.85937,-0.66015 5.66407,-1.39063 10.8125,-2.78516 13.96875,-2.67969 8.14844,0.27734 19.37891,1.47656 30.61328,-5.92969 11.23438,-7.41015 15.66016,-2.02344 9.19141,-10.84375 -6.46875,-8.82031 -21.98828,-4.05469 -31.24609,-7.45703 -3.48047,-1.27734 -8.10157,-1.83984 -12.85938,-1.83984 -7.91015,0 -16.1914,1.54297 -20.23047,3.8789"
         id="path26" />
    </clipPath>
    <clipPath
       id="clip-26">
      <path
         clip-rule="nonzero"
         d="m 359,237 h 22 v 33 h -22 z m 0,0"
         id="path27" />
    </clipPath>
    <clipPath
       id="clip-27">
      <path
         clip-rule="nonzero"
         d="m 359.62109,240.90234 c -2.125,1.23047 -4.0039,0.8711 -6.53125,0.51172 -5.17187,-0.73437 -13.05468,-1.46875 -31.2539,11.40625 0,0 -31.65625,0.85938 -40.16407,4.34375 -8.51171,3.48438 -21.10546,11.98828 -11.23437,13.01172 3.92187,0.41016 8.58203,-0.89453 13.63281,-2.19922 7.65235,-1.97265 16.19922,-3.94531 24.4375,0.0274 6.91016,3.33984 13.89844,1.33203 20.30469,-0.67579 6.26172,-1.96093 11.96875,-3.92187 16.51172,-0.89453 5.63281,3.75782 15.88672,1.55078 24.85937,-0.66015 5.66407,-1.39063 10.8125,-2.78516 13.96875,-2.67969 8.14844,0.27734 19.37891,1.47656 30.61328,-5.92969 11.23438,-7.41015 15.66016,-2.02344 9.19141,-10.84375 -6.46875,-8.82031 -21.98828,-4.05469 -31.24609,-7.45703 -3.48047,-1.27734 -8.10157,-1.83984 -12.85938,-1.83984 -7.91015,0 -16.1914,1.54297 -20.23047,3.8789"
         id="path28" />
    </clipPath>
    <clipPath
       id="clip-28">
      <path
         clip-rule="nonzero"
         d="m 337,237 h 21 v 34 h -21 z m 0,0"
         id="path29" />
    </clipPath>
    <clipPath
       id="clip-29">
      <path
         clip-rule="nonzero"
         d="m 359.62109,240.90234 c -2.125,1.23047 -4.0039,0.8711 -6.53125,0.51172 -5.17187,-0.73437 -13.05468,-1.46875 -31.2539,11.40625 0,0 -31.65625,0.85938 -40.16407,4.34375 -8.51171,3.48438 -21.10546,11.98828 -11.23437,13.01172 3.92187,0.41016 8.58203,-0.89453 13.63281,-2.19922 7.65235,-1.97265 16.19922,-3.94531 24.4375,0.0274 6.91016,3.33984 13.89844,1.33203 20.30469,-0.67579 6.26172,-1.96093 11.96875,-3.92187 16.51172,-0.89453 5.63281,3.75782 15.88672,1.55078 24.85937,-0.66015 5.66407,-1.39063 10.8125,-2.78516 13.96875,-2.67969 8.14844,0.27734 19.37891,1.47656 30.61328,-5.92969 11.23438,-7.41015 15.66016,-2.02344 9.19141,-10.84375 -6.46875,-8.82031 -21.98828,-4.05469 -31.24609,-7.45703 -3.48047,-1.27734 -8.10157,-1.83984 -12.85938,-1.83984 -7.91015,0 -16.1914,1.54297 -20.23047,3.8789"
         id="path30" />
    </clipPath>
    <clipPath
       id="clip-30">
      <path
         clip-rule="nonzero"
         d="m 317,242 h 17 v 29 h -17 z m 0,0"
         id="path31" />
    </clipPath>
    <clipPath
       id="clip-31">
      <path
         clip-rule="nonzero"
         d="m 359.62109,240.90234 c -2.125,1.23047 -4.0039,0.8711 -6.53125,0.51172 -5.17187,-0.73437 -13.05468,-1.46875 -31.2539,11.40625 0,0 -31.65625,0.85938 -40.16407,4.34375 -8.51171,3.48438 -21.10546,11.98828 -11.23437,13.01172 3.92187,0.41016 8.58203,-0.89453 13.63281,-2.19922 7.65235,-1.97265 16.19922,-3.94531 24.4375,0.0274 6.91016,3.33984 13.89844,1.33203 20.30469,-0.67579 6.26172,-1.96093 11.96875,-3.92187 16.51172,-0.89453 5.63281,3.75782 15.88672,1.55078 24.85937,-0.66015 5.66407,-1.39063 10.8125,-2.78516 13.96875,-2.67969 8.14844,0.27734 19.37891,1.47656 30.61328,-5.92969 11.23438,-7.41015 15.66016,-2.02344 9.19141,-10.84375 -6.46875,-8.82031 -21.98828,-4.05469 -31.24609,-7.45703 -3.48047,-1.27734 -8.10157,-1.83984 -12.85938,-1.83984 -7.91015,0 -16.1914,1.54297 -20.23047,3.8789"
         id="path32" />
    </clipPath>
    <clipPath
       id="clip-32">
      <path
         clip-rule="nonzero"
         d="m 275,251 h 49 v 19 h -49 z m 0,0"
         id="path33" />
    </clipPath>
    <clipPath
       id="clip-33">
      <path
         clip-rule="nonzero"
         d="m 359.62109,240.90234 c -2.125,1.23047 -4.0039,0.8711 -6.53125,0.51172 -5.17187,-0.73437 -13.05468,-1.46875 -31.2539,11.40625 0,0 -31.65625,0.85938 -40.16407,4.34375 -8.51171,3.48438 -21.10546,11.98828 -11.23437,13.01172 3.92187,0.41016 8.58203,-0.89453 13.63281,-2.19922 7.65235,-1.97265 16.19922,-3.94531 24.4375,0.0274 6.91016,3.33984 13.89844,1.33203 20.30469,-0.67579 6.26172,-1.96093 11.96875,-3.92187 16.51172,-0.89453 5.63281,3.75782 15.88672,1.55078 24.85937,-0.66015 5.66407,-1.39063 10.8125,-2.78516 13.96875,-2.67969 8.14844,0.27734 19.37891,1.47656 30.61328,-5.92969 11.23438,-7.41015 15.66016,-2.02344 9.19141,-10.84375 -6.46875,-8.82031 -21.98828,-4.05469 -31.24609,-7.45703 -3.48047,-1.27734 -8.10157,-1.83984 -12.85938,-1.83984 -7.91015,0 -16.1914,1.54297 -20.23047,3.8789"
         id="path34" />
    </clipPath>
    <clipPath
       id="clip-34">
      <path
         clip-rule="nonzero"
         d="m 74,262 h 129 v 26 H 74 Z m 0,0"
         id="path35" />
    </clipPath>
    <clipPath
       id="clip-35">
      <path
         clip-rule="nonzero"
         d="m 139.91797,260.07031 c -8.51172,3.53516 -21.10547,0.12891 -38.125,6.59766 -17.019532,6.46875 -20.765626,11.36719 -28.593751,15.55469 -7.828125,4.1875 8.851562,8.27343 29.273441,7.59375 20.42578,-0.6836 29.27343,-3.06641 38.80468,-4.08594 4.01172,-0.42969 7.54297,0.58984 11.58203,1.60937 5.55469,1.39844 12.06641,2.79688 22.11719,0.4336 17.36328,-4.08594 15.66016,-12.59375 34.04297,-11.23438 18.37891,1.36328 17.69922,-6.125 8.84766,-9.53125 -8.84766,-3.40234 -24.16797,1.01953 -24.16797,1.01953 0,0 -6.46875,0.34375 -12.25391,-4.76172 -5.78515,-5.10937 -13.95703,-2.72265 -19.0625,-2.04296 -2.0664,0.27343 -4.74219,-0.4375 -7.76562,-1.15235 -2.5625,-0.60547 -5.37891,-1.21484 -8.27344,-1.21484 -2.12109,0 -4.28516,0.32812 -6.42578,1.21484"
         id="path36" />
    </clipPath>
    <clipPath
       id="clip-36">
      <path
         clip-rule="nonzero"
         d="m 77,276 h 22 v 3 H 77 Z m 0,0"
         id="path37" />
    </clipPath>
    <clipPath
       id="clip-37">
      <path
         clip-rule="nonzero"
         d="m 139.91797,260.07031 c -8.51172,3.53516 -21.10547,0.12891 -38.125,6.59766 -17.019532,6.46875 -20.765626,11.36719 -28.593751,15.55469 -7.828125,4.1875 8.851562,8.27343 29.273441,7.59375 20.42578,-0.6836 29.27343,-3.06641 38.80468,-4.08594 4.01172,-0.42969 7.54297,0.58984 11.58203,1.60937 5.55469,1.39844 12.06641,2.79688 22.11719,0.4336 17.36328,-4.08594 15.66016,-12.59375 34.04297,-11.23438 18.37891,1.36328 17.69922,-6.125 8.84766,-9.53125 -8.84766,-3.40234 -24.16797,1.01953 -24.16797,1.01953 0,0 -6.46875,0.34375 -12.25391,-4.76172 -5.78515,-5.10937 -13.95703,-2.72265 -19.0625,-2.04296 -2.0664,0.27343 -4.74219,-0.4375 -7.76562,-1.15235 -2.5625,-0.60547 -5.37891,-1.21484 -8.27344,-1.21484 -2.12109,0 -4.28516,0.32812 -6.42578,1.21484"
         id="path38" />
    </clipPath>
    <clipPath
       id="clip-38">
      <path
         clip-rule="nonzero"
         d="m 82,261 h 38 v 29 H 82 Z m 0,0"
         id="path39" />
    </clipPath>
    <clipPath
       id="clip-39">
      <path
         clip-rule="nonzero"
         d="m 139.91797,260.07031 c -8.51172,3.53516 -21.10547,0.12891 -38.125,6.59766 -17.019532,6.46875 -20.765626,11.36719 -28.593751,15.55469 -7.828125,4.1875 8.851562,8.27343 29.273441,7.59375 20.42578,-0.6836 29.27343,-3.06641 38.80468,-4.08594 4.01172,-0.42969 7.54297,0.58984 11.58203,1.60937 5.55469,1.39844 12.06641,2.79688 22.11719,0.4336 17.36328,-4.08594 15.66016,-12.59375 34.04297,-11.23438 18.37891,1.36328 17.69922,-6.125 8.84766,-9.53125 -8.84766,-3.40234 -24.16797,1.01953 -24.16797,1.01953 0,0 -6.46875,0.34375 -12.25391,-4.76172 -5.78515,-5.10937 -13.95703,-2.72265 -19.0625,-2.04296 -2.0664,0.27343 -4.74219,-0.4375 -7.76562,-1.15235 -2.5625,-0.60547 -5.37891,-1.21484 -8.27344,-1.21484 -2.12109,0 -4.28516,0.32812 -6.42578,1.21484"
         id="path40" />
    </clipPath>
    <clipPath
       id="clip-40">
      <path
         clip-rule="nonzero"
         d="m 114,258 h 26 v 32 h -26 z m 0,0"
         id="path41" />
    </clipPath>
    <clipPath
       id="clip-41">
      <path
         clip-rule="nonzero"
         d="m 139.91797,260.07031 c -8.51172,3.53516 -21.10547,0.12891 -38.125,6.59766 -17.019532,6.46875 -20.765626,11.36719 -28.593751,15.55469 -7.828125,4.1875 8.851562,8.27343 29.273441,7.59375 20.42578,-0.6836 29.27343,-3.06641 38.80468,-4.08594 4.01172,-0.42969 7.54297,0.58984 11.58203,1.60937 5.55469,1.39844 12.06641,2.79688 22.11719,0.4336 17.36328,-4.08594 15.66016,-12.59375 34.04297,-11.23438 18.37891,1.36328 17.69922,-6.125 8.84766,-9.53125 -8.84766,-3.40234 -24.16797,1.01953 -24.16797,1.01953 0,0 -6.46875,0.34375 -12.25391,-4.76172 -5.78515,-5.10937 -13.95703,-2.72265 -19.0625,-2.04296 -2.0664,0.27343 -4.74219,-0.4375 -7.76562,-1.15235 -2.5625,-0.60547 -5.37891,-1.21484 -8.27344,-1.21484 -2.12109,0 -4.28516,0.32812 -6.42578,1.21484"
         id="path42" />
    </clipPath>
    <clipPath
       id="clip-42">
      <path
         clip-rule="nonzero"
         d="m 138,258 h 28 v 32 h -28 z m 0,0"
         id="path43" />
    </clipPath>
    <clipPath
       id="clip-43">
      <path
         clip-rule="nonzero"
         d="m 139.91797,260.07031 c -8.51172,3.53516 -21.10547,0.12891 -38.125,6.59766 -17.019532,6.46875 -20.765626,11.36719 -28.593751,15.55469 -7.828125,4.1875 8.851562,8.27343 29.273441,7.59375 20.42578,-0.6836 29.27343,-3.06641 38.80468,-4.08594 4.01172,-0.42969 7.54297,0.58984 11.58203,1.60937 5.55469,1.39844 12.06641,2.79688 22.11719,0.4336 17.36328,-4.08594 15.66016,-12.59375 34.04297,-11.23438 18.37891,1.36328 17.69922,-6.125 8.84766,-9.53125 -8.84766,-3.40234 -24.16797,1.01953 -24.16797,1.01953 0,0 -6.46875,0.34375 -12.25391,-4.76172 -5.78515,-5.10937 -13.95703,-2.72265 -19.0625,-2.04296 -2.0664,0.27343 -4.74219,-0.4375 -7.76562,-1.15235 -2.5625,-0.60547 -5.37891,-1.21484 -8.27344,-1.21484 -2.12109,0 -4.28516,0.32812 -6.42578,1.21484"
         id="path44" />
    </clipPath>
    <clipPath
       id="clip-44">
      <path
         clip-rule="nonzero"
         d="m 166,258 h 20 v 32 h -20 z m 0,0"
         id="path45" />
    </clipPath>
    <clipPath
       id="clip-45">
      <path
         clip-rule="nonzero"
         d="m 139.91797,260.07031 c -8.51172,3.53516 -21.10547,0.12891 -38.125,6.59766 -17.019532,6.46875 -20.765626,11.36719 -28.593751,15.55469 -7.828125,4.1875 8.851562,8.27343 29.273441,7.59375 20.42578,-0.6836 29.27343,-3.06641 38.80468,-4.08594 4.01172,-0.42969 7.54297,0.58984 11.58203,1.60937 5.55469,1.39844 12.06641,2.79688 22.11719,0.4336 17.36328,-4.08594 15.66016,-12.59375 34.04297,-11.23438 18.37891,1.36328 17.69922,-6.125 8.84766,-9.53125 -8.84766,-3.40234 -24.16797,1.01953 -24.16797,1.01953 0,0 -6.46875,0.34375 -12.25391,-4.76172 -5.78515,-5.10937 -13.95703,-2.72265 -19.0625,-2.04296 -2.0664,0.27343 -4.74219,-0.4375 -7.76562,-1.15235 -2.5625,-0.60547 -5.37891,-1.21484 -8.27344,-1.21484 -2.12109,0 -4.28516,0.32812 -6.42578,1.21484"
         id="path46" />
    </clipPath>
    <clipPath
       id="clip-46">
      <path
         clip-rule="nonzero"
         d="m 183,269 h 41 v 7 h -41 z m 0,0"
         id="path47" />
    </clipPath>
    <clipPath
       id="clip-47">
      <path
         clip-rule="nonzero"
         d="m 139.91797,260.07031 c -8.51172,3.53516 -21.10547,0.12891 -38.125,6.59766 -17.019532,6.46875 -20.765626,11.36719 -28.593751,15.55469 -7.828125,4.1875 8.851562,8.27343 29.273441,7.59375 20.42578,-0.6836 29.27343,-3.06641 38.80468,-4.08594 4.01172,-0.42969 7.54297,0.58984 11.58203,1.60937 5.55469,1.39844 12.06641,2.79688 22.11719,0.4336 17.36328,-4.08594 15.66016,-12.59375 34.04297,-11.23438 18.37891,1.36328 17.69922,-6.125 8.84766,-9.53125 -8.84766,-3.40234 -24.16797,1.01953 -24.16797,1.01953 0,0 -6.46875,0.34375 -12.25391,-4.76172 -5.78515,-5.10937 -13.95703,-2.72265 -19.0625,-2.04296 -2.0664,0.27343 -4.74219,-0.4375 -7.76562,-1.15235 -2.5625,-0.60547 -5.37891,-1.21484 -8.27344,-1.21484 -2.12109,0 -4.28516,0.32812 -6.42578,1.21484"
         id="path48" />
    </clipPath>
    <clipPath
       id="clip-48">
      <path
         clip-rule="nonzero"
         d="m 27,176 h 77 v 26 H 27 Z m 0,0"
         id="path49" />
    </clipPath>
    <clipPath
       id="clip-49">
      <path
         clip-rule="nonzero"
         d="M 72.210938,129.67578 H 30.109375 c 0,0 -9.988281,37.71484 12.617188,66.26563 2.070312,3.03515 14.480468,5.36328 29.484375,5.36328 15.007812,0 27.417968,-2.32813 29.484372,-5.36328 22.60938,-28.55079 12.61719,-66.26563 12.61719,-66.26563 z m 0,0"
         id="path50" />
    </clipPath>
    <clipPath
       id="clip-50">
      <path
         clip-rule="nonzero"
         d="m 61,152 h 56 v 50 H 61 Z m 0,0"
         id="path51" />
    </clipPath>
    <clipPath
       id="clip-51">
      <path
         clip-rule="nonzero"
         d="M 72.210938,129.67578 H 30.109375 c 0,0 -9.988281,37.71484 12.617188,66.26563 2.070312,3.03515 14.480468,5.36328 29.484375,5.36328 15.007812,0 27.417968,-2.32813 29.484372,-5.36328 22.60938,-28.55079 12.61719,-66.26563 12.61719,-66.26563 z m 0,0"
         id="path52" />
    </clipPath>
    <clipPath
       id="clip-52">
      <path
         clip-rule="nonzero"
         d="m 27,129 h 58 v 37 H 27 Z m 0,0"
         id="path53" />
    </clipPath>
    <clipPath
       id="clip-53">
      <path
         clip-rule="nonzero"
         d="M 72.210938,129.67578 H 30.109375 c 0,0 -9.988281,37.71484 12.617188,66.26563 2.070312,3.03515 14.480468,5.36328 29.484375,5.36328 15.007812,0 27.417968,-2.32813 29.484372,-5.36328 22.60938,-28.55079 12.61719,-66.26563 12.61719,-66.26563 z m 0,0"
         id="path54" />
    </clipPath>
    <clipPath
       id="clip-54">
      <path
         clip-rule="nonzero"
         d="m 64,129 h 53 v 58 H 64 Z m 0,0"
         id="path55" />
    </clipPath>
    <clipPath
       id="clip-55">
      <path
         clip-rule="nonzero"
         d="M 72.210938,129.67578 H 30.109375 c 0,0 -9.988281,37.71484 12.617188,66.26563 2.070312,3.03515 14.480468,5.36328 29.484375,5.36328 15.007812,0 27.417968,-2.32813 29.484372,-5.36328 22.60938,-28.55079 12.61719,-66.26563 12.61719,-66.26563 z m 0,0"
         id="path56" />
    </clipPath>
    <clipPath
       id="clip-56">
      <path
         clip-rule="nonzero"
         d="m 30,129 h 85 v 10 H 30 Z m 0,0"
         id="path57" />
    </clipPath>
    <clipPath
       id="clip-57">
      <path
         clip-rule="nonzero"
         d="m 30.109375,129.67578 c 0,4.95313 18.851563,8.96484 42.101563,8.96484 23.253906,0 42.101562,-4.01171 42.101562,-8.96484 0,-4.95312 -18.847656,-8.96484 -42.101562,-8.96484 -23.25,0 -42.101563,4.01172 -42.101563,8.96484"
         id="path58" />
    </clipPath>
    <clipPath
       id="clip-58">
      <path
         clip-rule="nonzero"
         d="m 348,370 h 100 v 11 H 348 Z m 0,0"
         id="path59" />
    </clipPath>
    <clipPath
       id="clip-59">
      <path
         clip-rule="nonzero"
         d="m 348.47656,370.57422 c 0,5.39453 22.24219,9.76953 49.67578,9.76953 27.4375,0 49.67578,-4.375 49.67578,-9.76953 0,-5.39453 -22.23828,-9.76953 -49.67578,-9.76953 -27.43359,0 -49.67578,4.375 -49.67578,9.76953"
         id="path60" />
    </clipPath>
    <clipPath
       id="clip-60">
      <path
         clip-rule="nonzero"
         d="m 45,396 h 92 v 41 H 45 Z m 0,0"
         id="path61" />
    </clipPath>
    <clipPath
       id="clip-61">
      <path
         clip-rule="nonzero"
         d="m 45.511719,396.60937 v 53.92969 c 0,4.9375 20.34375,8.9375 45.445312,8.9375 25.097659,0 45.445309,-4 45.445309,-8.9375 v -53.92969 z m 0,0"
         id="path62" />
    </clipPath>
    <clipPath
       id="clip-62">
      <path
         clip-rule="nonzero"
         d="m 45,396 h 92 v 10 H 45 Z m 0,0"
         id="path63" />
    </clipPath>
    <clipPath
       id="clip-63">
      <path
         clip-rule="nonzero"
         d="m 45.511719,396.60937 c 0,4.9375 20.34375,8.9375 45.445312,8.9375 25.097659,0 45.445309,-4 45.445309,-8.9375 0,-4.93359 -20.34765,-8.9375 -45.445309,-8.9375 -25.101562,0 -45.445312,4.00391 -45.445312,8.9375"
         id="path64" />
    </clipPath>
  </defs>
  <path
     fill-rule="nonzero"
     fill="#ffc0b6"
     fill-opacity="1"
     d="m 2.7699017,94.438517 c 0,3.07243 10.2971103,5.561493 23.0009403,5.561493 12.70383,0 23.00324,-2.489063 23.00324,-5.561493 0,-3.07244 -10.29941,-5.5615 -23.00324,-5.5615 -12.70383,0 -23.0009403,2.48906 -23.0009403,5.5615"
     id="path122"
     style="stroke-width:0.585664" />
  <path
     fill-rule="nonzero"
     fill="#fff0e9"
     fill-opacity="1"
     d="M 50.601982,54.368727 H 1.2874417 c 0,0 -5.84976,22.08814 7.39169,38.80924 1.21021,1.77757 8.4783703,3.14107 17.2655803,3.14107 8.7895,0 16.05536,-1.3635 17.26787,-3.14107 13.24144,-16.7211 7.3894,-38.80924 7.3894,-38.80924"
     id="path123"
     style="stroke-width:0.585664" />
  <g
     clip-path="url(#clip-48)"
     id="g125"
     transform="matrix(0.58566165,0,0,0.58566165,-16.346468,-21.577403)">
    <g
       clip-path="url(#clip-49)"
       id="g124">
      <path
         fill="none"
         stroke-width="0.967"
         stroke-linecap="round"
         stroke-linejoin="round"
         stroke="#e4975a"
         stroke-opacity="1"
         stroke-miterlimit="10"
         d="m 0.0011625,-2.625e-4 c 0,0 53.8710935,28.4687505 91.2617185,-29.5039065"
         transform="matrix(1,0,0,-1,11.4754,184.2263)"
         id="path124" />
    </g>
  </g>
  <g
     clip-path="url(#clip-50)"
     id="g127"
     transform="matrix(0.58566165,0,0,0.58566165,-16.346468,-21.577403)">
    <g
       clip-path="url(#clip-51)"
       id="g126">
      <path
         fill="none"
         stroke-width="0.967"
         stroke-linecap="round"
         stroke-linejoin="round"
         stroke="#e4975a"
         stroke-opacity="1"
         stroke-miterlimit="10"
         d="m -7.375e-4,0.001675 c 0,0 -1.7578125,66.734375 66.8359375,66.734375"
         transform="matrix(1,0,0,-1,62.1023,220.2048)"
         id="path125" />
    </g>
  </g>
  <g
     clip-path="url(#clip-52)"
     id="g129"
     transform="matrix(0.58566165,0,0,0.58566165,-16.346468,-21.577403)">
    <g
       clip-path="url(#clip-53)"
       id="g128">
      <path
         fill="none"
         stroke-width="0.967"
         stroke-linecap="round"
         stroke-linejoin="round"
         stroke="#e4975a"
         stroke-opacity="1"
         stroke-miterlimit="10"
         d="m 0.0011625,0.00114375 c 0,0 56.3945315,-22.38671875 72.3632815,54.26562525"
         transform="matrix(1,0,0,-1,11.4754,162.3488)"
         id="path127" />
    </g>
  </g>
  <g
     clip-path="url(#clip-54)"
     id="g131"
     transform="matrix(0.58566165,0,0,0.58566165,-16.346468,-21.577403)">
    <g
       clip-path="url(#clip-55)"
       id="g130">
      <path
         fill="none"
         stroke-width="0.967"
         stroke-linecap="round"
         stroke-linejoin="round"
         stroke="#e4975a"
         stroke-opacity="1"
         stroke-miterlimit="10"
         d="m 1.9375e-4,-8e-4 c 0,0 -25.27734375,-80.929687 62.78515625,-80.929687"
         transform="matrix(1,0,0,-1,67.9334,104.6867)"
         id="path129" />
    </g>
  </g>
  <path
     fill-rule="nonzero"
     fill="#ffebdf"
     fill-opacity="1"
     d="m 50.601982,54.368727 c 0,2.90087 -11.03834,5.25037 -24.65727,5.25037 -13.61663,0 -24.6572703,-2.3495 -24.6572703,-5.25037 0,-2.90085 11.0406403,-5.25036 24.6572703,-5.25036 13.61893,0 24.65727,2.34951 24.65727,5.25036"
     id="path131"
     style="stroke-width:0.585664" />
  <g
     clip-path="url(#clip-56)"
     id="g133"
     transform="matrix(0.58566165,0,0,0.58566165,-16.346468,-21.577403)">
    <g
       clip-path="url(#clip-57)"
       id="g132">
      <path
         fill-rule="nonzero"
         fill="#7e402a"
         fill-opacity="1"
         d="m 114.3125,138.64062 c 0,4.95313 -18.847656,8.96485 -42.101562,8.96485 -23.25,0 -42.101563,-4.01172 -42.101563,-8.96485 0,-4.95312 18.851563,-8.96484 42.101563,-8.96484 23.253906,0 42.101562,4.01172 42.101562,8.96484"
         id="path132" />
    </g>
  </g>
  <path
     fill-rule="nonzero"
     fill="#153011"
     fill-opacity="1"
     d="m 31.867672,59.465817 c 0,0 -3.28062,-18.71601 -3.65581,-29.23503 -0.3729,-10.51904 3.12277,-10.65859 4.99415,-3.96008 1.87365,6.69621 4.66012,32.6941 4.66012,32.6941 z m 0,0"
     id="path133"
     style="stroke-width:0.585664" />
  <path
     fill-rule="nonzero"
     fill="#153011"
     fill-opacity="1"
     d="m 15.146572,43.129057 0.25165,-0.0343 c 0.34546,-5.33273 0.81673,-11.1047 1.45272,-15.98216 0.62456,-4.82027 1.11184,-9.57191 1.67234,-13.63723 -0.16929,-2.37238 -0.3546,-4.46109 -0.54906,-6.03734 -1.12328,-9.07089 -4.62123,-9.76866 -5.62098,-2.51194 -0.20818,1.51677 -0.30198,4.0859 -0.32028,7.19723 1.64488,2.00177 1.27427,9.95396 2.4433,21.9646 0.30885,3.16852 0.5239,6.2158 0.67031,9.04114"
     id="path134"
     style="stroke-width:0.585664" />
  <path
     fill-rule="nonzero"
     fill="#153011"
     fill-opacity="1"
     d="m 44.695032,37.716267 c -1.45957,2.41357 -3.04726,6.11971 -4.25748,9.18528 -0.42781,5.60039 -0.78469,10.06148 -0.93111,11.8505 1.73411,-0.24251 3.31494,-0.53076 4.70589,-0.85562 0.5765,-1.73868 1.96974,-5.93898 4.1042,-12.36524 2.87111,-8.65223 -0.75038,-12.5597 -3.6215,-7.81492"
     id="path135"
     style="stroke-width:0.585664" />
  <path
     fill-rule="nonzero"
     fill="#153011"
     fill-opacity="1"
     d="m 38.451792,59.735767 0.19217,-0.032 -0.19217,0.0229 z m 0,0"
     id="path136"
     style="stroke-width:0.585664" />
  <path
     fill-rule="nonzero"
     fill="#305e27"
     fill-opacity="1"
     d="m 15.254102,45.453407 c -0.032,-0.75496 -0.0686,-1.5305 -0.10981,-2.32435 -0.14413,-2.82535 -0.35689,-5.87262 -0.66803,-9.04115 -1.16903,-12.01063 -0.8007,-19.96282 -2.4433,-21.9646 -0.28368,-0.34773 -0.62684,-0.5216 -1.05237,-0.50101 -2.8711103,0.14184 -3.1204703,11.16417 -3.1204703,22.32606 0,9.52386 1.52821,21.17304 1.97889,24.39418 1.4572903,0.26767 3.0632903,0.50102 4.7905303,0.6909 0.0641,-2.0155 0.25395,-7.32763 0.62456,-13.58003"
     id="path137"
     style="stroke-width:0.585664" />
  <path
     fill-rule="nonzero"
     fill="#578e54"
     fill-opacity="1"
     d="m 22.719002,32.973787 c 0.36375,-0.0343 0.70462,0.10294 1.02262,0.37747 1.13242,-8.50811 3.44533,-30.9417 -0.5239,-31.49533 -2.53024,-0.35459 -3.72444,4.60065 -4.69444,11.61944 -0.5605,4.06303 -1.04778,8.81695 -1.67462,13.63722 -0.63371,4.87746 -1.10498,10.64943 -1.45044,15.98216 -0.0503,0.79842 -0.0984,1.5854 -0.14412,2.35866 -0.37061,6.2524 -0.5605,11.56453 -0.62456,13.58003 1.72725,0.18988 3.57574,0.33859 5.51117,0.43924 0.20361,-1.45729 0.65201,-4.67614 1.18276,-8.49667 -0.90137,-7.83779 -1.46415,-17.75057 1.39553,-18.00222"
     id="path138"
     style="stroke-width:0.585664" />
  <path
     fill-rule="nonzero"
     fill="#578e54"
     fill-opacity="1"
     d="m 34.205742,45.252087 c 0,0 1.2331,-22.83623 1.96517,-34.17656 -1.36807,-3.17767 -2.97635,-4.95525 -4.46338,-3.77706 -2.99465,2.37239 0.66345,17.4852 0,26.23124 -0.41408,5.49514 -2.58057,12.12273 -4.13624,16.29328 0.38206,4.26893 0.55135,8.11462 0.61312,9.77323 1.98347,-0.0366 3.89831,-0.12582 5.71706,-0.25851 0.23564,-1.03406 0.66574,-2.95119 1.18505,-5.40593 z m 0,0"
     id="path139"
     style="stroke-width:0.585664" />
  <path
     fill-rule="nonzero"
     fill="#305e27"
     fill-opacity="1"
     d="m 40.437552,46.901547 c 0.92882,-12.17765 2.18021,-29.70174 2.258,-36.67477 0.12583,-11.16188999 -5.61869,-11.58055 -6.24096,-3.29435 -0.0801,1.06151 -0.17844,2.47991 -0.28368,4.1431 -0.72979,11.34033 -1.96517,34.17656 -1.96517,34.17656 l 0.8785,8.67969 0.53533,5.26637 c 1.36349,-0.12353 2.66293,-0.27223 3.88687,-0.4461 0.14642,-1.78902 0.5033,-6.25011 0.93111,-11.8505"
     id="path140"
     style="stroke-width:0.585664" />
  <path
     fill-rule="nonzero"
     fill="#305e27"
     fill-opacity="1"
     d="m 28.184412,59.596217 c -0.0618,-1.65861 -0.23106,-5.5043 -0.61312,-9.77323 -0.60625,-6.79688 -1.74554,-14.66441 -3.82967,-16.46944 -0.318,-0.27682 -0.65887,-0.41408 -1.02262,-0.37976 -2.85968,0.25165 -2.2969,10.16443 -1.39781,18.00222 0.43696,3.79766 0.94941,7.10115 1.19191,8.59047 1.12328,0.0343 2.26715,0.0526 3.43161,0.0526 0.75496,0 1.50076,-0.009 2.2397,-0.0229"
     id="path141"
     style="stroke-width:0.585664" />
</svg>
