<?xml version="1.0" encoding="UTF-8" standalone="no"?>
<svg
   role="img"
   viewBox="0 0 24 24"
   version="1.1"
   id="svg1"
   sodipodi:docname="googledrive.svg"
   inkscape:version="1.3 (0e150ed6c4, 2023-07-21)"
   xmlns:inkscape="http://www.inkscape.org/namespaces/inkscape"
   xmlns:sodipodi="http://sodipodi.sourceforge.net/DTD/sodipodi-0.dtd"
   xmlns="http://www.w3.org/2000/svg"
   xmlns:svg="http://www.w3.org/2000/svg">
  <defs
     id="defs1" />
  <sodipodi:namedview
     id="namedview1"
     pagecolor="#ffffff"
     bordercolor="#000000"
     borderopacity="0.25"
     inkscape:showpageshadow="2"
     inkscape:pageopacity="0.0"
     inkscape:pagecheckerboard="0"
     inkscape:deskcolor="#d1d1d1"
     inkscape:zoom="23.5113"
     inkscape:cx="8.8893424"
     inkscape:cy="11.271176"
     inkscape:window-width="1920"
     inkscape:window-height="1002"
     inkscape:window-x="-8"
     inkscape:window-y="-8"
     inkscape:window-maximized="1"
     inkscape:current-layer="svg1" />
  <title
     id="title1">Google Drive</title>
  <path
     d="M12.01 1.485c-2.082 0-3.754.02-3.743.047.01.02 1.708 3.001 3.774 6.62l3.76 6.574h3.76c2.081 0 3.753-.02 3.742-.047-.005-.02-1.708-3.001-3.775-6.62l-3.76-6.574zm-4.76 1.73a789.828 789.861 0 0 0-3.63 6.319L0 15.868l1.89 3.298 1.885 3.297 3.62-6.335 3.618-6.33-1.88-3.287C8.1 4.704 7.255 3.22 7.25 3.214zm2.259 12.653-.203.348c-.114.198-.96 1.672-1.88 3.287a423.93 423.948 0 0 1-1.698 2.97c-.01.026 3.24.042 7.222.042h7.244l1.796-3.157c.992-1.734 1.85-3.23 1.906-3.323l.104-.167h-7.249z"
     id="path1"
     style="fill:#ffffff" />
</svg>
